{"glyphs":{"0":{"ha":1044,"x_min":96,"x_max":993,"o":"m 642 982 q 903 885 813 982 q 993 611 993 789 q 928 285 993 425 q 741 69 864 146 q 450 -8 618 -8 q 187 88 278 -8 q 96 363 96 185 q 160 688 96 549 q 348 905 225 828 q 642 982 471 982 m 606 793 q 422 688 488 793 q 356 361 356 582 q 388 224 356 268 q 485 181 419 181 q 668 286 601 181 q 735 613 735 392 q 703 749 735 706 q 606 793 671 793 z "},"1":{"ha":625,"x_min":124,"x_max":604,"o":"m 163 974 l 604 974 l 415 0 l 160 0 l 308 765 l 124 765 l 163 974 z "},"2":{"ha":900,"x_min":13,"x_max":872,"o":"m 872 771 q 806 597 872 685 q 617 404 740 508 l 379 204 l 794 204 l 754 0 l 13 0 l 44 168 l 469 532 q 558 622 524 578 q 596 699 593 667 q 576 755 601 735 q 500 775 551 775 q 365 742 442 775 q 208 651 288 710 l 147 839 q 578 985 378 985 q 792 926 711 985 q 872 771 872 868 z "},"3":{"ha":900,"x_min":-3,"x_max":897,"o":"m 869 826 l 557 583 l 606 574 q 763 500 706 558 q 821 351 821 442 q 762 167 821 250 q 597 36 703 83 q 358 -11 492 -11 q 156 22 253 -11 q -3 108 58 54 l 126 288 q 242 210 178 236 q 375 183 306 183 q 518 222 467 183 q 569 326 569 260 q 532 399 569 374 q 422 424 494 424 l 258 424 l 283 563 l 551 779 l 181 779 l 217 974 l 897 974 l 869 826 z "},"4":{"ha":908,"x_min":26,"x_max":863,"o":"m 863 403 l 825 210 l 699 210 l 658 0 l 425 0 l 467 210 l 26 210 l 60 382 l 450 974 l 692 974 l 322 403 l 504 403 l 544 610 l 776 610 l 736 403 l 863 403 z "},"5":{"ha":921,"x_min":8,"x_max":914,"o":"m 454 769 l 426 621 l 513 621 q 687 590 613 621 q 800 501 761 558 q 839 371 839 444 q 779 175 839 263 q 612 38 719 88 q 369 -11 504 -11 q 174 22 272 -11 q 8 110 76 56 l 138 293 q 252 214 190 243 q 379 185 314 185 q 511 224 463 185 q 560 329 560 264 q 525 399 560 375 q 421 424 490 424 q 153 418 236 424 l 260 974 l 914 974 l 876 769 l 454 769 z "},"6":{"ha":936,"x_min":90,"x_max":942,"o":"m 425 -11 q 178 87 265 -11 q 90 357 90 185 q 163 679 90 536 q 363 903 236 822 q 647 985 490 985 q 808 963 728 985 q 942 904 889 940 l 814 729 q 729 776 778 760 q 625 792 681 792 q 444 724 514 792 q 353 536 374 657 q 600 640 446 640 q 789 572 721 640 q 857 388 857 503 q 801 180 857 271 q 646 39 744 89 q 425 -11 547 -11 m 454 189 q 578 234 532 189 q 625 354 625 279 q 595 431 625 404 q 511 458 565 458 q 390 416 438 458 q 338 308 343 374 q 336 290 336 303 q 365 217 336 246 q 454 189 394 189 z "},"7":{"ha":888,"x_min":115,"x_max":957,"o":"m 181 974 l 957 974 l 924 797 l 401 0 l 132 0 l 636 769 l 367 769 l 339 632 l 115 632 l 181 974 z "},"8":{"ha":931,"x_min":47,"x_max":879,"o":"m 582 985 q 800 924 721 985 q 879 763 879 864 q 835 624 879 688 q 719 521 792 560 q 810 437 776 492 q 843 315 843 382 q 785 145 843 219 q 625 30 728 71 q 390 -11 522 -11 q 139 53 231 -11 q 47 228 47 118 q 112 401 47 322 q 281 521 176 481 q 212 597 236 550 q 188 696 188 643 q 238 845 188 779 q 378 948 288 911 q 582 985 468 985 m 550 814 q 437 780 478 814 q 396 688 396 746 q 425 624 396 646 q 508 603 454 603 q 622 636 582 603 q 663 728 663 669 q 634 792 663 769 q 550 814 606 814 m 474 417 q 341 378 389 417 q 293 274 293 340 q 327 201 293 226 q 425 175 361 175 q 558 213 510 175 q 607 318 607 251 q 572 391 607 365 q 474 417 538 417 z "},"9":{"ha":935,"x_min":38,"x_max":888,"o":"m 165 244 q 249 198 201 214 q 353 182 297 182 q 534 249 464 182 q 626 439 604 317 q 378 333 529 333 q 192 402 260 333 q 125 586 125 471 q 181 794 125 703 q 334 935 236 885 q 554 985 432 985 q 800 886 713 985 q 888 615 888 788 q 815 294 888 438 q 616 70 743 151 q 331 -11 489 -11 q 172 11 251 -11 q 38 69 92 33 l 165 244 m 525 785 q 403 740 449 785 q 357 619 357 694 q 385 543 357 571 q 468 515 414 515 q 589 558 542 515 q 642 665 636 600 q 643 683 643 671 q 614 756 643 728 q 525 785 585 785 z "},"\u0000":{"ha":0,"x_min":0,"x_max":0,"o":""},"\r":{"ha":308,"x_min":0,"x_max":0,"o":""}," ":{"ha":308,"x_min":0,"x_max":0,"o":""},"A":{"ha":1074,"x_min":-82,"x_max":1006,"o":"m 733 0 l 696 172 l 274 172 l 178 0 l -82 0 l 497 974 l 758 974 l 1006 0 l 733 0 m 382 367 l 654 367 l 578 719 l 382 367 z "},"Á":{"ha":1074,"x_min":-82,"x_max":1006,"o":"m 733 0 l 696 172 l 274 172 l 178 0 l -82 0 l 497 974 l 758 974 l 1006 0 l 733 0 m 382 367 l 654 367 l 578 719 l 382 367 m 675 1281 l 879 1203 l 678 1043 l 508 1057 l 675 1281 z "},"Ă":{"ha":1074,"x_min":-82,"x_max":1006,"o":"m 733 0 l 696 172 l 274 172 l 178 0 l -82 0 l 497 974 l 758 974 l 1006 0 l 733 0 m 382 367 l 654 367 l 578 719 l 382 367 m 596 1268 q 608 1211 592 1233 q 657 1189 625 1189 q 714 1210 689 1189 q 749 1268 739 1232 l 903 1268 q 804 1106 879 1167 q 629 1044 729 1044 q 491 1093 542 1044 q 440 1225 440 1142 q 443 1268 440 1253 l 596 1268 z "},"Ắ":{"ha":1074,"x_min":-82,"x_max":1006,"o":"m 733 0 l 696 172 l 274 172 l 178 0 l -82 0 l 497 974 l 758 974 l 1006 0 l 733 0 m 382 367 l 654 367 l 578 719 l 382 367 z "},"Ặ":{"ha":1074,"x_min":-82,"x_max":1006,"o":"m 733 0 l 696 172 l 274 172 l 178 0 l -82 0 l 497 974 l 758 974 l 1006 0 l 733 0 m 382 367 l 654 367 l 578 719 l 382 367 m 443 -94 q 522 -124 493 -94 q 551 -203 551 -154 q 505 -313 551 -268 q 392 -358 458 -358 q 314 -328 343 -358 q 285 -250 285 -299 q 331 -140 285 -185 q 443 -94 378 -94 m 592 1268 q 604 1211 588 1233 q 653 1189 621 1189 q 710 1210 685 1189 q 744 1268 735 1232 l 899 1268 q 800 1106 875 1167 q 625 1044 725 1044 q 487 1093 538 1044 q 436 1225 436 1142 q 439 1268 436 1253 l 592 1268 z "},"Ằ":{"ha":1074,"x_min":-82,"x_max":1006,"o":"m 733 0 l 696 172 l 274 172 l 178 0 l -82 0 l 497 974 l 758 974 l 1006 0 l 733 0 m 382 367 l 654 367 l 578 719 l 382 367 z "},"Ẳ":{"ha":1074,"x_min":-82,"x_max":1006,"o":"m 733 0 l 696 172 l 274 172 l 178 0 l -82 0 l 497 974 l 758 974 l 1006 0 l 733 0 m 382 367 l 654 367 l 578 719 l 382 367 z "},"Ẵ":{"ha":1074,"x_min":-82,"x_max":1006,"o":"m 733 0 l 696 172 l 274 172 l 178 0 l -82 0 l 497 974 l 758 974 l 1006 0 l 733 0 m 382 367 l 654 367 l 578 719 l 382 367 z "},"Â":{"ha":1074,"x_min":-82,"x_max":1006,"o":"m 733 0 l 696 172 l 274 172 l 178 0 l -82 0 l 497 974 l 758 974 l 1006 0 l 733 0 m 382 367 l 654 367 l 578 719 l 382 367 m 892 1051 l 714 1051 l 649 1144 l 547 1051 l 369 1051 l 563 1264 l 781 1264 l 892 1051 z "},"Ấ":{"ha":1074,"x_min":-82,"x_max":1006,"o":"m 733 0 l 696 172 l 274 172 l 178 0 l -82 0 l 497 974 l 758 974 l 1006 0 l 733 0 m 382 367 l 654 367 l 578 719 l 382 367 z "},"Ậ":{"ha":1074,"x_min":-82,"x_max":1006,"o":"m 733 0 l 696 172 l 274 172 l 178 0 l -82 0 l 497 974 l 758 974 l 1006 0 l 733 0 m 382 367 l 654 367 l 578 719 l 382 367 m 443 -94 q 522 -124 493 -94 q 551 -203 551 -154 q 505 -313 551 -268 q 392 -358 458 -358 q 314 -328 343 -358 q 285 -250 285 -299 q 331 -140 285 -185 q 443 -94 378 -94 m 888 1051 l 710 1051 l 644 1144 l 543 1051 l 365 1051 l 558 1264 l 776 1264 l 888 1051 z "},"Ầ":{"ha":1074,"x_min":-82,"x_max":1006,"o":"m 733 0 l 696 172 l 274 172 l 178 0 l -82 0 l 497 974 l 758 974 l 1006 0 l 733 0 m 382 367 l 654 367 l 578 719 l 382 367 z "},"Ẩ":{"ha":1074,"x_min":-82,"x_max":1006,"o":"m 733 0 l 696 172 l 274 172 l 178 0 l -82 0 l 497 974 l 758 974 l 1006 0 l 733 0 m 382 367 l 654 367 l 578 719 l 382 367 z "},"Ẫ":{"ha":1074,"x_min":-82,"x_max":1006,"o":"m 733 0 l 696 172 l 274 172 l 178 0 l -82 0 l 497 974 l 758 974 l 1006 0 l 733 0 m 382 367 l 654 367 l 578 719 l 382 367 z "},"Ȁ":{"ha":1074,"x_min":-82,"x_max":1006,"o":"m 733 0 l 696 172 l 274 172 l 178 0 l -82 0 l 497 974 l 758 974 l 1006 0 l 733 0 m 382 367 l 654 367 l 578 719 l 382 367 m 536 1282 l 604 1053 l 428 1040 l 336 1213 l 536 1282 m 810 1282 l 878 1053 l 701 1040 l 610 1213 l 810 1282 z "},"Ä":{"ha":1074,"x_min":-82,"x_max":1006,"o":"m 733 0 l 696 172 l 274 172 l 178 0 l -82 0 l 497 974 l 758 974 l 1006 0 l 733 0 m 382 367 l 654 367 l 578 719 l 382 367 m 540 1263 q 604 1238 581 1263 q 628 1174 628 1214 q 590 1085 628 1122 q 499 1047 551 1047 q 435 1072 460 1047 q 411 1136 411 1097 q 449 1226 411 1189 q 540 1263 488 1263 m 807 1263 q 869 1238 846 1263 q 893 1174 893 1214 q 856 1085 893 1122 q 765 1047 818 1047 q 701 1072 725 1047 q 678 1136 678 1097 q 716 1226 678 1189 q 807 1263 754 1263 z "},"Ạ":{"ha":1074,"x_min":-82,"x_max":1006,"o":"m 733 0 l 696 172 l 274 172 l 178 0 l -82 0 l 497 974 l 758 974 l 1006 0 l 733 0 m 382 367 l 654 367 l 578 719 l 382 367 m 443 -94 q 522 -124 493 -94 q 551 -203 551 -154 q 505 -313 551 -268 q 392 -358 458 -358 q 314 -328 343 -358 q 285 -250 285 -299 q 331 -140 285 -185 q 443 -94 378 -94 z "},"À":{"ha":1074,"x_min":-82,"x_max":1006,"o":"m 733 0 l 696 172 l 274 172 l 178 0 l -82 0 l 497 974 l 758 974 l 1006 0 l 733 0 m 382 367 l 654 367 l 578 719 l 382 367 m 626 1281 l 774 1057 l 604 1043 l 422 1203 l 626 1281 z "},"Ả":{"ha":1074,"x_min":-82,"x_max":1006,"o":"m 733 0 l 696 172 l 274 172 l 178 0 l -82 0 l 497 974 l 758 974 l 1006 0 l 733 0 m 382 367 l 654 367 l 578 719 l 382 367 m 700 1354 q 798 1325 763 1354 q 833 1246 833 1296 q 672 1029 833 1143 l 571 1075 q 632 1135 610 1104 q 654 1189 654 1167 q 645 1211 654 1203 q 622 1219 636 1219 q 567 1200 594 1219 l 522 1301 q 700 1354 613 1354 z "},"Ȃ":{"ha":1074,"x_min":-82,"x_max":1006,"o":"m 733 0 l 696 172 l 274 172 l 178 0 l -82 0 l 497 974 l 758 974 l 1006 0 l 733 0 m 382 367 l 654 367 l 578 719 l 382 367 m 708 1050 q 696 1107 713 1085 q 647 1129 679 1129 q 590 1108 615 1129 q 556 1050 565 1086 l 401 1050 q 500 1213 425 1151 q 675 1274 575 1274 q 813 1225 763 1274 q 864 1093 864 1176 q 861 1050 864 1065 l 708 1050 z "},"Ā":{"ha":1074,"x_min":-82,"x_max":1006,"o":"m 733 0 l 696 172 l 274 172 l 178 0 l -82 0 l 497 974 l 758 974 l 1006 0 l 733 0 m 382 367 l 654 367 l 578 719 l 382 367 m 431 1200 l 892 1200 l 863 1054 l 401 1054 l 431 1200 z "},"Ą":{"ha":1074,"x_min":-82,"x_max":1006,"o":"m 939 0 q 838 -77 871 -43 q 806 -144 806 -111 q 831 -172 806 -172 q 872 -161 850 -172 l 886 -293 q 744 -324 808 -324 q 649 -292 682 -324 q 615 -206 615 -260 q 733 0 615 -99 l 696 172 l 274 172 l 178 0 l -82 0 l 497 974 l 758 974 l 1006 0 l 939 0 m 382 367 l 654 367 l 578 719 l 382 367 z "},"Å":{"ha":1074,"x_min":-82,"x_max":1006,"o":"m 733 0 l 696 172 l 274 172 l 178 0 l -82 0 l 497 974 l 758 974 l 1006 0 l 733 0 m 382 367 l 654 367 l 578 719 l 382 367 m 676 1354 q 781 1313 740 1354 q 822 1208 822 1271 q 797 1118 822 1160 q 728 1051 771 1076 q 638 1026 686 1026 q 533 1067 575 1026 q 492 1169 492 1108 q 517 1261 492 1218 q 586 1329 543 1304 q 676 1354 629 1354 m 664 1250 q 616 1229 636 1250 q 596 1181 596 1208 q 611 1144 596 1158 q 650 1129 626 1129 q 697 1150 676 1129 q 718 1197 718 1171 q 703 1235 718 1219 q 664 1250 688 1250 z "},"Ǻ":{"ha":1074,"x_min":-82,"x_max":1006,"o":"m 733 0 l 696 172 l 274 172 l 178 0 l -82 0 l 497 974 l 758 974 l 1006 0 l 733 0 m 382 367 l 654 367 l 578 719 l 382 367 m 671 1354 q 776 1313 735 1354 q 817 1208 817 1271 q 791 1118 817 1160 q 723 1051 765 1076 q 632 1026 681 1026 q 528 1067 569 1026 q 486 1169 486 1108 q 512 1261 486 1218 q 581 1329 538 1304 q 671 1354 624 1354 m 658 1250 q 610 1229 631 1250 q 590 1181 590 1208 q 606 1144 590 1158 q 644 1129 621 1129 q 692 1150 671 1129 q 713 1197 713 1171 q 697 1235 713 1219 q 658 1250 682 1250 m 754 1604 l 922 1503 l 701 1385 l 556 1424 l 754 1604 z "},"Ã":{"ha":1074,"x_min":-82,"x_max":1006,"o":"m 733 0 l 696 172 l 274 172 l 178 0 l -82 0 l 497 974 l 758 974 l 1006 0 l 733 0 m 382 367 l 654 367 l 578 719 l 382 367 m 929 1267 q 865 1102 907 1157 q 751 1047 824 1047 q 693 1058 719 1047 q 635 1088 667 1068 q 612 1100 631 1090 q 579 1110 593 1110 q 529 1051 540 1110 l 389 1051 q 454 1216 411 1160 q 568 1272 497 1272 q 626 1262 600 1272 q 685 1232 653 1251 q 740 1210 724 1210 q 790 1267 779 1210 l 929 1267 z "},"Æ":{"ha":1539,"x_min":-82,"x_max":1582,"o":"m 1543 771 l 1029 771 l 992 589 l 1456 589 l 1417 388 l 951 388 l 914 203 l 1442 203 l 1401 0 l 619 0 l 660 200 l 331 200 l 185 0 l -82 0 l 663 974 l 1582 974 l 1543 771 m 467 386 l 697 386 l 774 775 l 750 775 l 467 386 z "},"Ǽ":{"ha":1539,"x_min":-82,"x_max":1582,"o":"m 1543 771 l 1029 771 l 992 589 l 1456 589 l 1417 388 l 951 388 l 914 203 l 1442 203 l 1401 0 l 619 0 l 660 200 l 331 200 l 185 0 l -82 0 l 663 974 l 1582 974 l 1543 771 m 467 386 l 697 386 l 774 775 l 750 775 l 467 386 m 1075 1281 l 1279 1203 l 1078 1043 l 908 1057 l 1075 1281 z "},"B":{"ha":997,"x_min":19,"x_max":993,"o":"m 779 517 q 894 447 853 501 q 935 317 935 393 q 880 149 935 221 q 726 39 825 78 q 500 0 628 0 l 19 0 l 214 974 l 676 974 q 909 917 825 974 q 993 764 993 860 q 933 609 993 678 q 779 517 874 540 m 585 586 q 682 617 644 586 q 719 700 719 649 q 694 756 719 736 q 624 775 669 775 l 428 775 l 390 586 l 585 586 m 507 197 q 628 231 582 197 q 674 318 674 264 q 640 379 674 357 q 549 401 607 401 l 353 401 l 313 197 l 507 197 z "},"C":{"ha":997,"x_min":58,"x_max":1008,"o":"m 632 989 q 842 944 740 989 q 1008 821 943 899 l 842 643 q 739 738 800 703 q 614 774 678 774 q 467 733 535 774 q 359 621 399 692 q 319 465 319 550 q 350 335 319 393 q 435 243 381 276 q 557 210 489 210 q 685 240 617 210 q 811 324 754 271 l 943 164 q 742 31 856 81 q 521 -18 628 -18 q 281 42 386 -18 q 117 206 175 101 q 58 443 58 311 q 135 721 58 596 q 343 917 211 846 q 632 989 475 989 z "},"Ć":{"ha":997,"x_min":58,"x_max":1008,"o":"m 632 989 q 842 944 740 989 q 1008 821 943 899 l 842 643 q 739 738 800 703 q 614 774 678 774 q 467 733 535 774 q 359 621 399 692 q 319 465 319 550 q 350 335 319 393 q 435 243 381 276 q 557 210 489 210 q 685 240 617 210 q 811 324 754 271 l 943 164 q 742 31 856 81 q 521 -18 628 -18 q 281 42 386 -18 q 117 206 175 101 q 58 443 58 311 q 135 721 58 596 q 343 917 211 846 q 632 989 475 989 m 671 1281 l 875 1203 l 674 1043 l 504 1057 l 671 1281 z "},"Č":{"ha":997,"x_min":58,"x_max":1008,"o":"m 632 989 q 842 944 740 989 q 1008 821 943 899 l 842 643 q 739 738 800 703 q 614 774 678 774 q 467 733 535 774 q 359 621 399 692 q 319 465 319 550 q 350 335 319 393 q 435 243 381 276 q 557 210 489 210 q 685 240 617 210 q 811 324 754 271 l 943 164 q 742 31 856 81 q 521 -18 628 -18 q 281 42 386 -18 q 117 206 175 101 q 58 443 58 311 q 135 721 58 596 q 343 917 211 846 q 632 989 475 989 m 751 1263 l 929 1263 l 736 1050 l 518 1050 l 407 1263 l 585 1263 l 650 1169 l 751 1263 z "},"Ç":{"ha":997,"x_min":58,"x_max":1008,"o":"m 943 164 q 765 42 865 90 q 565 -15 665 -6 l 533 -72 q 605 -111 582 -85 q 628 -172 628 -137 q 567 -286 628 -247 q 421 -325 507 -325 q 271 -296 343 -325 l 332 -179 q 401 -193 367 -193 q 448 -183 429 -193 q 467 -158 467 -174 q 447 -135 467 -144 q 396 -126 426 -126 l 363 -126 l 424 -10 q 231 74 314 11 q 103 233 149 138 q 58 443 58 328 q 135 721 58 596 q 343 917 211 846 q 632 989 475 989 q 842 944 740 989 q 1008 821 943 899 l 842 643 q 739 738 800 703 q 614 774 678 774 q 467 733 535 774 q 359 621 399 692 q 319 465 319 550 q 350 335 319 393 q 435 243 381 276 q 557 210 489 210 q 685 240 617 210 q 811 324 754 271 l 943 164 z "},"Ḉ":{"ha":997,"x_min":58,"x_max":1008,"o":"m 924 1203 l 722 1043 l 553 1057 l 719 1281 l 924 1203 m 943 164 q 765 42 865 90 q 565 -15 665 -6 l 533 -72 q 605 -111 582 -85 q 628 -172 628 -137 q 567 -286 628 -247 q 421 -325 507 -325 q 271 -296 343 -325 l 332 -179 q 401 -193 367 -193 q 448 -183 429 -193 q 467 -158 467 -174 q 447 -135 467 -144 q 396 -126 426 -126 l 363 -126 l 424 -10 q 231 74 314 11 q 103 233 149 138 q 58 443 58 328 q 135 721 58 596 q 343 917 211 846 q 632 989 475 989 q 842 944 740 989 q 1008 821 943 899 l 842 643 q 739 738 800 703 q 614 774 678 774 q 467 733 535 774 q 359 621 399 692 q 319 465 319 550 q 350 335 319 393 q 435 243 381 276 q 557 210 489 210 q 685 240 617 210 q 811 324 754 271 l 943 164 z "},"Ĉ":{"ha":997,"x_min":58,"x_max":1008,"o":"m 632 989 q 842 944 740 989 q 1008 821 943 899 l 842 643 q 739 738 800 703 q 614 774 678 774 q 467 733 535 774 q 359 621 399 692 q 319 465 319 550 q 350 335 319 393 q 435 243 381 276 q 557 210 489 210 q 685 240 617 210 q 811 324 754 271 l 943 164 q 742 31 856 81 q 521 -18 628 -18 q 281 42 386 -18 q 117 206 175 101 q 58 443 58 311 q 135 721 58 596 q 343 917 211 846 q 632 989 475 989 m 888 1051 l 710 1051 l 644 1144 l 543 1051 l 365 1051 l 558 1264 l 776 1264 l 888 1051 z "},"Ċ":{"ha":997,"x_min":58,"x_max":1008,"o":"m 632 989 q 842 944 740 989 q 1008 821 943 899 l 842 643 q 739 738 800 703 q 614 774 678 774 q 467 733 535 774 q 359 621 399 692 q 319 465 319 550 q 350 335 319 393 q 435 243 381 276 q 557 210 489 210 q 685 240 617 210 q 811 324 754 271 l 943 164 q 742 31 856 81 q 521 -18 628 -18 q 281 42 386 -18 q 117 206 175 101 q 58 443 58 311 q 135 721 58 596 q 343 917 211 846 q 632 989 475 989 m 678 1313 q 757 1283 728 1313 q 786 1204 786 1253 q 740 1094 786 1139 q 626 1049 693 1049 q 549 1078 578 1049 q 519 1157 519 1108 q 566 1267 519 1222 q 678 1313 613 1313 z "},"D":{"ha":1067,"x_min":21,"x_max":1061,"o":"m 611 974 q 849 922 747 974 q 1006 778 951 871 q 1061 563 1061 685 q 982 272 1061 400 q 764 72 903 143 q 454 0 625 0 l 21 0 l 214 974 l 611 974 m 799 535 q 738 703 799 639 q 575 767 676 767 l 428 767 l 315 206 l 500 206 q 651 248 582 206 q 759 365 719 290 q 799 535 799 440 z "},"Ǆ":{"ha":2022,"x_min":21,"x_max":2060,"o":"m 611 974 q 849 922 747 974 q 1006 778 951 871 q 1061 563 1061 685 q 982 272 1061 400 q 764 72 903 143 q 454 0 625 0 l 21 0 l 214 974 l 611 974 m 799 535 q 738 703 799 639 q 575 767 676 767 l 428 767 l 315 206 l 500 206 q 651 248 582 206 q 759 365 719 290 q 799 535 799 440 m 2060 974 l 2033 808 l 1421 204 l 1942 204 l 1908 0 l 1046 0 l 1072 165 l 1686 768 l 1192 768 l 1224 974 l 2060 974 m 1789 1263 l 1967 1263 l 1774 1050 l 1556 1050 l 1444 1263 l 1622 1263 l 1688 1169 l 1789 1263 z "},"Ð":{"ha":1067,"x_min":8,"x_max":1061,"o":"m 611 974 q 849 922 747 974 q 1006 778 951 871 q 1061 563 1061 685 q 982 272 1061 400 q 764 72 903 143 q 454 0 625 0 l 21 0 l 106 428 l 8 428 l 31 546 l 129 546 l 214 974 l 611 974 m 799 535 q 738 703 799 639 q 575 767 676 767 l 428 767 l 383 546 l 581 546 l 558 428 l 360 428 l 315 206 l 500 206 q 651 248 582 206 q 759 365 719 290 q 799 535 799 440 z "},"Ď":{"ha":1067,"x_min":21,"x_max":1061,"o":"m 611 974 q 849 922 747 974 q 1006 778 951 871 q 1061 563 1061 685 q 982 272 1061 400 q 764 72 903 143 q 454 0 625 0 l 21 0 l 214 974 l 611 974 m 799 535 q 738 703 799 639 q 575 767 676 767 l 428 767 l 315 206 l 500 206 q 651 248 582 206 q 759 365 719 290 q 799 535 799 440 m 736 1263 l 914 1263 l 721 1050 l 503 1050 l 392 1263 l 569 1263 l 635 1169 l 736 1263 z "},"Đ":{"ha":1067,"x_min":8,"x_max":1061,"o":"m 611 974 q 849 922 747 974 q 1006 778 951 871 q 1061 563 1061 685 q 982 272 1061 400 q 764 72 903 143 q 454 0 625 0 l 21 0 l 106 428 l 8 428 l 31 546 l 129 546 l 214 974 l 611 974 m 799 535 q 738 703 799 639 q 575 767 676 767 l 428 767 l 383 546 l 581 546 l 558 428 l 360 428 l 315 206 l 500 206 q 651 248 582 206 q 759 365 719 290 q 799 535 799 440 z "},"Ḍ":{"ha":1067,"x_min":21,"x_max":1061,"o":"m 611 974 q 849 922 747 974 q 1006 778 951 871 q 1061 563 1061 685 q 982 272 1061 400 q 764 72 903 143 q 454 0 625 0 l 21 0 l 214 974 l 611 974 m 799 535 q 738 703 799 639 q 575 767 676 767 l 428 767 l 315 206 l 500 206 q 651 248 582 206 q 759 365 719 290 q 799 535 799 440 m 406 -94 q 485 -124 456 -94 q 514 -203 514 -154 q 467 -313 514 -268 q 354 -358 421 -358 q 276 -328 306 -358 q 247 -250 247 -299 q 294 -140 247 -185 q 406 -94 340 -94 z "},"Ḏ":{"ha":1067,"x_min":21,"x_max":1061,"o":"m 611 974 q 849 922 747 974 q 1006 778 951 871 q 1061 563 1061 685 q 982 272 1061 400 q 764 72 903 143 q 454 0 625 0 l 21 0 l 214 974 l 611 974 m 799 535 q 738 703 799 639 q 575 767 676 767 l 428 767 l 315 206 l 500 206 q 651 248 582 206 q 759 365 719 290 q 799 535 799 440 m 208 -107 l 599 -107 l 571 -253 l 181 -253 l 208 -107 z "},"ǅ":{"ha":1839,"x_min":21,"x_max":1863,"o":"m 611 974 q 849 922 747 974 q 1006 778 951 871 q 1061 563 1061 685 q 982 272 1061 400 q 764 72 903 143 q 454 0 625 0 l 21 0 l 214 974 l 611 974 m 799 535 q 738 703 799 639 q 575 767 676 767 l 428 767 l 315 206 l 500 206 q 651 248 582 206 q 759 365 719 290 q 799 535 799 440 m 1863 750 l 1835 600 l 1390 189 l 1764 189 l 1725 0 l 1042 0 l 1068 150 l 1514 561 l 1168 563 l 1204 751 l 1863 750 m 1671 1060 l 1849 1060 l 1656 847 l 1438 847 l 1326 1060 l 1504 1060 l 1569 967 l 1671 1060 z "},"E":{"ha":938,"x_min":19,"x_max":982,"o":"m 942 771 l 428 771 l 390 589 l 856 589 l 815 388 l 350 388 l 313 203 l 842 203 l 801 0 l 19 0 l 214 974 l 982 974 l 942 771 z "},"É":{"ha":938,"x_min":19,"x_max":982,"o":"m 942 771 l 428 771 l 390 589 l 856 589 l 815 388 l 350 388 l 313 203 l 842 203 l 801 0 l 19 0 l 214 974 l 982 974 l 942 771 m 667 1281 l 871 1203 l 669 1043 l 500 1057 l 667 1281 z "},"Ĕ":{"ha":938,"x_min":19,"x_max":982,"o":"m 942 771 l 428 771 l 390 589 l 856 589 l 815 388 l 350 388 l 313 203 l 842 203 l 801 0 l 19 0 l 214 974 l 982 974 l 942 771 m 588 1268 q 600 1211 583 1233 q 649 1189 617 1189 q 706 1210 681 1189 q 740 1268 731 1232 l 894 1268 q 796 1106 871 1167 q 621 1044 721 1044 q 483 1093 533 1044 q 432 1225 432 1142 q 435 1268 432 1253 l 588 1268 z "},"Ě":{"ha":938,"x_min":19,"x_max":982,"o":"m 942 771 l 428 771 l 390 589 l 856 589 l 815 388 l 350 388 l 313 203 l 842 203 l 801 0 l 19 0 l 214 974 l 982 974 l 942 771 m 747 1263 l 925 1263 l 732 1050 l 514 1050 l 403 1263 l 581 1263 l 646 1169 l 747 1263 z "},"Ḝ":{"ha":938,"x_min":19,"x_max":982,"o":"m 608 1044 q 470 1093 521 1044 q 419 1225 419 1142 q 422 1268 419 1253 l 575 1268 q 588 1211 571 1233 q 636 1189 604 1189 q 693 1210 668 1189 q 728 1268 718 1232 l 882 1268 q 783 1106 858 1167 q 608 1044 708 1044 m 428 771 l 390 589 l 856 589 l 815 388 l 350 388 l 313 203 l 842 203 l 801 0 l 510 0 l 468 -72 q 540 -111 517 -85 q 563 -172 563 -137 q 502 -286 563 -247 q 356 -325 442 -325 q 206 -296 278 -325 l 267 -179 q 336 -193 301 -193 q 383 -183 364 -193 q 401 -158 401 -174 q 381 -135 401 -144 q 331 -126 361 -126 l 297 -126 l 363 0 l 19 0 l 214 974 l 982 974 l 942 771 l 428 771 z "},"Ê":{"ha":938,"x_min":19,"x_max":982,"o":"m 942 771 l 428 771 l 390 589 l 856 589 l 815 388 l 350 388 l 313 203 l 842 203 l 801 0 l 19 0 l 214 974 l 982 974 l 942 771 m 883 1051 l 706 1051 l 640 1144 l 539 1051 l 361 1051 l 554 1264 l 772 1264 l 883 1051 z "},"Ế":{"ha":938,"x_min":19,"x_max":982,"o":"m 942 771 l 428 771 l 390 589 l 856 589 l 815 388 l 350 388 l 313 203 l 842 203 l 801 0 l 19 0 l 214 974 l 982 974 l 942 771 m 914 1044 l 714 1044 l 640 1131 l 538 1044 l 336 1044 l 529 1215 l 779 1215 l 914 1044 m 729 1479 l 897 1378 l 676 1260 l 531 1299 l 729 1479 z "},"Ệ":{"ha":938,"x_min":19,"x_max":982,"o":"m 942 771 l 428 771 l 390 589 l 856 589 l 815 388 l 350 388 l 313 203 l 842 203 l 801 0 l 19 0 l 214 974 l 982 974 l 942 771 m 415 -94 q 494 -124 465 -94 q 524 -203 524 -154 q 477 -313 524 -268 q 364 -358 431 -358 q 286 -328 315 -358 q 257 -250 257 -299 q 303 -140 257 -185 q 415 -94 350 -94 m 860 1051 l 682 1051 l 617 1144 l 515 1051 l 338 1051 l 531 1264 l 749 1264 l 860 1051 z "},"Ề":{"ha":938,"x_min":19,"x_max":982,"o":"m 942 771 l 428 771 l 390 589 l 856 589 l 815 388 l 350 388 l 313 203 l 842 203 l 801 0 l 19 0 l 214 974 l 982 974 l 942 771 m 914 1044 l 714 1044 l 640 1131 l 538 1044 l 336 1044 l 529 1215 l 779 1215 l 914 1044 m 596 1479 l 793 1299 l 647 1260 l 428 1378 l 596 1479 z "},"Ể":{"ha":938,"x_min":19,"x_max":982,"o":"m 942 771 l 428 771 l 390 589 l 856 589 l 815 388 l 350 388 l 313 203 l 842 203 l 801 0 l 19 0 l 214 974 l 982 974 l 942 771 m 913 1044 l 713 1044 l 639 1131 l 536 1044 l 335 1044 l 528 1215 l 778 1215 l 913 1044 m 706 1500 q 791 1476 763 1500 q 819 1415 819 1453 q 788 1335 819 1374 q 688 1257 756 1297 l 596 1296 q 660 1363 660 1335 q 633 1382 660 1382 q 588 1368 608 1382 l 546 1454 q 706 1500 631 1500 z "},"Ễ":{"ha":938,"x_min":19,"x_max":982,"o":"m 942 771 l 428 771 l 390 589 l 856 589 l 815 388 l 350 388 l 313 203 l 842 203 l 801 0 l 19 0 l 214 974 l 982 974 l 942 771 m 936 1044 l 736 1044 l 663 1131 l 560 1044 l 358 1044 l 551 1215 l 801 1215 l 936 1044 m 967 1450 q 908 1310 949 1357 q 797 1264 868 1264 q 734 1274 763 1264 q 669 1300 706 1283 q 606 1322 625 1322 q 570 1308 582 1322 q 553 1267 558 1294 l 436 1267 q 494 1406 454 1358 q 604 1454 533 1454 q 667 1445 639 1454 q 736 1418 696 1436 q 769 1403 753 1410 q 796 1397 785 1397 q 831 1410 819 1397 q 849 1450 843 1424 l 967 1450 z "},"Ȅ":{"ha":938,"x_min":19,"x_max":982,"o":"m 942 771 l 428 771 l 390 589 l 856 589 l 815 388 l 350 388 l 313 203 l 842 203 l 801 0 l 19 0 l 214 974 l 982 974 l 942 771 m 528 1282 l 596 1053 l 419 1040 l 328 1213 l 528 1282 m 801 1282 l 869 1053 l 693 1040 l 601 1213 l 801 1282 z "},"Ë":{"ha":938,"x_min":19,"x_max":982,"o":"m 942 771 l 428 771 l 390 589 l 856 589 l 815 388 l 350 388 l 313 203 l 842 203 l 801 0 l 19 0 l 214 974 l 982 974 l 942 771 m 532 1263 q 596 1238 572 1263 q 619 1174 619 1214 q 581 1085 619 1122 q 490 1047 543 1047 q 427 1072 451 1047 q 403 1136 403 1097 q 441 1226 403 1189 q 532 1263 479 1263 m 799 1263 q 861 1238 838 1263 q 885 1174 885 1214 q 847 1085 885 1122 q 757 1047 810 1047 q 693 1072 717 1047 q 669 1136 669 1097 q 708 1226 669 1189 q 799 1263 746 1263 z "},"Ė":{"ha":938,"x_min":19,"x_max":982,"o":"m 942 771 l 428 771 l 390 589 l 856 589 l 815 388 l 350 388 l 313 203 l 842 203 l 801 0 l 19 0 l 214 974 l 982 974 l 942 771 m 674 1313 q 753 1283 724 1313 q 782 1204 782 1253 q 735 1094 782 1139 q 622 1049 689 1049 q 544 1078 574 1049 q 515 1157 515 1108 q 562 1267 515 1222 q 674 1313 608 1313 z "},"Ẹ":{"ha":938,"x_min":19,"x_max":982,"o":"m 942 771 l 428 771 l 390 589 l 856 589 l 815 388 l 350 388 l 313 203 l 842 203 l 801 0 l 19 0 l 214 974 l 982 974 l 942 771 m 415 -94 q 494 -124 465 -94 q 524 -203 524 -154 q 477 -313 524 -268 q 364 -358 431 -358 q 286 -328 315 -358 q 257 -250 257 -299 q 303 -140 257 -185 q 415 -94 350 -94 z "},"È":{"ha":938,"x_min":19,"x_max":982,"o":"m 942 771 l 428 771 l 390 589 l 856 589 l 815 388 l 350 388 l 313 203 l 842 203 l 801 0 l 19 0 l 214 974 l 982 974 l 942 771 m 618 1281 l 765 1057 l 596 1043 l 414 1203 l 618 1281 z "},"Ẻ":{"ha":938,"x_min":19,"x_max":982,"o":"m 942 771 l 428 771 l 390 589 l 856 589 l 815 388 l 350 388 l 313 203 l 842 203 l 801 0 l 19 0 l 214 974 l 982 974 l 942 771 m 692 1354 q 790 1325 754 1354 q 825 1246 825 1296 q 664 1029 825 1143 l 563 1075 q 624 1135 601 1104 q 646 1189 646 1167 q 637 1211 646 1203 q 614 1219 628 1219 q 558 1200 586 1219 l 514 1301 q 692 1354 604 1354 z "},"Ȇ":{"ha":938,"x_min":19,"x_max":982,"o":"m 942 771 l 428 771 l 390 589 l 856 589 l 815 388 l 350 388 l 313 203 l 842 203 l 801 0 l 19 0 l 214 974 l 982 974 l 942 771 m 700 1050 q 688 1107 704 1085 q 639 1129 671 1129 q 582 1108 607 1129 q 547 1050 557 1086 l 393 1050 q 492 1213 417 1151 q 667 1274 567 1274 q 805 1225 754 1274 q 856 1093 856 1176 q 853 1050 856 1065 l 700 1050 z "},"Ē":{"ha":938,"x_min":19,"x_max":982,"o":"m 942 771 l 428 771 l 390 589 l 856 589 l 815 388 l 350 388 l 313 203 l 842 203 l 801 0 l 19 0 l 214 974 l 982 974 l 942 771 m 422 1200 l 883 1200 l 854 1054 l 393 1054 l 422 1200 z "},"Ḗ":{"ha":938,"x_min":19,"x_max":982,"o":"m 942 771 l 428 771 l 390 589 l 856 589 l 815 388 l 350 388 l 313 203 l 842 203 l 801 0 l 19 0 l 214 974 l 982 974 l 942 771 z "},"Ḕ":{"ha":938,"x_min":19,"x_max":982,"o":"m 942 771 l 428 771 l 390 589 l 856 589 l 815 388 l 350 388 l 313 203 l 842 203 l 801 0 l 19 0 l 214 974 l 982 974 l 942 771 z "},"Ę":{"ha":938,"x_min":19,"x_max":982,"o":"m 428 771 l 390 589 l 856 589 l 815 388 l 350 388 l 313 203 l 842 203 l 801 0 q 701 -77 733 -43 q 668 -144 668 -111 q 693 -172 668 -172 q 735 -161 713 -172 l 749 -293 q 607 -324 671 -324 q 511 -292 544 -324 q 478 -206 478 -260 q 596 0 478 -100 l 19 0 l 214 974 l 982 974 l 942 771 l 428 771 z "},"Ẽ":{"ha":938,"x_min":19,"x_max":982,"o":"m 942 771 l 428 771 l 390 589 l 856 589 l 815 388 l 350 388 l 313 203 l 842 203 l 801 0 l 19 0 l 214 974 l 982 974 l 942 771 m 921 1267 q 857 1102 899 1157 q 743 1047 815 1047 q 685 1058 711 1047 q 626 1088 658 1068 q 603 1100 622 1090 q 571 1110 585 1110 q 521 1051 532 1110 l 381 1051 q 446 1216 403 1160 q 560 1272 489 1272 q 618 1262 592 1272 q 676 1232 644 1251 q 732 1210 715 1210 q 782 1267 771 1210 l 921 1267 z "},"F":{"ha":843,"x_min":19,"x_max":940,"o":"m 900 771 l 428 771 l 385 554 l 821 554 l 781 351 l 344 351 l 274 0 l 19 0 l 214 974 l 940 974 l 900 771 z "},"G":{"ha":1044,"x_min":58,"x_max":1033,"o":"m 788 497 l 1007 497 l 931 110 q 738 17 844 51 q 531 -18 631 -18 q 285 42 393 -18 q 118 206 178 101 q 58 443 58 311 q 138 719 58 594 q 351 917 217 844 q 649 989 486 989 q 860 949 757 989 q 1033 843 964 910 l 872 665 q 759 744 825 715 q 625 774 693 774 q 473 732 543 774 q 361 619 403 690 q 319 461 319 547 q 351 327 319 388 q 440 233 383 267 q 569 199 497 199 q 738 243 642 199 l 788 497 z "},"Ğ":{"ha":1044,"x_min":58,"x_max":1033,"o":"m 788 497 l 1007 497 l 931 110 q 738 17 844 51 q 531 -18 631 -18 q 285 42 393 -18 q 118 206 178 101 q 58 443 58 311 q 138 719 58 594 q 351 917 217 844 q 649 989 486 989 q 860 949 757 989 q 1033 843 964 910 l 872 665 q 759 744 825 715 q 625 774 693 774 q 473 732 543 774 q 361 619 403 690 q 319 461 319 547 q 351 327 319 388 q 440 233 383 267 q 569 199 497 199 q 738 243 642 199 l 788 497 m 608 1268 q 621 1211 604 1233 q 669 1189 638 1189 q 726 1210 701 1189 q 761 1268 751 1232 l 915 1268 q 817 1106 892 1167 q 642 1044 742 1044 q 503 1093 554 1044 q 453 1225 453 1142 q 456 1268 453 1253 l 608 1268 z "},"Ǧ":{"ha":1044,"x_min":58,"x_max":1033,"o":"m 788 497 l 1007 497 l 931 110 q 738 17 844 51 q 531 -18 631 -18 q 285 42 393 -18 q 118 206 178 101 q 58 443 58 311 q 138 719 58 594 q 351 917 217 844 q 649 989 486 989 q 860 949 757 989 q 1033 843 964 910 l 872 665 q 759 744 825 715 q 625 774 693 774 q 473 732 543 774 q 361 619 403 690 q 319 461 319 547 q 351 327 319 388 q 440 233 383 267 q 569 199 497 199 q 738 243 642 199 l 788 497 m 768 1263 l 946 1263 l 753 1050 l 535 1050 l 424 1263 l 601 1263 l 667 1169 l 768 1263 z "},"Ĝ":{"ha":1044,"x_min":58,"x_max":1033,"o":"m 788 497 l 1007 497 l 931 110 q 738 17 844 51 q 531 -18 631 -18 q 285 42 393 -18 q 118 206 178 101 q 58 443 58 311 q 138 719 58 594 q 351 917 217 844 q 649 989 486 989 q 860 949 757 989 q 1033 843 964 910 l 872 665 q 759 744 825 715 q 625 774 693 774 q 473 732 543 774 q 361 619 403 690 q 319 461 319 547 q 351 327 319 388 q 440 233 383 267 q 569 199 497 199 q 738 243 642 199 l 788 497 m 904 1051 l 726 1051 l 661 1144 l 560 1051 l 382 1051 l 575 1264 l 793 1264 l 904 1051 z "},"Ģ":{"ha":1044,"x_min":58,"x_max":1033,"o":"m 788 497 l 1007 497 l 931 110 q 738 17 844 51 q 531 -18 631 -18 q 285 42 393 -18 q 118 206 178 101 q 58 443 58 311 q 138 719 58 594 q 351 917 217 844 q 649 989 486 989 q 860 949 757 989 q 1033 843 964 910 l 872 665 q 759 744 825 715 q 625 774 693 774 q 473 732 543 774 q 361 619 403 690 q 319 461 319 547 q 351 327 319 388 q 440 233 383 267 q 569 199 497 199 q 738 243 642 199 l 788 497 m 433 -83 l 636 -83 l 492 -325 l 347 -325 l 433 -83 z "},"Ġ":{"ha":1044,"x_min":58,"x_max":1033,"o":"m 788 497 l 1007 497 l 931 110 q 738 17 844 51 q 531 -18 631 -18 q 285 42 393 -18 q 118 206 178 101 q 58 443 58 311 q 138 719 58 594 q 351 917 217 844 q 649 989 486 989 q 860 949 757 989 q 1033 843 964 910 l 872 665 q 759 744 825 715 q 625 774 693 774 q 473 732 543 774 q 361 619 403 690 q 319 461 319 547 q 351 327 319 388 q 440 233 383 267 q 569 199 497 199 q 738 243 642 199 l 788 497 m 694 1313 q 774 1283 744 1313 q 803 1204 803 1253 q 756 1094 803 1139 q 643 1049 710 1049 q 565 1078 594 1049 q 536 1157 536 1108 q 583 1267 536 1222 q 694 1313 629 1313 z "},"Ḡ":{"ha":1044,"x_min":58,"x_max":1033,"o":"m 788 497 l 1007 497 l 931 110 q 738 17 844 51 q 531 -18 631 -18 q 285 42 393 -18 q 118 206 178 101 q 58 443 58 311 q 138 719 58 594 q 351 917 217 844 q 649 989 486 989 q 860 949 757 989 q 1033 843 964 910 l 872 665 q 759 744 825 715 q 625 774 693 774 q 473 732 543 774 q 361 619 403 690 q 319 461 319 547 q 351 327 319 388 q 440 233 383 267 q 569 199 497 199 q 738 243 642 199 l 788 497 m 443 1200 l 904 1200 l 875 1054 l 414 1054 l 443 1200 z "},"H":{"ha":1189,"x_min":68,"x_max":1164,"o":"m 910 974 l 1164 974 l 969 0 l 715 0 l 790 374 l 397 374 l 322 0 l 68 0 l 263 974 l 517 974 l 438 576 l 831 576 l 910 974 z "},"Ħ":{"ha":1206,"x_min":76,"x_max":1263,"o":"m 1263 836 l 1239 718 l 1122 718 l 979 0 l 724 0 l 799 374 l 406 374 l 331 0 l 76 0 l 219 718 l 103 718 l 126 838 l 243 838 l 271 974 l 525 974 l 497 838 l 890 836 l 918 974 l 1174 974 l 1146 836 l 1263 836 m 839 576 l 867 718 l 474 718 l 446 576 l 839 576 z "},"Ḫ":{"ha":1189,"x_min":68,"x_max":1164,"o":"m 910 974 l 1164 974 l 969 0 l 715 0 l 790 374 l 397 374 l 322 0 l 68 0 l 263 974 l 517 974 l 438 576 l 831 576 l 910 974 m 425 -82 q 438 -139 421 -117 q 486 -161 454 -161 q 543 -140 518 -161 q 578 -82 568 -118 l 732 -82 q 633 -244 708 -183 q 458 -306 558 -306 q 320 -257 371 -306 q 269 -125 269 -208 q 272 -82 269 -97 l 425 -82 z "},"Ĥ":{"ha":1189,"x_min":68,"x_max":1164,"o":"m 910 974 l 1164 974 l 969 0 l 715 0 l 790 374 l 397 374 l 322 0 l 68 0 l 263 974 l 517 974 l 438 576 l 831 576 l 910 974 m 989 1051 l 811 1051 l 746 1144 l 644 1051 l 467 1051 l 660 1264 l 878 1264 l 989 1051 z "},"Ḥ":{"ha":1189,"x_min":68,"x_max":1164,"o":"m 910 974 l 1164 974 l 969 0 l 715 0 l 790 374 l 397 374 l 322 0 l 68 0 l 263 974 l 517 974 l 438 576 l 831 576 l 910 974 m 501 -94 q 581 -124 551 -94 q 610 -203 610 -154 q 563 -313 610 -268 q 450 -358 517 -358 q 372 -328 401 -358 q 343 -250 343 -299 q 390 -140 343 -185 q 501 -94 436 -94 z "},"I":{"ha":443,"x_min":19,"x_max":468,"o":"m 468 974 l 274 0 l 19 0 l 214 974 l 468 974 z "},"Ĳ":{"ha":1193,"x_min":19,"x_max":1235,"o":"m 468 974 l 274 0 l 19 0 l 214 974 l 468 974 m 1235 974 l 1103 317 q 964 75 1072 161 q 699 -11 856 -11 q 390 146 494 -11 l 540 319 q 631 238 582 267 q 724 210 679 210 q 804 239 771 210 q 849 322 838 268 l 936 764 l 604 764 l 646 974 l 1235 974 z "},"Í":{"ha":443,"x_min":19,"x_max":600,"o":"m 468 974 l 274 0 l 19 0 l 214 974 l 468 974 m 396 1281 l 600 1203 l 399 1043 l 229 1057 l 396 1281 z "},"Ĭ":{"ha":443,"x_min":19,"x_max":624,"o":"m 468 974 l 274 0 l 19 0 l 214 974 l 468 974 m 317 1268 q 329 1211 313 1233 q 378 1189 346 1189 q 435 1210 410 1189 q 469 1268 460 1232 l 624 1268 q 525 1106 600 1167 q 350 1044 450 1044 q 212 1093 263 1044 q 161 1225 161 1142 q 164 1268 161 1253 l 317 1268 z "},"Î":{"ha":443,"x_min":19,"x_max":613,"o":"m 468 974 l 274 0 l 19 0 l 214 974 l 468 974 m 613 1051 l 435 1051 l 369 1144 l 268 1051 l 90 1051 l 283 1264 l 501 1264 l 613 1051 z "},"Ȉ":{"ha":443,"x_min":19,"x_max":599,"o":"m 468 974 l 274 0 l 19 0 l 214 974 l 468 974 m 257 1282 l 325 1053 l 149 1040 l 57 1213 l 257 1282 m 531 1282 l 599 1053 l 422 1040 l 331 1213 l 531 1282 z "},"Ï":{"ha":443,"x_min":19,"x_max":614,"o":"m 468 974 l 274 0 l 19 0 l 214 974 l 468 974 m 261 1263 q 325 1238 301 1263 q 349 1174 349 1214 q 310 1085 349 1122 q 219 1047 272 1047 q 156 1072 181 1047 q 132 1136 132 1097 q 170 1226 132 1189 q 261 1263 208 1263 m 528 1263 q 590 1238 567 1263 q 614 1174 614 1214 q 576 1085 614 1122 q 486 1047 539 1047 q 422 1072 446 1047 q 399 1136 399 1097 q 437 1226 399 1189 q 528 1263 475 1263 z "},"Ḯ":{"ha":443,"x_min":19,"x_max":629,"o":"m 468 974 l 274 0 l 19 0 l 214 974 l 468 974 z "},"İ":{"ha":443,"x_min":19,"x_max":511,"o":"m 468 974 l 274 0 l 19 0 l 214 974 l 468 974 m 403 1313 q 482 1283 453 1313 q 511 1204 511 1253 q 465 1094 511 1139 q 351 1049 418 1049 q 274 1078 303 1049 q 244 1157 244 1108 q 291 1267 244 1222 q 403 1313 338 1313 z "},"Ị":{"ha":443,"x_min":-31,"x_max":468,"o":"m 468 974 l 274 0 l 19 0 l 214 974 l 468 974 m 128 -94 q 207 -124 178 -94 q 236 -203 236 -154 q 190 -313 236 -268 q 76 -358 143 -358 q -1 -328 28 -358 q -31 -250 -31 -299 q 16 -140 -31 -185 q 128 -94 63 -94 z "},"Ì":{"ha":443,"x_min":19,"x_max":494,"o":"m 468 974 l 274 0 l 19 0 l 214 974 l 468 974 m 347 1281 l 494 1057 l 325 1043 l 143 1203 l 347 1281 z "},"Ỉ":{"ha":443,"x_min":19,"x_max":554,"o":"m 468 974 l 274 0 l 19 0 l 214 974 l 468 974 m 421 1354 q 519 1325 483 1354 q 554 1246 554 1296 q 393 1029 554 1143 l 292 1075 q 353 1135 331 1104 q 375 1189 375 1167 q 366 1211 375 1203 q 343 1219 357 1219 q 288 1200 315 1219 l 243 1301 q 421 1354 333 1354 z "},"Ȋ":{"ha":443,"x_min":19,"x_max":585,"o":"m 468 974 l 274 0 l 19 0 l 214 974 l 468 974 m 429 1050 q 417 1107 433 1085 q 368 1129 400 1129 q 311 1108 336 1129 q 276 1050 286 1086 l 122 1050 q 221 1213 146 1151 q 396 1274 296 1274 q 534 1225 483 1274 q 585 1093 585 1176 q 582 1050 585 1065 l 429 1050 z "},"Ī":{"ha":443,"x_min":19,"x_max":596,"o":"m 468 974 l 274 0 l 19 0 l 214 974 l 468 974 m 167 1200 l 596 1200 l 568 1054 l 139 1054 l 167 1200 z "},"Į":{"ha":443,"x_min":-101,"x_max":468,"o":"m 468 974 l 274 0 l 222 0 q 122 -77 154 -43 q 89 -144 89 -111 q 114 -172 89 -172 q 156 -161 133 -172 l 169 -293 q 28 -324 92 -324 q -68 -292 -35 -324 q -101 -206 -101 -260 q 19 3 -101 -99 l 214 974 l 468 974 z "},"Ĩ":{"ha":443,"x_min":19,"x_max":650,"o":"m 468 974 l 274 0 l 19 0 l 214 974 l 468 974 m 650 1267 q 586 1102 628 1157 q 472 1047 544 1047 q 414 1058 440 1047 q 356 1088 388 1068 q 333 1100 351 1090 q 300 1110 314 1110 q 250 1051 261 1110 l 110 1051 q 175 1216 132 1160 q 289 1272 218 1272 q 347 1262 321 1272 q 406 1232 374 1251 q 461 1210 444 1210 q 511 1267 500 1210 l 650 1267 z "},"J":{"ha":750,"x_min":-53,"x_max":792,"o":"m 792 974 l 660 317 q 521 75 629 161 q 256 -11 413 -11 q -53 146 51 -11 l 97 319 q 188 238 139 267 q 281 210 236 210 q 361 239 328 210 q 406 322 394 268 l 493 764 l 161 764 l 203 974 l 792 974 z "},"Ĵ":{"ha":750,"x_min":-53,"x_max":792,"o":"m 792 974 l 660 317 q 521 75 629 161 q 256 -11 413 -11 q -53 146 51 -11 l 97 319 q 188 238 139 267 q 281 210 236 210 q 361 239 328 210 q 406 322 394 268 l 493 764 l 161 764 l 203 974 l 792 974 m 768 1051 l 590 1051 l 525 1144 l 424 1051 l 246 1051 l 439 1264 l 657 1264 l 768 1051 z "},"K":{"ha":1038,"x_min":19,"x_max":1133,"o":"m 1133 974 l 690 561 l 953 0 l 656 0 l 482 368 l 317 214 l 274 0 l 19 0 l 214 974 l 468 974 l 385 556 l 826 974 l 1133 974 z "},"Ķ":{"ha":1038,"x_min":19,"x_max":1133,"o":"m 1133 974 l 690 561 l 953 0 l 656 0 l 482 368 l 317 214 l 274 0 l 19 0 l 214 974 l 468 974 l 385 556 l 826 974 l 1133 974 m 313 -83 l 515 -83 l 371 -325 l 226 -325 l 313 -83 z "},"L":{"ha":782,"x_min":19,"x_max":729,"o":"m 317 217 l 729 217 l 686 0 l 19 0 l 214 974 l 468 974 l 317 217 z "},"Ǉ":{"ha":1531,"x_min":19,"x_max":1574,"o":"m 317 217 l 729 217 l 686 0 l 19 0 l 214 974 l 468 974 l 317 217 m 1574 974 l 1442 317 q 1303 75 1411 161 q 1038 -11 1194 -11 q 729 146 833 -11 l 879 319 q 969 238 921 267 q 1063 210 1018 210 q 1143 239 1110 210 q 1188 322 1176 268 l 1275 764 l 943 764 l 985 974 l 1574 974 z "},"Ĺ":{"ha":782,"x_min":19,"x_max":729,"o":"m 317 217 l 729 217 l 686 0 l 19 0 l 214 974 l 468 974 l 317 217 m 394 1281 l 599 1203 l 397 1043 l 228 1057 l 394 1281 z "},"Ľ":{"ha":782,"x_min":19,"x_max":799,"o":"m 317 217 l 729 217 l 686 0 l 19 0 l 214 974 l 468 974 l 317 217 m 610 971 l 799 971 l 699 667 l 550 667 l 610 971 z "},"Ļ":{"ha":782,"x_min":19,"x_max":729,"o":"m 317 217 l 729 217 l 686 0 l 19 0 l 214 974 l 468 974 l 317 217 m 239 -83 l 442 -83 l 297 -325 l 153 -325 l 239 -83 z "},"Ŀ":{"ha":782,"x_min":19,"x_max":760,"o":"m 317 217 l 729 217 l 686 0 l 19 0 l 214 974 l 468 974 l 317 217 m 651 682 q 731 652 701 682 q 760 574 760 622 q 713 463 760 508 q 600 418 667 418 q 522 448 551 418 q 493 526 493 478 q 540 637 493 592 q 651 682 586 682 z "},"Ḷ":{"ha":782,"x_min":19,"x_max":729,"o":"m 317 217 l 729 217 l 686 0 l 19 0 l 214 974 l 468 974 l 317 217 m 339 -94 q 418 -124 389 -94 q 447 -203 447 -154 q 401 -313 447 -268 q 288 -358 354 -358 q 210 -328 239 -358 q 181 -250 181 -299 q 227 -140 181 -185 q 339 -94 274 -94 z "},"ǈ":{"ha":1215,"x_min":19,"x_max":1239,"o":"m 317 217 l 729 217 l 686 0 l 19 0 l 214 974 l 468 974 l 317 217 m 649 -78 q 693 -83 669 -83 q 764 -55 735 -83 q 803 19 793 -26 l 950 751 l 1197 751 l 1039 -37 q 938 -217 1017 -154 q 740 -279 858 -279 q 579 -247 653 -279 l 649 -78 m 1131 1097 q 1210 1067 1181 1097 q 1239 989 1239 1038 q 1192 878 1239 924 q 1079 833 1146 833 q 1001 863 1031 833 q 972 942 972 893 q 1019 1052 972 1007 q 1131 1097 1065 1097 z "},"Ḻ":{"ha":782,"x_min":19,"x_max":729,"o":"m 317 217 l 729 217 l 686 0 l 19 0 l 214 974 l 468 974 l 317 217 m 142 -107 l 532 -107 l 504 -253 l 114 -253 l 142 -107 z "},"Ł":{"ha":829,"x_min":15,"x_max":776,"o":"m 365 217 l 776 217 l 733 0 l 67 0 l 142 379 l 15 318 l 43 458 l 171 519 l 261 974 l 515 974 l 451 653 l 629 738 l 601 597 l 424 513 l 365 217 z "},"M":{"ha":1308,"x_min":25,"x_max":1328,"o":"m 1053 974 l 1328 974 l 1139 0 l 915 0 l 1038 625 l 682 97 l 519 97 l 371 626 l 249 0 l 25 0 l 214 974 l 488 974 l 660 397 l 1053 974 z "},"Ṃ":{"ha":1308,"x_min":25,"x_max":1328,"o":"m 1053 974 l 1328 974 l 1139 0 l 915 0 l 1038 625 l 682 97 l 519 97 l 371 626 l 249 0 l 25 0 l 214 974 l 488 974 l 660 397 l 1053 974 m 575 -94 q 654 -124 625 -94 q 683 -203 683 -154 q 637 -313 683 -268 q 524 -358 590 -358 q 446 -328 475 -358 q 417 -250 417 -299 q 463 -140 417 -185 q 575 -94 510 -94 z "},"N":{"ha":1092,"x_min":19,"x_max":1115,"o":"m 879 974 l 1115 974 l 921 0 l 699 0 l 375 583 l 257 0 l 19 0 l 214 974 l 436 974 l 761 388 l 879 974 z "},"Ǌ":{"ha":1840,"x_min":19,"x_max":1883,"o":"m 879 974 l 1115 974 l 921 0 l 699 0 l 375 583 l 257 0 l 19 0 l 214 974 l 436 974 l 761 388 l 879 974 m 1883 974 l 1751 317 q 1613 75 1721 161 q 1347 -11 1504 -11 q 1039 146 1143 -11 l 1189 319 q 1279 238 1231 267 q 1372 210 1328 210 q 1453 239 1419 210 q 1497 322 1486 268 l 1585 764 l 1253 764 l 1294 974 l 1883 974 z "},"Ń":{"ha":1092,"x_min":19,"x_max":1115,"o":"m 879 974 l 1115 974 l 921 0 l 699 0 l 375 583 l 257 0 l 19 0 l 214 974 l 436 974 l 761 388 l 879 974 m 724 1281 l 928 1203 l 726 1043 l 557 1057 l 724 1281 z "},"Ň":{"ha":1092,"x_min":19,"x_max":1115,"o":"m 879 974 l 1115 974 l 921 0 l 699 0 l 375 583 l 257 0 l 19 0 l 214 974 l 436 974 l 761 388 l 879 974 m 804 1263 l 982 1263 l 789 1050 l 571 1050 l 460 1263 l 638 1263 l 703 1169 l 804 1263 z "},"Ņ":{"ha":1092,"x_min":19,"x_max":1115,"o":"m 879 974 l 1115 974 l 921 0 l 699 0 l 375 583 l 257 0 l 19 0 l 214 974 l 436 974 l 761 388 l 879 974 m 353 -83 l 556 -83 l 411 -325 l 267 -325 l 353 -83 z "},"Ṅ":{"ha":1092,"x_min":19,"x_max":1115,"o":"m 879 974 l 1115 974 l 921 0 l 699 0 l 375 583 l 257 0 l 19 0 l 214 974 l 436 974 l 761 388 l 879 974 m 731 1313 q 810 1283 781 1313 q 839 1204 839 1253 q 792 1094 839 1139 q 679 1049 746 1049 q 601 1078 631 1049 q 572 1157 572 1108 q 619 1267 572 1222 q 731 1313 665 1313 z "},"Ṇ":{"ha":1092,"x_min":19,"x_max":1115,"o":"m 879 974 l 1115 974 l 921 0 l 699 0 l 375 583 l 257 0 l 19 0 l 214 974 l 436 974 l 761 388 l 879 974 m 453 -94 q 532 -124 503 -94 q 561 -203 561 -154 q 515 -313 561 -268 q 401 -358 468 -358 q 324 -328 353 -358 q 294 -250 294 -299 q 341 -140 294 -185 q 453 -94 388 -94 z "},"Ŋ":{"ha":1092,"x_min":19,"x_max":1115,"o":"m 1115 974 l 921 0 q 781 -220 888 -140 q 522 -300 674 -300 q 286 -222 379 -300 l 418 -29 q 492 -67 454 -54 q 564 -79 531 -79 q 642 -55 610 -79 q 689 17 675 -31 l 375 583 l 257 0 l 19 0 l 214 974 l 436 974 l 761 388 l 879 974 l 1115 974 z "},"ǋ":{"ha":1496,"x_min":19,"x_max":1518,"o":"m 774 986 q 972 914 900 986 q 1044 719 1044 842 q 1035 628 1044 672 l 908 0 l 651 0 l 765 567 q 771 614 771 600 q 733 715 771 678 q 631 753 696 753 q 472 694 540 753 q 383 546 404 636 l 274 0 l 19 0 l 214 974 l 468 974 l 439 828 q 590 944 504 903 q 774 986 676 986 m 928 -78 q 972 -83 949 -83 q 1043 -55 1014 -83 q 1082 19 1072 -26 l 1229 751 l 1476 751 l 1318 -37 q 1217 -217 1296 -154 q 1019 -279 1138 -279 q 858 -247 932 -279 l 928 -78 m 1410 1097 q 1489 1067 1460 1097 q 1518 989 1518 1038 q 1472 878 1518 924 q 1358 833 1425 833 q 1281 863 1310 833 q 1251 942 1251 893 q 1298 1052 1251 1007 q 1410 1097 1344 1097 z "},"Ṉ":{"ha":1092,"x_min":19,"x_max":1115,"o":"m 879 974 l 1115 974 l 921 0 l 699 0 l 375 583 l 257 0 l 19 0 l 214 974 l 436 974 l 761 388 l 879 974 m 256 -107 l 646 -107 l 618 -253 l 228 -253 l 256 -107 z "},"Ñ":{"ha":1092,"x_min":19,"x_max":1115,"o":"m 879 974 l 1115 974 l 921 0 l 699 0 l 375 583 l 257 0 l 19 0 l 214 974 l 436 974 l 761 388 l 879 974 m 978 1267 q 914 1102 956 1157 q 800 1047 872 1047 q 742 1058 768 1047 q 683 1088 715 1068 q 660 1100 679 1090 q 628 1110 642 1110 q 578 1051 589 1110 l 438 1051 q 503 1216 460 1160 q 617 1272 546 1272 q 675 1262 649 1272 q 733 1232 701 1251 q 789 1210 772 1210 q 839 1267 828 1210 l 978 1267 z "},"O":{"ha":1126,"x_min":58,"x_max":1117,"o":"m 638 989 q 885 930 776 989 q 1056 767 994 871 q 1117 532 1117 663 q 1039 254 1117 381 q 828 55 961 128 q 536 -18 694 -18 q 288 42 397 -18 q 119 206 179 101 q 58 443 58 311 q 136 721 58 596 q 347 917 214 846 q 638 989 479 989 m 619 774 q 472 732 542 774 q 361 618 403 690 q 319 461 319 546 q 351 328 319 388 q 439 233 383 268 q 561 199 494 199 q 706 241 638 199 q 814 356 774 283 q 854 514 854 428 q 824 647 854 588 q 739 740 793 706 q 619 774 685 774 z "},"Ó":{"ha":1126,"x_min":58,"x_max":1117,"o":"m 638 989 q 885 930 776 989 q 1056 767 994 871 q 1117 532 1117 663 q 1039 254 1117 381 q 828 55 961 128 q 536 -18 694 -18 q 288 42 397 -18 q 119 206 179 101 q 58 443 58 311 q 136 721 58 596 q 347 917 214 846 q 638 989 479 989 m 619 774 q 472 732 542 774 q 361 618 403 690 q 319 461 319 546 q 351 328 319 388 q 439 233 383 268 q 561 199 494 199 q 706 241 638 199 q 814 356 774 283 q 854 514 854 428 q 824 647 854 588 q 739 740 793 706 q 619 774 685 774 m 692 1281 l 896 1203 l 694 1043 l 525 1057 l 692 1281 z "},"Ŏ":{"ha":1126,"x_min":58,"x_max":1117,"o":"m 638 989 q 885 930 776 989 q 1056 767 994 871 q 1117 532 1117 663 q 1039 254 1117 381 q 828 55 961 128 q 536 -18 694 -18 q 288 42 397 -18 q 119 206 179 101 q 58 443 58 311 q 136 721 58 596 q 347 917 214 846 q 638 989 479 989 m 619 774 q 472 732 542 774 q 361 618 403 690 q 319 461 319 546 q 351 328 319 388 q 439 233 383 268 q 561 199 494 199 q 706 241 638 199 q 814 356 774 283 q 854 514 854 428 q 824 647 854 588 q 739 740 793 706 q 619 774 685 774 m 613 1268 q 625 1211 608 1233 q 674 1189 642 1189 q 731 1210 706 1189 q 765 1268 756 1232 l 919 1268 q 821 1106 896 1167 q 646 1044 746 1044 q 508 1093 558 1044 q 457 1225 457 1142 q 460 1268 457 1253 l 613 1268 z "},"Ô":{"ha":1126,"x_min":58,"x_max":1117,"o":"m 638 989 q 885 930 776 989 q 1056 767 994 871 q 1117 532 1117 663 q 1039 254 1117 381 q 828 55 961 128 q 536 -18 694 -18 q 288 42 397 -18 q 119 206 179 101 q 58 443 58 311 q 136 721 58 596 q 347 917 214 846 q 638 989 479 989 m 619 774 q 472 732 542 774 q 361 618 403 690 q 319 461 319 546 q 351 328 319 388 q 439 233 383 268 q 561 199 494 199 q 706 241 638 199 q 814 356 774 283 q 854 514 854 428 q 824 647 854 588 q 739 740 793 706 q 619 774 685 774 m 908 1051 l 731 1051 l 665 1144 l 564 1051 l 386 1051 l 579 1264 l 797 1264 l 908 1051 z "},"Ố":{"ha":1126,"x_min":58,"x_max":1117,"o":"m 638 989 q 885 930 776 989 q 1056 767 994 871 q 1117 532 1117 663 q 1039 254 1117 381 q 828 55 961 128 q 536 -18 694 -18 q 288 42 397 -18 q 119 206 179 101 q 58 443 58 311 q 136 721 58 596 q 347 917 214 846 q 638 989 479 989 m 619 774 q 472 732 542 774 q 361 618 403 690 q 319 461 319 546 q 351 328 319 388 q 439 233 383 268 q 561 199 494 199 q 706 241 638 199 q 814 356 774 283 q 854 514 854 428 q 824 647 854 588 q 739 740 793 706 q 619 774 685 774 m 939 1044 l 739 1044 l 665 1131 l 563 1044 l 361 1044 l 554 1215 l 804 1215 l 939 1044 m 754 1479 l 922 1378 l 701 1260 l 556 1299 l 754 1479 z "},"Ộ":{"ha":1126,"x_min":58,"x_max":1117,"o":"m 638 989 q 885 930 776 989 q 1056 767 994 871 q 1117 532 1117 663 q 1039 254 1117 381 q 828 55 961 128 q 536 -18 694 -18 q 288 42 397 -18 q 119 206 179 101 q 58 443 58 311 q 136 721 58 596 q 347 917 214 846 q 638 989 479 989 m 619 774 q 472 732 542 774 q 361 618 403 690 q 319 461 319 546 q 351 328 319 388 q 439 233 383 268 q 561 199 494 199 q 706 241 638 199 q 814 356 774 283 q 854 514 854 428 q 824 647 854 588 q 739 740 793 706 q 619 774 685 774 m 526 -94 q 606 -124 576 -94 q 635 -203 635 -154 q 588 -313 635 -268 q 475 -358 542 -358 q 397 -328 426 -358 q 368 -250 368 -299 q 415 -140 368 -185 q 526 -94 461 -94 m 971 1051 l 793 1051 l 728 1144 l 626 1051 l 449 1051 l 642 1264 l 860 1264 l 971 1051 z "},"Ồ":{"ha":1126,"x_min":58,"x_max":1117,"o":"m 638 989 q 885 930 776 989 q 1056 767 994 871 q 1117 532 1117 663 q 1039 254 1117 381 q 828 55 961 128 q 536 -18 694 -18 q 288 42 397 -18 q 119 206 179 101 q 58 443 58 311 q 136 721 58 596 q 347 917 214 846 q 638 989 479 989 m 619 774 q 472 732 542 774 q 361 618 403 690 q 319 461 319 546 q 351 328 319 388 q 439 233 383 268 q 561 199 494 199 q 706 241 638 199 q 814 356 774 283 q 854 514 854 428 q 824 647 854 588 q 739 740 793 706 q 619 774 685 774 m 939 1044 l 739 1044 l 665 1131 l 563 1044 l 361 1044 l 554 1215 l 804 1215 l 939 1044 m 621 1479 l 818 1299 l 672 1260 l 453 1378 l 621 1479 z "},"Ổ":{"ha":1126,"x_min":58,"x_max":1117,"o":"m 638 989 q 885 930 776 989 q 1056 767 994 871 q 1117 532 1117 663 q 1039 254 1117 381 q 828 55 961 128 q 536 -18 694 -18 q 288 42 397 -18 q 119 206 179 101 q 58 443 58 311 q 136 721 58 596 q 347 917 214 846 q 638 989 479 989 m 619 774 q 472 732 542 774 q 361 618 403 690 q 319 461 319 546 q 351 328 319 388 q 439 233 383 268 q 561 199 494 199 q 706 241 638 199 q 814 356 774 283 q 854 514 854 428 q 824 647 854 588 q 739 740 793 706 q 619 774 685 774 m 938 1044 l 738 1044 l 664 1131 l 561 1044 l 360 1044 l 553 1215 l 803 1215 l 938 1044 m 731 1500 q 816 1476 788 1500 q 844 1415 844 1453 q 813 1335 844 1374 q 713 1257 781 1297 l 621 1296 q 685 1363 685 1335 q 658 1382 685 1382 q 613 1368 633 1382 l 571 1454 q 731 1500 656 1500 z "},"Ỗ":{"ha":1126,"x_min":58,"x_max":1117,"o":"m 638 989 q 885 930 776 989 q 1056 767 994 871 q 1117 532 1117 663 q 1039 254 1117 381 q 828 55 961 128 q 536 -18 694 -18 q 288 42 397 -18 q 119 206 179 101 q 58 443 58 311 q 136 721 58 596 q 347 917 214 846 q 638 989 479 989 m 619 774 q 472 732 542 774 q 361 618 403 690 q 319 461 319 546 q 351 328 319 388 q 439 233 383 268 q 561 199 494 199 q 706 241 638 199 q 814 356 774 283 q 854 514 854 428 q 824 647 854 588 q 739 740 793 706 q 619 774 685 774 m 961 1044 l 761 1044 l 688 1131 l 585 1044 l 383 1044 l 576 1215 l 826 1215 l 961 1044 m 992 1450 q 933 1310 974 1357 q 822 1264 893 1264 q 759 1274 788 1264 q 694 1300 731 1283 q 631 1322 650 1322 q 595 1308 607 1322 q 578 1267 583 1294 l 461 1267 q 519 1406 479 1358 q 629 1454 558 1454 q 692 1445 664 1454 q 761 1418 721 1436 q 794 1403 778 1410 q 821 1397 810 1397 q 856 1410 844 1397 q 874 1450 868 1424 l 992 1450 z "},"Ȍ":{"ha":1126,"x_min":58,"x_max":1117,"o":"m 638 989 q 885 930 776 989 q 1056 767 994 871 q 1117 532 1117 663 q 1039 254 1117 381 q 828 55 961 128 q 536 -18 694 -18 q 288 42 397 -18 q 119 206 179 101 q 58 443 58 311 q 136 721 58 596 q 347 917 214 846 q 638 989 479 989 m 619 774 q 472 732 542 774 q 361 618 403 690 q 319 461 319 546 q 351 328 319 388 q 439 233 383 268 q 561 199 494 199 q 706 241 638 199 q 814 356 774 283 q 854 514 854 428 q 824 647 854 588 q 739 740 793 706 q 619 774 685 774 m 553 1282 l 621 1053 l 444 1040 l 353 1213 l 553 1282 m 826 1282 l 894 1053 l 718 1040 l 626 1213 l 826 1282 z "},"Ö":{"ha":1126,"x_min":58,"x_max":1117,"o":"m 638 989 q 885 930 776 989 q 1056 767 994 871 q 1117 532 1117 663 q 1039 254 1117 381 q 828 55 961 128 q 536 -18 694 -18 q 288 42 397 -18 q 119 206 179 101 q 58 443 58 311 q 136 721 58 596 q 347 917 214 846 q 638 989 479 989 m 619 774 q 472 732 542 774 q 361 618 403 690 q 319 461 319 546 q 351 328 319 388 q 439 233 383 268 q 561 199 494 199 q 706 241 638 199 q 814 356 774 283 q 854 514 854 428 q 824 647 854 588 q 739 740 793 706 q 619 774 685 774 m 557 1263 q 621 1238 597 1263 q 644 1174 644 1214 q 606 1085 644 1122 q 515 1047 568 1047 q 452 1072 476 1047 q 428 1136 428 1097 q 466 1226 428 1189 q 557 1263 504 1263 m 824 1263 q 886 1238 863 1263 q 910 1174 910 1214 q 872 1085 910 1122 q 782 1047 835 1047 q 718 1072 742 1047 q 694 1136 694 1097 q 733 1226 694 1189 q 824 1263 771 1263 z "},"Ȫ":{"ha":1126,"x_min":58,"x_max":1117,"o":"m 638 989 q 885 930 776 989 q 1056 767 994 871 q 1117 532 1117 663 q 1039 254 1117 381 q 828 55 961 128 q 536 -18 694 -18 q 288 42 397 -18 q 119 206 179 101 q 58 443 58 311 q 136 721 58 596 q 347 917 214 846 q 638 989 479 989 m 619 774 q 472 732 542 774 q 361 618 403 690 q 319 461 319 546 q 351 328 319 388 q 439 233 383 268 q 561 199 494 199 q 706 241 638 199 q 814 356 774 283 q 854 514 854 428 q 824 647 854 588 q 739 740 793 706 q 619 774 685 774 z "},"Ȱ":{"ha":1126,"x_min":58,"x_max":1117,"o":"m 638 989 q 885 930 776 989 q 1056 767 994 871 q 1117 532 1117 663 q 1039 254 1117 381 q 828 55 961 128 q 536 -18 694 -18 q 288 42 397 -18 q 119 206 179 101 q 58 443 58 311 q 136 721 58 596 q 347 917 214 846 q 638 989 479 989 m 619 774 q 472 732 542 774 q 361 618 403 690 q 319 461 319 546 q 351 328 319 388 q 439 233 383 268 q 561 199 494 199 q 706 241 638 199 q 814 356 774 283 q 854 514 854 428 q 824 647 854 588 q 739 740 793 706 q 619 774 685 774 z "},"Ọ":{"ha":1126,"x_min":58,"x_max":1117,"o":"m 638 989 q 885 930 776 989 q 1056 767 994 871 q 1117 532 1117 663 q 1039 254 1117 381 q 828 55 961 128 q 536 -18 694 -18 q 288 42 397 -18 q 119 206 179 101 q 58 443 58 311 q 136 721 58 596 q 347 917 214 846 q 638 989 479 989 m 619 774 q 472 732 542 774 q 361 618 403 690 q 319 461 319 546 q 351 328 319 388 q 439 233 383 268 q 561 199 494 199 q 706 241 638 199 q 814 356 774 283 q 854 514 854 428 q 824 647 854 588 q 739 740 793 706 q 619 774 685 774 m 526 -94 q 606 -124 576 -94 q 635 -203 635 -154 q 588 -313 635 -268 q 475 -358 542 -358 q 397 -328 426 -358 q 368 -250 368 -299 q 415 -140 368 -185 q 526 -94 461 -94 z "},"Ò":{"ha":1126,"x_min":58,"x_max":1117,"o":"m 638 989 q 885 930 776 989 q 1056 767 994 871 q 1117 532 1117 663 q 1039 254 1117 381 q 828 55 961 128 q 536 -18 694 -18 q 288 42 397 -18 q 119 206 179 101 q 58 443 58 311 q 136 721 58 596 q 347 917 214 846 q 638 989 479 989 m 619 774 q 472 732 542 774 q 361 618 403 690 q 319 461 319 546 q 351 328 319 388 q 439 233 383 268 q 561 199 494 199 q 706 241 638 199 q 814 356 774 283 q 854 514 854 428 q 824 647 854 588 q 739 740 793 706 q 619 774 685 774 m 643 1281 l 790 1057 l 621 1043 l 439 1203 l 643 1281 z "},"Ỏ":{"ha":1126,"x_min":58,"x_max":1117,"o":"m 638 989 q 885 930 776 989 q 1056 767 994 871 q 1117 532 1117 663 q 1039 254 1117 381 q 828 55 961 128 q 536 -18 694 -18 q 288 42 397 -18 q 119 206 179 101 q 58 443 58 311 q 136 721 58 596 q 347 917 214 846 q 638 989 479 989 m 619 774 q 472 732 542 774 q 361 618 403 690 q 319 461 319 546 q 351 328 319 388 q 439 233 383 268 q 561 199 494 199 q 706 241 638 199 q 814 356 774 283 q 854 514 854 428 q 824 647 854 588 q 739 740 793 706 q 619 774 685 774 m 717 1354 q 815 1325 779 1354 q 850 1246 850 1296 q 689 1029 850 1143 l 588 1075 q 649 1135 626 1104 q 671 1189 671 1167 q 662 1211 671 1203 q 639 1219 653 1219 q 583 1200 611 1219 l 539 1301 q 717 1354 629 1354 z "},"Ơ":{"ha":1181,"x_min":58,"x_max":1208,"o":"m 1192 1181 q 1208 1076 1208 1126 q 1158 918 1208 986 q 1019 819 1107 850 q 1092 688 1067 761 q 1117 532 1117 615 q 1039 254 1117 381 q 828 55 961 128 q 536 -18 694 -18 q 288 42 397 -18 q 119 206 179 101 q 58 443 58 311 q 136 721 58 596 q 347 917 214 846 q 638 989 479 989 q 858 943 756 989 l 858 944 q 908 932 878 932 q 983 967 954 932 q 1011 1050 1011 1003 q 996 1114 1011 1083 l 1192 1181 m 561 199 q 706 241 638 199 q 814 356 774 283 q 854 514 854 428 q 824 647 854 588 q 739 740 793 706 q 619 774 685 774 q 472 732 542 774 q 361 618 403 690 q 319 461 319 546 q 351 328 319 388 q 439 233 383 268 q 561 199 494 199 z "},"Ớ":{"ha":1181,"x_min":58,"x_max":1208,"o":"m 1192 1181 q 1208 1076 1208 1126 q 1158 918 1208 986 q 1019 819 1107 850 q 1092 688 1067 761 q 1117 532 1117 615 q 1039 254 1117 381 q 828 55 961 128 q 536 -18 694 -18 q 288 42 397 -18 q 119 206 179 101 q 58 443 58 311 q 136 721 58 596 q 347 917 214 846 q 638 989 479 989 q 858 943 756 989 l 858 944 q 908 932 878 932 q 983 967 954 932 q 1011 1050 1011 1003 q 996 1114 1011 1083 l 1192 1181 m 561 199 q 706 241 638 199 q 814 356 774 283 q 854 514 854 428 q 824 647 854 588 q 739 740 793 706 q 619 774 685 774 q 472 732 542 774 q 361 618 403 690 q 319 461 319 546 q 351 328 319 388 q 439 233 383 268 q 561 199 494 199 m 693 1281 l 897 1203 l 696 1043 l 526 1057 l 693 1281 z "},"Ợ":{"ha":1181,"x_min":58,"x_max":1208,"o":"m 1192 1181 q 1208 1076 1208 1126 q 1158 918 1208 986 q 1019 819 1107 850 q 1092 688 1067 761 q 1117 532 1117 615 q 1039 254 1117 381 q 828 55 961 128 q 536 -18 694 -18 q 288 42 397 -18 q 119 206 179 101 q 58 443 58 311 q 136 721 58 596 q 347 917 214 846 q 638 989 479 989 q 858 943 756 989 l 858 944 q 908 932 878 932 q 983 967 954 932 q 1011 1050 1011 1003 q 996 1114 1011 1083 l 1192 1181 m 561 199 q 706 241 638 199 q 814 356 774 283 q 854 514 854 428 q 824 647 854 588 q 739 740 793 706 q 619 774 685 774 q 472 732 542 774 q 361 618 403 690 q 319 461 319 546 q 351 328 319 388 q 439 233 383 268 q 561 199 494 199 m 526 -94 q 606 -124 576 -94 q 635 -203 635 -154 q 588 -313 635 -268 q 475 -358 542 -358 q 397 -328 426 -358 q 368 -250 368 -299 q 415 -140 368 -185 q 526 -94 461 -94 z "},"Ờ":{"ha":1181,"x_min":58,"x_max":1208,"o":"m 1192 1181 q 1208 1076 1208 1126 q 1158 918 1208 986 q 1019 819 1107 850 q 1092 688 1067 761 q 1117 532 1117 615 q 1039 254 1117 381 q 828 55 961 128 q 536 -18 694 -18 q 288 42 397 -18 q 119 206 179 101 q 58 443 58 311 q 136 721 58 596 q 347 917 214 846 q 638 989 479 989 q 858 943 756 989 l 858 944 q 908 932 878 932 q 983 967 954 932 q 1011 1050 1011 1003 q 996 1114 1011 1083 l 1192 1181 m 561 199 q 706 241 638 199 q 814 356 774 283 q 854 514 854 428 q 824 647 854 588 q 739 740 793 706 q 619 774 685 774 q 472 732 542 774 q 361 618 403 690 q 319 461 319 546 q 351 328 319 388 q 439 233 383 268 q 561 199 494 199 m 644 1281 l 792 1057 l 622 1043 l 440 1203 l 644 1281 z "},"Ở":{"ha":1181,"x_min":58,"x_max":1208,"o":"m 1192 1181 q 1208 1076 1208 1126 q 1158 918 1208 986 q 1019 819 1107 850 q 1092 688 1067 761 q 1117 532 1117 615 q 1039 254 1117 381 q 828 55 961 128 q 536 -18 694 -18 q 288 42 397 -18 q 119 206 179 101 q 58 443 58 311 q 136 721 58 596 q 347 917 214 846 q 638 989 479 989 q 858 943 756 989 l 858 944 q 908 932 878 932 q 983 967 954 932 q 1011 1050 1011 1003 q 996 1114 1011 1083 l 1192 1181 m 561 199 q 706 241 638 199 q 814 356 774 283 q 854 514 854 428 q 824 647 854 588 q 739 740 793 706 q 619 774 685 774 q 472 732 542 774 q 361 618 403 690 q 319 461 319 546 q 351 328 319 388 q 439 233 383 268 q 561 199 494 199 m 717 1354 q 815 1325 779 1354 q 850 1246 850 1296 q 689 1029 850 1143 l 588 1075 q 649 1135 626 1104 q 671 1189 671 1167 q 662 1211 671 1203 q 639 1219 653 1219 q 583 1200 611 1219 l 539 1301 q 717 1354 629 1354 z "},"Ỡ":{"ha":1181,"x_min":58,"x_max":1208,"o":"m 1192 1181 q 1208 1076 1208 1126 q 1158 918 1208 986 q 1019 819 1107 850 q 1092 688 1067 761 q 1117 532 1117 615 q 1039 254 1117 381 q 828 55 961 128 q 536 -18 694 -18 q 288 42 397 -18 q 119 206 179 101 q 58 443 58 311 q 136 721 58 596 q 347 917 214 846 q 638 989 479 989 q 858 943 756 989 l 858 944 q 908 932 878 932 q 983 967 954 932 q 1011 1050 1011 1003 q 996 1114 1011 1083 l 1192 1181 m 561 199 q 706 241 638 199 q 814 356 774 283 q 854 514 854 428 q 824 647 854 588 q 739 740 793 706 q 619 774 685 774 q 472 732 542 774 q 361 618 403 690 q 319 461 319 546 q 351 328 319 388 q 439 233 383 268 q 561 199 494 199 m 946 1267 q 882 1102 924 1157 q 768 1047 840 1047 q 710 1058 736 1047 q 651 1088 683 1068 q 628 1100 647 1090 q 596 1110 610 1110 q 546 1051 557 1110 l 406 1051 q 471 1216 428 1160 q 585 1272 514 1272 q 643 1262 617 1272 q 701 1232 669 1251 q 757 1210 740 1210 q 807 1267 796 1210 l 946 1267 z "},"Ő":{"ha":1126,"x_min":58,"x_max":1117,"o":"m 638 989 q 885 930 776 989 q 1056 767 994 871 q 1117 532 1117 663 q 1039 254 1117 381 q 828 55 961 128 q 536 -18 694 -18 q 288 42 397 -18 q 119 206 179 101 q 58 443 58 311 q 136 721 58 596 q 347 917 214 846 q 638 989 479 989 m 619 774 q 472 732 542 774 q 361 618 403 690 q 319 461 319 546 q 351 328 319 388 q 439 233 383 268 q 561 199 494 199 q 706 241 638 199 q 814 356 774 283 q 854 514 854 428 q 824 647 854 588 q 739 740 793 706 q 619 774 685 774 m 533 1285 l 706 1215 l 578 1043 l 407 1056 l 533 1285 m 807 1285 l 979 1215 l 851 1043 l 681 1056 l 807 1285 z "},"Ȏ":{"ha":1126,"x_min":58,"x_max":1117,"o":"m 638 989 q 885 930 776 989 q 1056 767 994 871 q 1117 532 1117 663 q 1039 254 1117 381 q 828 55 961 128 q 536 -18 694 -18 q 288 42 397 -18 q 119 206 179 101 q 58 443 58 311 q 136 721 58 596 q 347 917 214 846 q 638 989 479 989 m 619 774 q 472 732 542 774 q 361 618 403 690 q 319 461 319 546 q 351 328 319 388 q 439 233 383 268 q 561 199 494 199 q 706 241 638 199 q 814 356 774 283 q 854 514 854 428 q 824 647 854 588 q 739 740 793 706 q 619 774 685 774 m 725 1050 q 713 1107 729 1085 q 664 1129 696 1129 q 607 1108 632 1129 q 572 1050 582 1086 l 418 1050 q 517 1213 442 1151 q 692 1274 592 1274 q 830 1225 779 1274 q 881 1093 881 1176 q 878 1050 881 1065 l 725 1050 z "},"Ō":{"ha":1126,"x_min":58,"x_max":1117,"o":"m 638 989 q 885 930 776 989 q 1056 767 994 871 q 1117 532 1117 663 q 1039 254 1117 381 q 828 55 961 128 q 536 -18 694 -18 q 288 42 397 -18 q 119 206 179 101 q 58 443 58 311 q 136 721 58 596 q 347 917 214 846 q 638 989 479 989 m 619 774 q 472 732 542 774 q 361 618 403 690 q 319 461 319 546 q 351 328 319 388 q 439 233 383 268 q 561 199 494 199 q 706 241 638 199 q 814 356 774 283 q 854 514 854 428 q 824 647 854 588 q 739 740 793 706 q 619 774 685 774 m 447 1200 l 908 1200 l 879 1054 l 418 1054 l 447 1200 z "},"Ṓ":{"ha":1126,"x_min":58,"x_max":1117,"o":"m 638 989 q 885 930 776 989 q 1056 767 994 871 q 1117 532 1117 663 q 1039 254 1117 381 q 828 55 961 128 q 536 -18 694 -18 q 288 42 397 -18 q 119 206 179 101 q 58 443 58 311 q 136 721 58 596 q 347 917 214 846 q 638 989 479 989 m 619 774 q 472 732 542 774 q 361 618 403 690 q 319 461 319 546 q 351 328 319 388 q 439 233 383 268 q 561 199 494 199 q 706 241 638 199 q 814 356 774 283 q 854 514 854 428 q 824 647 854 588 q 739 740 793 706 q 619 774 685 774 m 467 1190 l 874 1190 l 846 1051 l 440 1051 l 467 1190 m 746 1471 l 914 1369 l 693 1251 l 547 1290 l 746 1471 z "},"Ṑ":{"ha":1126,"x_min":58,"x_max":1117,"o":"m 638 989 q 885 930 776 989 q 1056 767 994 871 q 1117 532 1117 663 q 1039 254 1117 381 q 828 55 961 128 q 536 -18 694 -18 q 288 42 397 -18 q 119 206 179 101 q 58 443 58 311 q 136 721 58 596 q 347 917 214 846 q 638 989 479 989 m 619 774 q 472 732 542 774 q 361 618 403 690 q 319 461 319 546 q 351 328 319 388 q 439 233 383 268 q 561 199 494 199 q 706 241 638 199 q 814 356 774 283 q 854 514 854 428 q 824 647 854 588 q 739 740 793 706 q 619 774 685 774 m 474 1190 l 881 1190 l 853 1051 l 447 1051 l 474 1190 m 619 1471 l 817 1290 l 671 1251 l 451 1369 l 619 1471 z "},"Ǫ":{"ha":1126,"x_min":58,"x_max":1117,"o":"m 1117 532 q 1047 267 1117 388 q 856 71 976 146 q 747 -42 789 17 q 704 -143 704 -101 q 729 -172 704 -172 q 771 -161 749 -172 l 785 -293 q 646 -324 707 -324 q 550 -294 586 -324 q 514 -206 514 -264 q 538 -108 514 -154 q 615 -12 563 -61 q 536 -18 581 -18 q 288 42 397 -18 q 119 206 179 101 q 58 443 58 311 q 136 721 58 596 q 347 917 214 846 q 638 989 479 989 q 885 930 776 989 q 1056 767 994 871 q 1117 532 1117 663 m 319 461 q 351 328 319 388 q 439 233 383 268 q 561 199 494 199 q 706 241 638 199 q 814 356 774 283 q 854 514 854 428 q 824 647 854 588 q 739 740 793 706 q 619 774 685 774 q 472 732 542 774 q 361 618 403 690 q 319 461 319 546 z "},"Ø":{"ha":1126,"x_min":58,"x_max":1117,"o":"m 958 882 q 1075 729 1033 819 q 1117 532 1117 639 q 1039 254 1117 381 q 828 55 961 128 q 536 -18 694 -18 q 313 29 414 -18 l 232 -76 l 72 -76 l 206 100 q 97 251 135 163 q 58 443 58 339 q 136 721 58 596 q 347 917 214 846 q 638 989 479 989 q 847 949 751 989 l 924 1049 l 1085 1049 l 958 882 m 319 461 q 364 308 319 378 l 703 758 q 619 774 664 774 q 472 732 542 774 q 361 618 403 690 q 319 461 319 546 m 561 199 q 706 241 638 199 q 814 356 774 283 q 854 514 854 428 q 804 678 854 610 l 458 222 q 561 199 506 199 z "},"Ǿ":{"ha":1126,"x_min":58,"x_max":1117,"o":"m 958 882 q 1075 729 1033 819 q 1117 532 1117 639 q 1039 254 1117 381 q 828 55 961 128 q 536 -18 694 -18 q 313 29 414 -18 l 232 -76 l 72 -76 l 206 100 q 97 251 135 163 q 58 443 58 339 q 136 721 58 596 q 347 917 214 846 q 638 989 479 989 q 847 949 751 989 l 924 1049 l 1085 1049 l 958 882 m 319 461 q 364 308 319 378 l 703 758 q 619 774 664 774 q 472 732 542 774 q 361 618 403 690 q 319 461 319 546 m 561 199 q 706 241 638 199 q 814 356 774 283 q 854 514 854 428 q 804 678 854 610 l 458 222 q 561 199 506 199 m 739 1281 l 943 1203 l 742 1043 l 572 1057 l 739 1281 z "},"Õ":{"ha":1126,"x_min":58,"x_max":1117,"o":"m 638 989 q 885 930 776 989 q 1056 767 994 871 q 1117 532 1117 663 q 1039 254 1117 381 q 828 55 961 128 q 536 -18 694 -18 q 288 42 397 -18 q 119 206 179 101 q 58 443 58 311 q 136 721 58 596 q 347 917 214 846 q 638 989 479 989 m 619 774 q 472 732 542 774 q 361 618 403 690 q 319 461 319 546 q 351 328 319 388 q 439 233 383 268 q 561 199 494 199 q 706 241 638 199 q 814 356 774 283 q 854 514 854 428 q 824 647 854 588 q 739 740 793 706 q 619 774 685 774 m 946 1267 q 882 1102 924 1157 q 768 1047 840 1047 q 710 1058 736 1047 q 651 1088 683 1068 q 628 1100 647 1090 q 596 1110 610 1110 q 546 1051 557 1110 l 406 1051 q 471 1216 428 1160 q 585 1272 514 1272 q 643 1262 617 1272 q 701 1232 669 1251 q 757 1210 740 1210 q 807 1267 796 1210 l 946 1267 z "},"Ṍ":{"ha":1126,"x_min":58,"x_max":1117,"o":"m 638 989 q 885 930 776 989 q 1056 767 994 871 q 1117 532 1117 663 q 1039 254 1117 381 q 828 55 961 128 q 536 -18 694 -18 q 288 42 397 -18 q 119 206 179 101 q 58 443 58 311 q 136 721 58 596 q 347 917 214 846 q 638 989 479 989 m 619 774 q 472 732 542 774 q 361 618 403 690 q 319 461 319 546 q 351 328 319 388 q 439 233 383 268 q 561 199 494 199 q 706 241 638 199 q 814 356 774 283 q 854 514 854 428 q 824 647 854 588 q 739 740 793 706 q 619 774 685 774 z "},"Ṏ":{"ha":1126,"x_min":58,"x_max":1117,"o":"m 638 989 q 885 930 776 989 q 1056 767 994 871 q 1117 532 1117 663 q 1039 254 1117 381 q 828 55 961 128 q 536 -18 694 -18 q 288 42 397 -18 q 119 206 179 101 q 58 443 58 311 q 136 721 58 596 q 347 917 214 846 q 638 989 479 989 m 619 774 q 472 732 542 774 q 361 618 403 690 q 319 461 319 546 q 351 328 319 388 q 439 233 383 268 q 561 199 494 199 q 706 241 638 199 q 814 356 774 283 q 854 514 854 428 q 824 647 854 588 q 739 740 793 706 q 619 774 685 774 z "},"Ȭ":{"ha":1126,"x_min":58,"x_max":1117,"o":"m 638 989 q 885 930 776 989 q 1056 767 994 871 q 1117 532 1117 663 q 1039 254 1117 381 q 828 55 961 128 q 536 -18 694 -18 q 288 42 397 -18 q 119 206 179 101 q 58 443 58 311 q 136 721 58 596 q 347 917 214 846 q 638 989 479 989 m 619 774 q 472 732 542 774 q 361 618 403 690 q 319 461 319 546 q 351 328 319 388 q 439 233 383 268 q 561 199 494 199 q 706 241 638 199 q 814 356 774 283 q 854 514 854 428 q 824 647 854 588 q 739 740 793 706 q 619 774 685 774 z "},"Œ":{"ha":1556,"x_min":58,"x_max":1600,"o":"m 1044 771 l 1008 589 l 1472 589 l 1432 388 l 968 388 l 932 203 l 1460 203 l 1419 0 l 539 0 q 293 58 403 0 q 121 221 183 117 q 58 456 58 325 q 135 717 58 599 q 345 905 213 836 q 636 974 478 974 l 1600 974 l 1560 771 l 1044 771 m 678 208 l 789 761 l 615 761 q 467 722 535 761 q 359 614 399 682 q 319 465 319 546 q 350 333 319 392 q 435 242 381 275 q 560 208 490 208 l 678 208 z "},"P":{"ha":963,"x_min":19,"x_max":974,"o":"m 640 974 q 888 902 801 974 q 974 700 974 831 q 917 474 974 571 q 753 323 860 376 q 500 269 646 269 l 328 269 l 274 0 l 19 0 l 214 974 l 640 974 m 529 472 q 674 522 621 472 q 726 656 726 571 q 691 741 726 711 q 589 771 656 771 l 428 771 l 368 472 l 529 472 z "},"Þ":{"ha":976,"x_min":19,"x_max":961,"o":"m 610 846 q 869 772 776 846 q 961 569 961 699 q 900 353 961 447 q 728 206 839 258 q 471 154 617 154 l 304 154 l 274 0 l 19 0 l 214 974 l 468 974 l 443 846 l 610 846 m 500 351 q 643 401 590 351 q 696 533 696 450 q 661 618 696 588 q 560 649 626 649 l 403 649 l 344 351 l 500 351 z "},"Q":{"ha":1131,"x_min":58,"x_max":1118,"o":"m 1118 -124 q 976 -203 1056 -174 q 822 -232 896 -232 q 649 -175 724 -232 q 538 -18 574 -118 l 536 -18 q 288 42 397 -18 q 119 206 179 101 q 58 443 58 311 q 136 721 58 596 q 347 917 214 846 q 638 989 479 989 q 885 930 776 989 q 1056 767 994 871 q 1117 532 1117 663 q 1020 225 1117 361 q 764 25 924 89 q 810 -22 783 -6 q 868 -39 838 -39 q 951 -21 907 -39 q 1050 33 994 -3 l 1118 -124 m 319 461 q 351 328 319 388 q 439 233 383 268 q 561 199 494 199 q 706 241 638 199 q 814 356 774 283 q 854 514 854 428 q 824 647 854 588 q 739 740 793 706 q 619 774 685 774 q 472 732 542 774 q 361 618 403 690 q 319 461 319 546 z "},"R":{"ha":1006,"x_min":19,"x_max":997,"o":"m 997 699 q 935 466 997 565 q 756 315 872 367 l 892 0 l 603 0 l 515 269 l 511 269 l 328 269 l 274 0 l 19 0 l 214 974 l 651 974 q 908 901 818 974 q 997 699 997 829 m 368 472 l 551 472 q 697 521 644 472 q 750 656 750 569 q 715 741 750 711 q 613 771 679 771 l 428 771 l 368 472 z "},"Ŕ":{"ha":1006,"x_min":19,"x_max":997,"o":"m 997 699 q 935 466 997 565 q 756 315 872 367 l 892 0 l 603 0 l 515 269 l 511 269 l 328 269 l 274 0 l 19 0 l 214 974 l 651 974 q 908 901 818 974 q 997 699 997 829 m 368 472 l 551 472 q 697 521 644 472 q 750 656 750 569 q 715 741 750 711 q 613 771 679 771 l 428 771 l 368 472 m 663 1281 l 867 1203 l 665 1043 l 496 1057 l 663 1281 z "},"Ř":{"ha":1006,"x_min":19,"x_max":997,"o":"m 997 699 q 935 466 997 565 q 756 315 872 367 l 892 0 l 603 0 l 515 269 l 511 269 l 328 269 l 274 0 l 19 0 l 214 974 l 651 974 q 908 901 818 974 q 997 699 997 829 m 368 472 l 551 472 q 697 521 644 472 q 750 656 750 569 q 715 741 750 711 q 613 771 679 771 l 428 771 l 368 472 m 743 1263 l 921 1263 l 728 1050 l 510 1050 l 399 1263 l 576 1263 l 642 1169 l 743 1263 z "},"Ŗ":{"ha":1006,"x_min":19,"x_max":997,"o":"m 997 699 q 935 466 997 565 q 756 315 872 367 l 892 0 l 603 0 l 515 269 l 511 269 l 328 269 l 274 0 l 19 0 l 214 974 l 651 974 q 908 901 818 974 q 997 699 997 829 m 368 472 l 551 472 q 697 521 644 472 q 750 656 750 569 q 715 741 750 711 q 613 771 679 771 l 428 771 l 368 472 m 306 -83 l 508 -83 l 364 -325 l 219 -325 l 306 -83 z "},"Ȑ":{"ha":1006,"x_min":19,"x_max":997,"o":"m 997 699 q 935 466 997 565 q 756 315 872 367 l 892 0 l 603 0 l 515 269 l 511 269 l 328 269 l 274 0 l 19 0 l 214 974 l 651 974 q 908 901 818 974 q 997 699 997 829 m 368 472 l 551 472 q 697 521 644 472 q 750 656 750 569 q 715 741 750 711 q 613 771 679 771 l 428 771 l 368 472 m 524 1282 l 592 1053 l 415 1040 l 324 1213 l 524 1282 m 797 1282 l 865 1053 l 689 1040 l 597 1213 l 797 1282 z "},"Ṛ":{"ha":1006,"x_min":19,"x_max":997,"o":"m 997 699 q 935 466 997 565 q 756 315 872 367 l 892 0 l 603 0 l 515 269 l 511 269 l 328 269 l 274 0 l 19 0 l 214 974 l 651 974 q 908 901 818 974 q 997 699 997 829 m 368 472 l 551 472 q 697 521 644 472 q 750 656 750 569 q 715 741 750 711 q 613 771 679 771 l 428 771 l 368 472 m 406 -94 q 485 -124 456 -94 q 514 -203 514 -154 q 467 -313 514 -268 q 354 -358 421 -358 q 276 -328 306 -358 q 247 -250 247 -299 q 294 -140 247 -185 q 406 -94 340 -94 z "},"Ȓ":{"ha":1006,"x_min":19,"x_max":997,"o":"m 997 699 q 935 466 997 565 q 756 315 872 367 l 892 0 l 603 0 l 515 269 l 511 269 l 328 269 l 274 0 l 19 0 l 214 974 l 651 974 q 908 901 818 974 q 997 699 997 829 m 368 472 l 551 472 q 697 521 644 472 q 750 656 750 569 q 715 741 750 711 q 613 771 679 771 l 428 771 l 368 472 m 696 1050 q 683 1107 700 1085 q 635 1129 667 1129 q 578 1108 603 1129 q 543 1050 553 1086 l 389 1050 q 488 1213 413 1151 q 663 1274 563 1274 q 801 1225 750 1274 q 851 1093 851 1176 q 849 1050 851 1065 l 696 1050 z "},"Ṟ":{"ha":1006,"x_min":19,"x_max":997,"o":"m 997 699 q 935 466 997 565 q 756 315 872 367 l 892 0 l 603 0 l 515 269 l 511 269 l 328 269 l 274 0 l 19 0 l 214 974 l 651 974 q 908 901 818 974 q 997 699 997 829 m 368 472 l 551 472 q 697 521 644 472 q 750 656 750 569 q 715 741 750 711 q 613 771 679 771 l 428 771 l 368 472 m 208 -107 l 599 -107 l 571 -253 l 181 -253 l 208 -107 z "},"S":{"ha":882,"x_min":-24,"x_max":897,"o":"m 519 992 q 724 962 624 992 q 897 882 824 932 l 779 679 q 623 755 708 725 q 478 785 538 785 q 400 767 429 785 q 368 714 371 749 q 408 646 367 669 q 539 594 449 622 q 688 540 629 567 q 790 459 747 513 q 832 319 832 406 q 776 137 832 213 q 623 23 719 61 q 410 -15 526 -15 q 172 26 288 -15 q -24 142 57 68 l 94 342 q 258 234 161 276 q 432 192 354 192 q 528 215 493 192 q 563 282 563 238 q 540 333 563 313 q 485 365 518 353 q 389 397 451 378 q 240 449 299 422 q 140 526 182 475 q 99 661 99 578 q 151 835 99 761 q 299 951 204 910 q 519 992 394 992 z "},"Ś":{"ha":882,"x_min":-24,"x_max":897,"o":"m 519 992 q 724 962 624 992 q 897 882 824 932 l 779 679 q 623 755 708 725 q 478 785 538 785 q 400 767 429 785 q 368 714 371 749 q 408 646 367 669 q 539 594 449 622 q 688 540 629 567 q 790 459 747 513 q 832 319 832 406 q 776 137 832 213 q 623 23 719 61 q 410 -15 526 -15 q 172 26 288 -15 q -24 142 57 68 l 94 342 q 258 234 161 276 q 432 192 354 192 q 528 215 493 192 q 563 282 563 238 q 540 333 563 313 q 485 365 518 353 q 389 397 451 378 q 240 449 299 422 q 140 526 182 475 q 99 661 99 578 q 151 835 99 761 q 299 951 204 910 q 519 992 394 992 m 578 1281 l 782 1203 l 581 1043 l 411 1057 l 578 1281 z "},"Ṥ":{"ha":882,"x_min":-24,"x_max":897,"o":"m 519 992 q 724 962 624 992 q 897 882 824 932 l 779 679 q 623 755 708 725 q 478 785 538 785 q 400 767 429 785 q 368 714 371 749 q 408 646 367 669 q 539 594 449 622 q 688 540 629 567 q 790 459 747 513 q 832 319 832 406 q 776 137 832 213 q 623 23 719 61 q 410 -15 526 -15 q 172 26 288 -15 q -24 142 57 68 l 94 342 q 258 234 161 276 q 432 192 354 192 q 528 215 493 192 q 563 282 563 238 q 540 333 563 313 q 485 365 518 353 q 389 397 451 378 q 240 449 299 422 q 140 526 182 475 q 99 661 99 578 q 151 835 99 761 q 299 951 204 910 q 519 992 394 992 z "},"Ꞌ":{"ha":429,"x_min":89,"x_max":454,"o":"m 200 974 l 454 974 l 313 414 l 89 414 l 200 974 z "},"Š":{"ha":882,"x_min":-24,"x_max":897,"o":"m 519 992 q 724 962 624 992 q 897 882 824 932 l 779 679 q 623 755 708 725 q 478 785 538 785 q 400 767 429 785 q 368 714 371 749 q 408 646 367 669 q 539 594 449 622 q 688 540 629 567 q 790 459 747 513 q 832 319 832 406 q 776 137 832 213 q 623 23 719 61 q 410 -15 526 -15 q 172 26 288 -15 q -24 142 57 68 l 94 342 q 258 234 161 276 q 432 192 354 192 q 528 215 493 192 q 563 282 563 238 q 540 333 563 313 q 485 365 518 353 q 389 397 451 378 q 240 449 299 422 q 140 526 182 475 q 99 661 99 578 q 151 835 99 761 q 299 951 204 910 q 519 992 394 992 m 658 1263 l 836 1263 l 643 1050 l 425 1050 l 314 1263 l 492 1263 l 557 1169 l 658 1263 z "},"Ṧ":{"ha":882,"x_min":-24,"x_max":897,"o":"m 519 992 q 724 962 624 992 q 897 882 824 932 l 779 679 q 623 755 708 725 q 478 785 538 785 q 400 767 429 785 q 368 714 371 749 q 408 646 367 669 q 539 594 449 622 q 688 540 629 567 q 790 459 747 513 q 832 319 832 406 q 776 137 832 213 q 623 23 719 61 q 410 -15 526 -15 q 172 26 288 -15 q -24 142 57 68 l 94 342 q 258 234 161 276 q 432 192 354 192 q 528 215 493 192 q 563 282 563 238 q 540 333 563 313 q 485 365 518 353 q 389 397 451 378 q 240 449 299 422 q 140 526 182 475 q 99 661 99 578 q 151 835 99 761 q 299 951 204 910 q 519 992 394 992 z "},"Ş":{"ha":882,"x_min":-24,"x_max":897,"o":"m 368 714 q 408 646 367 669 q 539 594 449 622 q 688 540 629 567 q 790 459 747 513 q 832 319 832 406 q 783 147 832 219 q 648 34 733 75 q 456 -14 563 -7 l 422 -72 q 494 -111 471 -85 q 517 -172 517 -137 q 456 -286 517 -247 q 310 -325 396 -325 q 160 -296 232 -325 l 221 -179 q 290 -193 256 -193 q 337 -183 318 -193 q 356 -158 356 -174 q 335 -135 356 -144 q 285 -126 315 -126 l 251 -126 l 313 -8 q 128 44 217 6 q -24 142 40 83 l 94 342 q 258 234 161 276 q 432 192 354 192 q 528 215 493 192 q 563 282 563 238 q 540 333 563 313 q 485 365 518 353 q 389 397 451 378 q 240 449 299 422 q 140 526 182 475 q 99 661 99 578 q 151 835 99 761 q 299 951 204 910 q 519 992 394 992 q 724 962 624 992 q 897 882 824 932 l 779 679 q 623 755 708 725 q 478 785 538 785 q 400 767 429 785 q 368 714 371 749 z "},"Ŝ":{"ha":882,"x_min":-24,"x_max":897,"o":"m 519 992 q 724 962 624 992 q 897 882 824 932 l 779 679 q 623 755 708 725 q 478 785 538 785 q 400 767 429 785 q 368 714 371 749 q 408 646 367 669 q 539 594 449 622 q 688 540 629 567 q 790 459 747 513 q 832 319 832 406 q 776 137 832 213 q 623 23 719 61 q 410 -15 526 -15 q 172 26 288 -15 q -24 142 57 68 l 94 342 q 258 234 161 276 q 432 192 354 192 q 528 215 493 192 q 563 282 563 238 q 540 333 563 313 q 485 365 518 353 q 389 397 451 378 q 240 449 299 422 q 140 526 182 475 q 99 661 99 578 q 151 835 99 761 q 299 951 204 910 q 519 992 394 992 m 794 1051 l 617 1051 l 551 1144 l 450 1051 l 272 1051 l 465 1264 l 683 1264 l 794 1051 z "},"Ș":{"ha":882,"x_min":-24,"x_max":897,"o":"m 519 992 q 724 962 624 992 q 897 882 824 932 l 779 679 q 623 755 708 725 q 478 785 538 785 q 400 767 429 785 q 368 714 371 749 q 408 646 367 669 q 539 594 449 622 q 688 540 629 567 q 790 459 747 513 q 832 319 832 406 q 776 137 832 213 q 623 23 719 61 q 410 -15 526 -15 q 172 26 288 -15 q -24 142 57 68 l 94 342 q 258 234 161 276 q 432 192 354 192 q 528 215 493 192 q 563 282 563 238 q 540 333 563 313 q 485 365 518 353 q 389 397 451 378 q 240 449 299 422 q 140 526 182 475 q 99 661 99 578 q 151 835 99 761 q 299 951 204 910 q 519 992 394 992 m 269 -83 l 472 -83 l 328 -325 l 183 -325 l 269 -83 z "},"Ṡ":{"ha":882,"x_min":-24,"x_max":897,"o":"m 519 992 q 724 962 624 992 q 897 882 824 932 l 779 679 q 623 755 708 725 q 478 785 538 785 q 400 767 429 785 q 368 714 371 749 q 408 646 367 669 q 539 594 449 622 q 688 540 629 567 q 790 459 747 513 q 832 319 832 406 q 776 137 832 213 q 623 23 719 61 q 410 -15 526 -15 q 172 26 288 -15 q -24 142 57 68 l 94 342 q 258 234 161 276 q 432 192 354 192 q 528 215 493 192 q 563 282 563 238 q 540 333 563 313 q 485 365 518 353 q 389 397 451 378 q 240 449 299 422 q 140 526 182 475 q 99 661 99 578 q 151 835 99 761 q 299 951 204 910 q 519 992 394 992 m 585 1313 q 664 1283 635 1313 q 693 1204 693 1253 q 647 1094 693 1139 q 533 1049 600 1049 q 456 1078 485 1049 q 426 1157 426 1108 q 473 1267 426 1222 q 585 1313 519 1313 z "},"Ṣ":{"ha":882,"x_min":-24,"x_max":897,"o":"m 519 992 q 724 962 624 992 q 897 882 824 932 l 779 679 q 623 755 708 725 q 478 785 538 785 q 400 767 429 785 q 368 714 371 749 q 408 646 367 669 q 539 594 449 622 q 688 540 629 567 q 790 459 747 513 q 832 319 832 406 q 776 137 832 213 q 623 23 719 61 q 410 -15 526 -15 q 172 26 288 -15 q -24 142 57 68 l 94 342 q 258 234 161 276 q 432 192 354 192 q 528 215 493 192 q 563 282 563 238 q 540 333 563 313 q 485 365 518 353 q 389 397 451 378 q 240 449 299 422 q 140 526 182 475 q 99 661 99 578 q 151 835 99 761 q 299 951 204 910 q 519 992 394 992 m 369 -94 q 449 -124 419 -94 q 478 -203 478 -154 q 431 -313 478 -268 q 318 -358 385 -358 q 240 -328 269 -358 q 211 -250 211 -299 q 258 -140 211 -185 q 369 -94 304 -94 z "},"Ṩ":{"ha":882,"x_min":-24,"x_max":897,"o":"m 519 992 q 724 962 624 992 q 897 882 824 932 l 779 679 q 623 755 708 725 q 478 785 538 785 q 400 767 429 785 q 368 714 371 749 q 408 646 367 669 q 539 594 449 622 q 688 540 629 567 q 790 459 747 513 q 832 319 832 406 q 776 137 832 213 q 623 23 719 61 q 410 -15 526 -15 q 172 26 288 -15 q -24 142 57 68 l 94 342 q 258 234 161 276 q 432 192 354 192 q 528 215 493 192 q 563 282 563 238 q 540 333 563 313 q 485 365 518 353 q 389 397 451 378 q 240 449 299 422 q 140 526 182 475 q 99 661 99 578 q 151 835 99 761 q 299 951 204 910 q 519 992 394 992 m 369 -94 q 449 -124 419 -94 q 478 -203 478 -154 q 431 -313 478 -268 q 318 -358 385 -358 q 240 -328 269 -358 q 211 -250 211 -299 q 258 -140 211 -185 q 369 -94 304 -94 m 603 1313 q 682 1283 653 1313 q 711 1204 711 1253 q 665 1094 711 1139 q 551 1049 618 1049 q 474 1078 503 1049 q 444 1157 444 1108 q 491 1267 444 1222 q 603 1313 538 1313 z "},"ẞ":{"ha":1007,"x_min":7,"x_max":981,"o":"m 796 550 q 910 474 871 526 q 950 346 950 421 q 897 166 950 244 q 747 44 844 88 q 518 0 649 0 l 404 0 l 442 197 l 522 197 q 642 233 597 197 q 688 329 688 269 q 656 392 688 369 q 567 414 625 414 l 526 414 l 557 569 l 750 757 q 636 776 703 776 q 459 715 531 776 q 367 546 388 654 l 260 0 l 7 0 l 110 529 q 296 865 151 744 q 657 985 440 985 q 981 883 853 985 l 946 699 l 796 550 z "},"Ə":{"ha":1094,"x_min":64,"x_max":1085,"o":"m 619 989 q 860 931 754 989 q 1026 769 967 872 q 1085 536 1085 667 q 1010 256 1085 383 q 809 56 936 129 q 531 -18 682 -18 q 283 43 389 -18 q 121 216 178 104 q 64 475 64 328 q 67 543 64 496 l 826 543 q 758 708 819 643 q 604 774 697 774 q 472 740 535 774 q 368 646 410 706 l 207 825 q 392 947 288 904 q 619 989 496 989 m 551 199 q 703 248 635 199 q 803 381 771 297 l 329 381 q 406 248 347 297 q 551 199 465 199 z "},"T":{"ha":854,"x_min":88,"x_max":964,"o":"m 964 974 l 922 764 l 632 764 l 478 0 l 224 0 l 378 764 l 88 764 l 129 974 l 964 974 z "},"Ŧ":{"ha":854,"x_min":88,"x_max":964,"o":"m 922 764 l 632 764 l 579 501 l 754 501 l 728 365 l 551 365 l 478 0 l 224 0 l 297 365 l 119 365 l 146 501 l 325 501 l 378 764 l 88 764 l 129 974 l 964 974 l 922 764 z "},"Ť":{"ha":854,"x_min":88,"x_max":964,"o":"m 964 974 l 922 764 l 632 764 l 478 0 l 224 0 l 378 764 l 88 764 l 129 974 l 964 974 m 703 1263 l 881 1263 l 688 1050 l 469 1050 l 358 1263 l 536 1263 l 601 1169 l 703 1263 z "},"Ţ":{"ha":854,"x_min":88,"x_max":964,"o":"m 428 0 l 386 -72 q 458 -111 435 -85 q 481 -172 481 -137 q 420 -286 481 -247 q 274 -325 360 -325 q 124 -296 196 -325 l 185 -179 q 254 -193 219 -193 q 301 -183 282 -193 q 319 -158 319 -174 q 299 -135 319 -144 q 249 -126 279 -126 l 215 -126 l 281 0 l 224 0 l 378 764 l 88 764 l 129 974 l 964 974 l 922 764 l 632 764 l 478 0 l 428 0 z "},"Ț":{"ha":854,"x_min":88,"x_max":964,"o":"m 964 974 l 922 764 l 632 764 l 478 0 l 224 0 l 378 764 l 88 764 l 129 974 l 964 974 m 233 -83 l 436 -83 l 292 -325 l 147 -325 l 233 -83 z "},"Ṭ":{"ha":854,"x_min":88,"x_max":964,"o":"m 964 974 l 922 764 l 632 764 l 478 0 l 224 0 l 378 764 l 88 764 l 129 974 l 964 974 m 333 -94 q 413 -124 383 -94 q 442 -203 442 -154 q 395 -313 442 -268 q 282 -358 349 -358 q 204 -328 233 -358 q 175 -250 175 -299 q 222 -140 175 -185 q 333 -94 268 -94 z "},"Ṯ":{"ha":854,"x_min":88,"x_max":964,"o":"m 964 974 l 922 764 l 632 764 l 478 0 l 224 0 l 378 764 l 88 764 l 129 974 l 964 974 m 136 -107 l 526 -107 l 499 -253 l 108 -253 l 136 -107 z "},"U":{"ha":1053,"x_min":75,"x_max":1094,"o":"m 982 408 q 807 101 943 214 q 467 -11 671 -11 q 259 28 347 -11 q 123 142 171 68 q 75 315 75 215 q 85 408 75 364 l 199 974 l 451 974 l 339 408 q 333 358 333 385 q 377 247 333 288 q 496 206 421 206 q 644 260 581 206 q 728 408 708 315 l 840 974 l 1094 974 l 982 408 z "},"Ú":{"ha":1053,"x_min":75,"x_max":1094,"o":"m 982 408 q 807 101 943 214 q 467 -11 671 -11 q 259 28 347 -11 q 123 142 171 68 q 75 315 75 215 q 85 408 75 364 l 199 974 l 451 974 l 339 408 q 333 358 333 385 q 377 247 333 288 q 496 206 421 206 q 644 260 581 206 q 728 408 708 315 l 840 974 l 1094 974 l 982 408 m 704 1281 l 908 1203 l 707 1043 l 538 1057 l 704 1281 z "},"Ŭ":{"ha":1053,"x_min":75,"x_max":1094,"o":"m 982 408 q 807 101 943 214 q 467 -11 671 -11 q 259 28 347 -11 q 123 142 171 68 q 75 315 75 215 q 85 408 75 364 l 199 974 l 451 974 l 339 408 q 333 358 333 385 q 377 247 333 288 q 496 206 421 206 q 644 260 581 206 q 728 408 708 315 l 840 974 l 1094 974 l 982 408 m 625 1268 q 638 1211 621 1233 q 686 1189 654 1189 q 743 1210 718 1189 q 778 1268 768 1232 l 932 1268 q 833 1106 908 1167 q 658 1044 758 1044 q 520 1093 571 1044 q 469 1225 469 1142 q 472 1268 469 1253 l 625 1268 z "},"Û":{"ha":1053,"x_min":75,"x_max":1094,"o":"m 982 408 q 807 101 943 214 q 467 -11 671 -11 q 259 28 347 -11 q 123 142 171 68 q 75 315 75 215 q 85 408 75 364 l 199 974 l 451 974 l 339 408 q 333 358 333 385 q 377 247 333 288 q 496 206 421 206 q 644 260 581 206 q 728 408 708 315 l 840 974 l 1094 974 l 982 408 m 921 1051 l 743 1051 l 678 1144 l 576 1051 l 399 1051 l 592 1264 l 810 1264 l 921 1051 z "},"Ȕ":{"ha":1053,"x_min":75,"x_max":1094,"o":"m 982 408 q 807 101 943 214 q 467 -11 671 -11 q 259 28 347 -11 q 123 142 171 68 q 75 315 75 215 q 85 408 75 364 l 199 974 l 451 974 l 339 408 q 333 358 333 385 q 377 247 333 288 q 496 206 421 206 q 644 260 581 206 q 728 408 708 315 l 840 974 l 1094 974 l 982 408 m 565 1282 l 633 1053 l 457 1040 l 365 1213 l 565 1282 m 839 1282 l 907 1053 l 731 1040 l 639 1213 l 839 1282 z "},"Ü":{"ha":1053,"x_min":75,"x_max":1094,"o":"m 982 408 q 807 101 943 214 q 467 -11 671 -11 q 259 28 347 -11 q 123 142 171 68 q 75 315 75 215 q 85 408 75 364 l 199 974 l 451 974 l 339 408 q 333 358 333 385 q 377 247 333 288 q 496 206 421 206 q 644 260 581 206 q 728 408 708 315 l 840 974 l 1094 974 l 982 408 m 569 1263 q 633 1238 610 1263 q 657 1174 657 1214 q 619 1085 657 1122 q 528 1047 581 1047 q 465 1072 489 1047 q 440 1136 440 1097 q 478 1226 440 1189 q 569 1263 517 1263 m 836 1263 q 899 1238 875 1263 q 922 1174 922 1214 q 885 1085 922 1122 q 794 1047 847 1047 q 731 1072 754 1047 q 707 1136 707 1097 q 745 1226 707 1189 q 836 1263 783 1263 z "},"Ụ":{"ha":1053,"x_min":75,"x_max":1094,"o":"m 982 408 q 807 101 943 214 q 467 -11 671 -11 q 259 28 347 -11 q 123 142 171 68 q 75 315 75 215 q 85 408 75 364 l 199 974 l 451 974 l 339 408 q 333 358 333 385 q 377 247 333 288 q 496 206 421 206 q 644 260 581 206 q 728 408 708 315 l 840 974 l 1094 974 l 982 408 m 433 -94 q 513 -124 483 -94 q 542 -203 542 -154 q 495 -313 542 -268 q 382 -358 449 -358 q 304 -328 333 -358 q 275 -250 275 -299 q 322 -140 275 -185 q 433 -94 368 -94 z "},"Ù":{"ha":1053,"x_min":75,"x_max":1094,"o":"m 982 408 q 807 101 943 214 q 467 -11 671 -11 q 259 28 347 -11 q 123 142 171 68 q 75 315 75 215 q 85 408 75 364 l 199 974 l 451 974 l 339 408 q 333 358 333 385 q 377 247 333 288 q 496 206 421 206 q 644 260 581 206 q 728 408 708 315 l 840 974 l 1094 974 l 982 408 m 656 1281 l 803 1057 l 633 1043 l 451 1203 l 656 1281 z "},"Ủ":{"ha":1053,"x_min":75,"x_max":1094,"o":"m 982 408 q 807 101 943 214 q 467 -11 671 -11 q 259 28 347 -11 q 123 142 171 68 q 75 315 75 215 q 85 408 75 364 l 199 974 l 451 974 l 339 408 q 333 358 333 385 q 377 247 333 288 q 496 206 421 206 q 644 260 581 206 q 728 408 708 315 l 840 974 l 1094 974 l 982 408 m 729 1354 q 827 1325 792 1354 q 863 1246 863 1296 q 701 1029 863 1143 l 600 1075 q 661 1135 639 1104 q 683 1189 683 1167 q 674 1211 683 1203 q 651 1219 665 1219 q 596 1200 624 1219 l 551 1301 q 729 1354 642 1354 z "},"Ư":{"ha":1160,"x_min":75,"x_max":1286,"o":"m 1276 1181 q 1286 1097 1286 1140 q 1231 938 1286 1001 q 1071 853 1175 875 l 982 408 q 807 101 943 214 q 467 -11 671 -11 q 259 28 347 -11 q 123 142 171 68 q 75 315 75 215 q 85 408 75 364 l 199 974 l 451 974 l 339 408 q 333 358 333 385 q 377 247 333 288 q 496 206 421 206 q 644 260 581 206 q 728 408 708 315 l 840 974 l 1006 974 q 1076 1000 1053 974 q 1100 1065 1100 1026 q 1090 1115 1100 1094 l 1276 1181 z "},"Ứ":{"ha":1160,"x_min":75,"x_max":1286,"o":"m 1276 1181 q 1286 1097 1286 1140 q 1231 938 1286 1001 q 1071 853 1175 875 l 982 408 q 807 101 943 214 q 467 -11 671 -11 q 259 28 347 -11 q 123 142 171 68 q 75 315 75 215 q 85 408 75 364 l 199 974 l 451 974 l 339 408 q 333 358 333 385 q 377 247 333 288 q 496 206 421 206 q 644 260 581 206 q 728 408 708 315 l 840 974 l 1006 974 q 1076 1000 1053 974 q 1100 1065 1100 1026 q 1090 1115 1100 1094 l 1276 1181 m 704 1281 l 908 1203 l 707 1043 l 538 1057 l 704 1281 z "},"Ự":{"ha":1160,"x_min":75,"x_max":1286,"o":"m 1276 1181 q 1286 1097 1286 1140 q 1231 938 1286 1001 q 1071 853 1175 875 l 982 408 q 807 101 943 214 q 467 -11 671 -11 q 259 28 347 -11 q 123 142 171 68 q 75 315 75 215 q 85 408 75 364 l 199 974 l 451 974 l 339 408 q 333 358 333 385 q 377 247 333 288 q 496 206 421 206 q 644 260 581 206 q 728 408 708 315 l 840 974 l 1006 974 q 1076 1000 1053 974 q 1100 1065 1100 1026 q 1090 1115 1100 1094 l 1276 1181 m 433 -94 q 513 -124 483 -94 q 542 -203 542 -154 q 495 -313 542 -268 q 382 -358 449 -358 q 304 -328 333 -358 q 275 -250 275 -299 q 322 -140 275 -185 q 433 -94 368 -94 z "},"Ừ":{"ha":1160,"x_min":75,"x_max":1286,"o":"m 1276 1181 q 1286 1097 1286 1140 q 1231 938 1286 1001 q 1071 853 1175 875 l 982 408 q 807 101 943 214 q 467 -11 671 -11 q 259 28 347 -11 q 123 142 171 68 q 75 315 75 215 q 85 408 75 364 l 199 974 l 451 974 l 339 408 q 333 358 333 385 q 377 247 333 288 q 496 206 421 206 q 644 260 581 206 q 728 408 708 315 l 840 974 l 1006 974 q 1076 1000 1053 974 q 1100 1065 1100 1026 q 1090 1115 1100 1094 l 1276 1181 m 656 1281 l 803 1057 l 633 1043 l 451 1203 l 656 1281 z "},"Ử":{"ha":1160,"x_min":75,"x_max":1286,"o":"m 1276 1181 q 1286 1097 1286 1140 q 1231 938 1286 1001 q 1071 853 1175 875 l 982 408 q 807 101 943 214 q 467 -11 671 -11 q 259 28 347 -11 q 123 142 171 68 q 75 315 75 215 q 85 408 75 364 l 199 974 l 451 974 l 339 408 q 333 358 333 385 q 377 247 333 288 q 496 206 421 206 q 644 260 581 206 q 728 408 708 315 l 840 974 l 1006 974 q 1076 1000 1053 974 q 1100 1065 1100 1026 q 1090 1115 1100 1094 l 1276 1181 m 729 1354 q 827 1325 792 1354 q 863 1246 863 1296 q 701 1029 863 1143 l 600 1075 q 661 1135 639 1104 q 683 1189 683 1167 q 674 1211 683 1203 q 651 1219 665 1219 q 596 1200 624 1219 l 551 1301 q 729 1354 642 1354 z "},"Ữ":{"ha":1160,"x_min":75,"x_max":1286,"o":"m 1276 1181 q 1286 1097 1286 1140 q 1231 938 1286 1001 q 1071 853 1175 875 l 982 408 q 807 101 943 214 q 467 -11 671 -11 q 259 28 347 -11 q 123 142 171 68 q 75 315 75 215 q 85 408 75 364 l 199 974 l 451 974 l 339 408 q 333 358 333 385 q 377 247 333 288 q 496 206 421 206 q 644 260 581 206 q 728 408 708 315 l 840 974 l 1006 974 q 1076 1000 1053 974 q 1100 1065 1100 1026 q 1090 1115 1100 1094 l 1276 1181 m 958 1267 q 894 1102 936 1157 q 781 1047 853 1047 q 722 1058 749 1047 q 664 1088 696 1068 q 641 1100 660 1090 q 608 1110 622 1110 q 558 1051 569 1110 l 418 1051 q 483 1216 440 1160 q 597 1272 526 1272 q 656 1262 629 1272 q 714 1232 682 1251 q 769 1210 753 1210 q 819 1267 808 1210 l 958 1267 z "},"Ű":{"ha":1053,"x_min":75,"x_max":1094,"o":"m 982 408 q 807 101 943 214 q 467 -11 671 -11 q 259 28 347 -11 q 123 142 171 68 q 75 315 75 215 q 85 408 75 364 l 199 974 l 451 974 l 339 408 q 333 358 333 385 q 377 247 333 288 q 496 206 421 206 q 644 260 581 206 q 728 408 708 315 l 840 974 l 1094 974 l 982 408 m 546 1285 l 718 1215 l 590 1043 l 419 1056 l 546 1285 m 819 1285 l 992 1215 l 864 1043 l 693 1056 l 819 1285 z "},"Ȗ":{"ha":1053,"x_min":75,"x_max":1094,"o":"m 982 408 q 807 101 943 214 q 467 -11 671 -11 q 259 28 347 -11 q 123 142 171 68 q 75 315 75 215 q 85 408 75 364 l 199 974 l 451 974 l 339 408 q 333 358 333 385 q 377 247 333 288 q 496 206 421 206 q 644 260 581 206 q 728 408 708 315 l 840 974 l 1094 974 l 982 408 m 738 1050 q 725 1107 742 1085 q 676 1129 708 1129 q 619 1108 644 1129 q 585 1050 594 1086 l 431 1050 q 529 1213 454 1151 q 704 1274 604 1274 q 842 1225 792 1274 q 893 1093 893 1176 q 890 1050 893 1065 l 738 1050 z "},"Ū":{"ha":1053,"x_min":75,"x_max":1094,"o":"m 982 408 q 807 101 943 214 q 467 -11 671 -11 q 259 28 347 -11 q 123 142 171 68 q 75 315 75 215 q 85 408 75 364 l 199 974 l 451 974 l 339 408 q 333 358 333 385 q 377 247 333 288 q 496 206 421 206 q 644 260 581 206 q 728 408 708 315 l 840 974 l 1094 974 l 982 408 m 460 1200 l 921 1200 l 892 1054 l 431 1054 l 460 1200 z "},"Ṻ":{"ha":1053,"x_min":75,"x_max":1094,"o":"m 982 408 q 807 101 943 214 q 467 -11 671 -11 q 259 28 347 -11 q 123 142 171 68 q 75 315 75 215 q 85 408 75 364 l 199 974 l 451 974 l 339 408 q 333 358 333 385 q 377 247 333 288 q 496 206 421 206 q 644 260 581 206 q 728 408 708 315 l 840 974 l 1094 974 l 982 408 z "},"Ų":{"ha":1053,"x_min":75,"x_max":1094,"o":"m 1094 974 l 982 408 q 904 213 960 299 q 765 72 849 126 q 656 -43 699 17 q 614 -143 614 -103 q 639 -172 614 -172 q 681 -161 658 -172 l 694 -293 q 556 -324 617 -324 q 460 -294 496 -324 q 424 -206 424 -264 q 449 -106 424 -153 q 531 -8 475 -58 q 467 -11 489 -11 q 259 28 347 -11 q 123 142 171 68 q 75 315 75 215 q 85 408 75 364 l 199 974 l 451 974 l 339 408 q 333 358 333 385 q 377 247 333 288 q 496 206 421 206 q 644 260 581 206 q 728 408 708 315 l 840 974 l 1094 974 z "},"Ů":{"ha":1053,"x_min":75,"x_max":1094,"o":"m 982 408 q 807 101 943 214 q 467 -11 671 -11 q 259 28 347 -11 q 123 142 171 68 q 75 315 75 215 q 85 408 75 364 l 199 974 l 451 974 l 339 408 q 333 358 333 385 q 377 247 333 288 q 496 206 421 206 q 644 260 581 206 q 728 408 708 315 l 840 974 l 1094 974 l 982 408 m 706 1354 q 810 1313 769 1354 q 851 1208 851 1271 q 826 1118 851 1160 q 758 1051 800 1076 q 667 1026 715 1026 q 563 1067 604 1026 q 521 1169 521 1108 q 547 1261 521 1218 q 615 1329 572 1304 q 706 1354 658 1354 m 693 1250 q 645 1229 665 1250 q 625 1181 625 1208 q 640 1144 625 1158 q 679 1129 656 1129 q 726 1150 706 1129 q 747 1197 747 1171 q 732 1235 747 1219 q 693 1250 717 1250 z "},"Ũ":{"ha":1053,"x_min":75,"x_max":1094,"o":"m 982 408 q 807 101 943 214 q 467 -11 671 -11 q 259 28 347 -11 q 123 142 171 68 q 75 315 75 215 q 85 408 75 364 l 199 974 l 451 974 l 339 408 q 333 358 333 385 q 377 247 333 288 q 496 206 421 206 q 644 260 581 206 q 728 408 708 315 l 840 974 l 1094 974 l 982 408 m 958 1267 q 894 1102 936 1157 q 781 1047 853 1047 q 722 1058 749 1047 q 664 1088 696 1068 q 641 1100 660 1090 q 608 1110 622 1110 q 558 1051 569 1110 l 418 1051 q 483 1216 440 1160 q 597 1272 526 1272 q 656 1262 629 1272 q 714 1232 682 1251 q 769 1210 753 1210 q 819 1267 808 1210 l 958 1267 z "},"Ṹ":{"ha":1053,"x_min":75,"x_max":1094,"o":"m 982 408 q 807 101 943 214 q 467 -11 671 -11 q 259 28 347 -11 q 123 142 171 68 q 75 315 75 215 q 85 408 75 364 l 199 974 l 451 974 l 339 408 q 333 358 333 385 q 377 247 333 288 q 496 206 421 206 q 644 260 581 206 q 728 408 708 315 l 840 974 l 1094 974 l 982 408 m 986 1235 q 928 1095 968 1142 q 817 1049 888 1049 q 753 1058 782 1049 q 689 1085 725 1068 q 625 1107 644 1107 q 590 1093 601 1107 q 572 1051 578 1079 l 456 1051 q 513 1191 474 1143 q 624 1239 553 1239 q 687 1230 658 1239 q 756 1203 715 1221 q 788 1188 772 1194 q 815 1182 804 1182 q 851 1195 839 1182 q 868 1235 863 1208 l 986 1235 m 814 1511 l 982 1410 l 761 1292 l 615 1331 l 814 1511 z "},"V":{"ha":1017,"x_min":117,"x_max":1139,"o":"m 878 974 l 1139 974 l 597 0 l 333 0 l 117 974 l 389 974 l 515 265 l 878 974 z "},"W":{"ha":1507,"x_min":117,"x_max":1636,"o":"m 1375 974 l 1636 974 l 1154 0 l 892 0 l 826 665 l 536 0 l 275 0 l 117 974 l 389 974 l 457 265 l 758 972 l 1007 974 l 1075 265 l 1375 974 z "},"Ẃ":{"ha":1507,"x_min":117,"x_max":1636,"o":"m 1375 974 l 1636 974 l 1154 0 l 892 0 l 826 665 l 536 0 l 275 0 l 117 974 l 389 974 l 457 265 l 758 972 l 1007 974 l 1075 265 l 1375 974 m 890 1281 l 1094 1203 l 893 1043 l 724 1057 l 890 1281 z "},"Ŵ":{"ha":1507,"x_min":117,"x_max":1636,"o":"m 1375 974 l 1636 974 l 1154 0 l 892 0 l 826 665 l 536 0 l 275 0 l 117 974 l 389 974 l 457 265 l 758 972 l 1007 974 l 1075 265 l 1375 974 m 1107 1051 l 929 1051 l 864 1144 l 763 1051 l 585 1051 l 778 1264 l 996 1264 l 1107 1051 z "},"Ẅ":{"ha":1507,"x_min":117,"x_max":1636,"o":"m 1375 974 l 1636 974 l 1154 0 l 892 0 l 826 665 l 536 0 l 275 0 l 117 974 l 389 974 l 457 265 l 758 972 l 1007 974 l 1075 265 l 1375 974 m 756 1263 q 819 1238 796 1263 q 843 1174 843 1214 q 805 1085 843 1122 q 714 1047 767 1047 q 651 1072 675 1047 q 626 1136 626 1097 q 665 1226 626 1189 q 756 1263 703 1263 m 1022 1263 q 1085 1238 1061 1263 q 1108 1174 1108 1214 q 1071 1085 1108 1122 q 981 1047 1033 1047 q 917 1072 940 1047 q 893 1136 893 1097 q 931 1226 893 1189 q 1022 1263 969 1263 z "},"Ẁ":{"ha":1507,"x_min":117,"x_max":1636,"o":"m 1375 974 l 1636 974 l 1154 0 l 892 0 l 826 665 l 536 0 l 275 0 l 117 974 l 389 974 l 457 265 l 758 972 l 1007 974 l 1075 265 l 1375 974 m 842 1281 l 989 1057 l 819 1043 l 638 1203 l 842 1281 z "},"X":{"ha":1038,"x_min":-58,"x_max":1086,"o":"m 1086 974 l 688 508 l 954 0 l 649 0 l 493 301 l 239 0 l -58 0 l 369 496 l 124 974 l 421 974 l 557 697 l 786 974 l 1086 974 z "},"Y":{"ha":950,"x_min":113,"x_max":1076,"o":"m 1076 974 l 615 313 l 564 0 l 310 0 l 360 311 l 113 974 l 367 974 l 528 553 l 822 974 l 1076 974 z "},"Ý":{"ha":950,"x_min":113,"x_max":1076,"o":"m 1076 974 l 615 313 l 564 0 l 310 0 l 360 311 l 113 974 l 367 974 l 528 553 l 822 974 l 1076 974 m 653 1281 l 857 1203 l 656 1043 l 486 1057 l 653 1281 z "},"Ŷ":{"ha":950,"x_min":113,"x_max":1076,"o":"m 1076 974 l 615 313 l 564 0 l 310 0 l 360 311 l 113 974 l 367 974 l 528 553 l 822 974 l 1076 974 m 869 1051 l 692 1051 l 626 1144 l 525 1051 l 347 1051 l 540 1264 l 758 1264 l 869 1051 z "},"Ÿ":{"ha":950,"x_min":113,"x_max":1076,"o":"m 1076 974 l 615 313 l 564 0 l 310 0 l 360 311 l 113 974 l 367 974 l 528 553 l 822 974 l 1076 974 m 518 1263 q 582 1238 558 1263 q 606 1174 606 1214 q 567 1085 606 1122 q 476 1047 529 1047 q 413 1072 438 1047 q 389 1136 389 1097 q 427 1226 389 1189 q 518 1263 465 1263 m 785 1263 q 847 1238 824 1263 q 871 1174 871 1214 q 833 1085 871 1122 q 743 1047 796 1047 q 679 1072 703 1047 q 656 1136 656 1097 q 694 1226 656 1189 q 785 1263 732 1263 z "},"Ẏ":{"ha":950,"x_min":113,"x_max":1076,"o":"m 1076 974 l 615 313 l 564 0 l 310 0 l 360 311 l 113 974 l 367 974 l 528 553 l 822 974 l 1076 974 m 660 1313 q 739 1283 710 1313 q 768 1204 768 1253 q 722 1094 768 1139 q 608 1049 675 1049 q 531 1078 560 1049 q 501 1157 501 1108 q 548 1267 501 1222 q 660 1313 594 1313 z "},"Ỵ":{"ha":950,"x_min":113,"x_max":1076,"o":"m 1076 974 l 615 313 l 564 0 l 310 0 l 360 311 l 113 974 l 367 974 l 528 553 l 822 974 l 1076 974 m 424 -94 q 503 -124 474 -94 q 532 -203 532 -154 q 485 -313 532 -268 q 372 -358 439 -358 q 294 -328 324 -358 q 265 -250 265 -299 q 312 -140 265 -185 q 424 -94 358 -94 z "},"Ỳ":{"ha":950,"x_min":113,"x_max":1076,"o":"m 1076 974 l 615 313 l 564 0 l 310 0 l 360 311 l 113 974 l 367 974 l 528 553 l 822 974 l 1076 974 m 604 1281 l 751 1057 l 582 1043 l 400 1203 l 604 1281 z "},"Ỷ":{"ha":950,"x_min":113,"x_max":1076,"o":"m 1076 974 l 615 313 l 564 0 l 310 0 l 360 311 l 113 974 l 367 974 l 528 553 l 822 974 l 1076 974 m 678 1354 q 776 1325 740 1354 q 811 1246 811 1296 q 650 1029 811 1143 l 549 1075 q 610 1135 588 1104 q 632 1189 632 1167 q 623 1211 632 1203 q 600 1219 614 1219 q 544 1200 572 1219 l 500 1301 q 678 1354 590 1354 z "},"Ȳ":{"ha":950,"x_min":113,"x_max":1076,"o":"m 1076 974 l 615 313 l 564 0 l 310 0 l 360 311 l 113 974 l 367 974 l 528 553 l 822 974 l 1076 974 m 408 1200 l 869 1200 l 840 1054 l 379 1054 l 408 1200 z "},"Ỹ":{"ha":950,"x_min":113,"x_max":1076,"o":"m 1076 974 l 615 313 l 564 0 l 310 0 l 360 311 l 113 974 l 367 974 l 528 553 l 822 974 l 1076 974 m 907 1267 q 843 1102 885 1157 q 729 1047 801 1047 q 671 1058 697 1047 q 613 1088 644 1068 q 590 1100 608 1090 q 557 1110 571 1110 q 507 1051 518 1110 l 367 1051 q 432 1216 389 1160 q 546 1272 475 1272 q 604 1262 578 1272 q 663 1232 631 1251 q 718 1210 701 1210 q 768 1267 757 1210 l 907 1267 z "},"Z":{"ha":956,"x_min":-21,"x_max":993,"o":"m 993 974 l 967 808 l 354 204 l 875 204 l 842 0 l -21 0 l 6 165 l 619 768 l 125 768 l 157 974 l 993 974 z "},"Ź":{"ha":956,"x_min":-21,"x_max":993,"o":"m 993 974 l 967 808 l 354 204 l 875 204 l 842 0 l -21 0 l 6 165 l 619 768 l 125 768 l 157 974 l 993 974 m 642 1281 l 846 1203 l 644 1043 l 475 1057 l 642 1281 z "},"Ž":{"ha":956,"x_min":-21,"x_max":993,"o":"m 993 974 l 967 808 l 354 204 l 875 204 l 842 0 l -21 0 l 6 165 l 619 768 l 125 768 l 157 974 l 993 974 m 722 1263 l 900 1263 l 707 1050 l 489 1050 l 378 1263 l 556 1263 l 621 1169 l 722 1263 z "},"Ż":{"ha":956,"x_min":-21,"x_max":993,"o":"m 993 974 l 967 808 l 354 204 l 875 204 l 842 0 l -21 0 l 6 165 l 619 768 l 125 768 l 157 974 l 993 974 m 649 1313 q 728 1283 699 1313 q 757 1204 757 1253 q 710 1094 757 1139 q 597 1049 664 1049 q 519 1078 549 1049 q 490 1157 490 1108 q 537 1267 490 1222 q 649 1313 583 1313 z "},"Ẓ":{"ha":956,"x_min":-21,"x_max":993,"o":"m 993 974 l 967 808 l 354 204 l 875 204 l 842 0 l -21 0 l 6 165 l 619 768 l 125 768 l 157 974 l 993 974 m 418 -94 q 497 -124 468 -94 q 526 -203 526 -154 q 480 -313 526 -268 q 367 -358 433 -358 q 289 -328 318 -358 q 260 -250 260 -299 q 306 -140 260 -185 q 418 -94 353 -94 z "},"a":{"ha":953,"x_min":32,"x_max":932,"o":"m 324 -10 q 172 32 239 -10 q 69 149 106 74 q 32 321 32 224 q 84 543 32 443 q 227 701 136 643 q 428 760 318 760 q 661 626 597 760 l 686 751 l 932 751 l 783 0 l 536 0 l 554 89 q 324 -10 456 -10 m 419 181 q 515 210 471 181 q 585 289 560 239 q 611 399 611 339 q 573 512 611 469 q 471 554 535 554 q 376 524 419 554 q 306 444 332 494 q 281 336 281 394 q 319 223 281 265 q 419 181 357 181 z "},"á":{"ha":953,"x_min":32,"x_max":932,"o":"m 324 -10 q 172 32 239 -10 q 69 149 106 74 q 32 321 32 224 q 84 543 32 443 q 227 701 136 643 q 428 760 318 760 q 661 626 597 760 l 686 751 l 932 751 l 783 0 l 536 0 l 554 89 q 324 -10 456 -10 m 419 181 q 515 210 471 181 q 585 289 560 239 q 611 399 611 339 q 573 512 611 469 q 471 554 535 554 q 376 524 419 554 q 306 444 332 494 q 281 336 281 394 q 319 223 281 265 q 419 181 357 181 m 590 1069 l 794 992 l 593 832 l 424 846 l 590 1069 z "},"ă":{"ha":953,"x_min":32,"x_max":932,"o":"m 324 -10 q 172 32 239 -10 q 69 149 106 74 q 32 321 32 224 q 84 543 32 443 q 227 701 136 643 q 428 760 318 760 q 661 626 597 760 l 686 751 l 932 751 l 783 0 l 536 0 l 554 89 q 324 -10 456 -10 m 419 181 q 515 210 471 181 q 585 289 560 239 q 611 399 611 339 q 573 512 611 469 q 471 554 535 554 q 376 524 419 554 q 306 444 332 494 q 281 336 281 394 q 319 223 281 265 q 419 181 357 181 m 513 1057 q 525 1000 508 1022 q 574 978 542 978 q 631 999 606 978 q 665 1057 656 1021 l 819 1057 q 721 894 796 956 q 546 833 646 833 q 408 882 458 833 q 357 1014 357 931 q 360 1057 357 1042 l 513 1057 z "},"ắ":{"ha":953,"x_min":32,"x_max":932,"o":"m 324 -10 q 172 32 239 -10 q 69 149 106 74 q 32 321 32 224 q 84 543 32 443 q 227 701 136 643 q 428 760 318 760 q 661 626 597 760 l 686 751 l 932 751 l 783 0 l 536 0 l 554 89 q 324 -10 456 -10 m 419 181 q 515 210 471 181 q 585 289 560 239 q 611 399 611 339 q 573 512 611 469 q 471 554 535 554 q 376 524 419 554 q 306 444 332 494 q 281 336 281 394 q 319 223 281 265 q 419 181 357 181 m 500 1035 q 517 988 497 1006 q 572 969 538 969 q 634 988 607 969 q 669 1035 661 1006 l 817 1035 q 720 889 794 943 q 546 835 646 835 q 403 879 456 835 q 350 1001 350 924 q 353 1035 350 1013 l 500 1035 m 651 1268 l 819 1167 l 599 1049 l 453 1088 l 651 1268 z "},"ặ":{"ha":953,"x_min":32,"x_max":932,"o":"m 324 -10 q 172 32 239 -10 q 69 149 106 74 q 32 321 32 224 q 84 543 32 443 q 227 701 136 643 q 428 760 318 760 q 661 626 597 760 l 686 751 l 932 751 l 783 0 l 536 0 l 554 89 q 324 -10 456 -10 m 419 181 q 515 210 471 181 q 585 289 560 239 q 611 399 611 339 q 573 512 611 469 q 471 554 535 554 q 376 524 419 554 q 306 444 332 494 q 281 336 281 394 q 319 223 281 265 q 419 181 357 181 m 383 -94 q 463 -124 433 -94 q 492 -203 492 -154 q 445 -313 492 -268 q 332 -358 399 -358 q 254 -328 283 -358 q 225 -250 225 -299 q 272 -140 225 -185 q 383 -94 318 -94 m 493 1057 q 506 1000 489 1022 q 554 978 522 978 q 611 999 586 978 q 646 1057 636 1021 l 800 1057 q 701 894 776 956 q 526 833 626 833 q 388 882 439 833 q 338 1014 338 931 q 340 1057 338 1042 l 493 1057 z "},"ằ":{"ha":953,"x_min":32,"x_max":932,"o":"m 324 -10 q 172 32 239 -10 q 69 149 106 74 q 32 321 32 224 q 84 543 32 443 q 227 701 136 643 q 428 760 318 760 q 661 626 597 760 l 686 751 l 932 751 l 783 0 l 536 0 l 554 89 q 324 -10 456 -10 m 419 181 q 515 210 471 181 q 585 289 560 239 q 611 399 611 339 q 573 512 611 469 q 471 554 535 554 q 376 524 419 554 q 306 444 332 494 q 281 336 281 394 q 319 223 281 265 q 419 181 357 181 m 501 1035 q 519 988 499 1006 q 574 969 539 969 q 635 988 608 969 q 671 1035 663 1006 l 818 1035 q 722 889 796 943 q 547 835 647 835 q 404 879 457 835 q 351 1001 351 924 q 354 1035 351 1013 l 501 1035 m 519 1268 l 717 1088 l 571 1049 l 351 1167 l 519 1268 z "},"ẳ":{"ha":953,"x_min":32,"x_max":932,"o":"m 324 -10 q 172 32 239 -10 q 69 149 106 74 q 32 321 32 224 q 84 543 32 443 q 227 701 136 643 q 428 760 318 760 q 661 626 597 760 l 686 751 l 932 751 l 783 0 l 536 0 l 554 89 q 324 -10 456 -10 m 419 181 q 515 210 471 181 q 585 289 560 239 q 611 399 611 339 q 573 512 611 469 q 471 554 535 554 q 376 524 419 554 q 306 444 332 494 q 281 336 281 394 q 319 223 281 265 q 419 181 357 181 m 499 1035 q 516 988 496 1006 q 571 969 536 969 q 633 988 606 969 q 668 1035 660 1006 l 815 1035 q 719 889 793 943 q 544 835 644 835 q 401 879 454 835 q 349 1001 349 924 q 351 1035 349 1013 l 499 1035 m 628 1289 q 713 1265 685 1289 q 742 1204 742 1242 q 710 1124 742 1163 q 610 1046 678 1086 l 518 1085 q 582 1151 582 1124 q 556 1171 582 1171 q 510 1157 531 1171 l 468 1243 q 628 1289 553 1289 z "},"ẵ":{"ha":953,"x_min":32,"x_max":932,"o":"m 324 -10 q 172 32 239 -10 q 69 149 106 74 q 32 321 32 224 q 84 543 32 443 q 227 701 136 643 q 428 760 318 760 q 661 626 597 760 l 686 751 l 932 751 l 783 0 l 536 0 l 554 89 q 324 -10 456 -10 m 419 181 q 515 210 471 181 q 585 289 560 239 q 611 399 611 339 q 573 512 611 469 q 471 554 535 554 q 376 524 419 554 q 306 444 332 494 q 281 336 281 394 q 319 223 281 265 q 419 181 357 181 m 499 1035 q 516 988 496 1006 q 571 969 536 969 q 633 988 606 969 q 668 1035 660 1006 l 815 1035 q 719 889 793 943 q 544 835 644 835 q 401 879 454 835 q 349 1001 349 924 q 351 1035 349 1013 l 499 1035 m 865 1276 q 807 1137 847 1183 q 696 1090 767 1090 q 633 1100 661 1090 q 568 1126 604 1110 q 504 1149 524 1149 q 469 1135 481 1149 q 451 1093 457 1121 l 335 1093 q 392 1233 353 1185 q 503 1281 432 1281 q 566 1272 538 1281 q 635 1244 594 1263 q 667 1230 651 1236 q 694 1224 683 1224 q 730 1237 718 1224 q 747 1276 742 1250 l 865 1276 z "},"â":{"ha":953,"x_min":32,"x_max":932,"o":"m 324 -10 q 172 32 239 -10 q 69 149 106 74 q 32 321 32 224 q 84 543 32 443 q 227 701 136 643 q 428 760 318 760 q 661 626 597 760 l 686 751 l 932 751 l 783 0 l 536 0 l 554 89 q 324 -10 456 -10 m 419 181 q 515 210 471 181 q 585 289 560 239 q 611 399 611 339 q 573 512 611 469 q 471 554 535 554 q 376 524 419 554 q 306 444 332 494 q 281 336 281 394 q 319 223 281 265 q 419 181 357 181 m 811 847 l 633 847 l 568 940 l 467 847 l 289 847 l 482 1060 l 700 1060 l 811 847 z "},"ấ":{"ha":953,"x_min":32,"x_max":932,"o":"m 324 -10 q 172 32 239 -10 q 69 149 106 74 q 32 321 32 224 q 84 543 32 443 q 227 701 136 643 q 428 760 318 760 q 661 626 597 760 l 686 751 l 932 751 l 783 0 l 536 0 l 554 89 q 324 -10 456 -10 m 419 181 q 515 210 471 181 q 585 289 560 239 q 611 399 611 339 q 573 512 611 469 q 471 554 535 554 q 376 524 419 554 q 306 444 332 494 q 281 336 281 394 q 319 223 281 265 q 419 181 357 181 m 838 835 l 638 835 l 564 921 l 461 835 l 260 835 l 453 1006 l 703 1006 l 838 835 m 653 1269 l 821 1168 l 600 1050 l 454 1089 l 653 1269 z "},"ậ":{"ha":953,"x_min":32,"x_max":932,"o":"m 324 -10 q 172 32 239 -10 q 69 149 106 74 q 32 321 32 224 q 84 543 32 443 q 227 701 136 643 q 428 760 318 760 q 661 626 597 760 l 686 751 l 932 751 l 783 0 l 536 0 l 554 89 q 324 -10 456 -10 m 419 181 q 515 210 471 181 q 585 289 560 239 q 611 399 611 339 q 573 512 611 469 q 471 554 535 554 q 376 524 419 554 q 306 444 332 494 q 281 336 281 394 q 319 223 281 265 q 419 181 357 181 m 383 -94 q 463 -124 433 -94 q 492 -203 492 -154 q 445 -313 492 -268 q 332 -358 399 -358 q 254 -328 283 -358 q 225 -250 225 -299 q 272 -140 225 -185 q 383 -94 318 -94 m 790 847 l 613 847 l 547 940 l 446 847 l 268 847 l 461 1060 l 679 1060 l 790 847 z "},"ầ":{"ha":953,"x_min":32,"x_max":932,"o":"m 324 -10 q 172 32 239 -10 q 69 149 106 74 q 32 321 32 224 q 84 543 32 443 q 227 701 136 643 q 428 760 318 760 q 661 626 597 760 l 686 751 l 932 751 l 783 0 l 536 0 l 554 89 q 324 -10 456 -10 m 419 181 q 515 210 471 181 q 585 289 560 239 q 611 399 611 339 q 573 512 611 469 q 471 554 535 554 q 376 524 419 554 q 306 444 332 494 q 281 336 281 394 q 319 223 281 265 q 419 181 357 181 m 838 835 l 638 835 l 564 921 l 461 835 l 260 835 l 453 1006 l 703 1006 l 838 835 m 519 1269 l 717 1089 l 571 1050 l 351 1168 l 519 1269 z "},"ẩ":{"ha":953,"x_min":32,"x_max":932,"o":"m 324 -10 q 172 32 239 -10 q 69 149 106 74 q 32 321 32 224 q 84 543 32 443 q 227 701 136 643 q 428 760 318 760 q 661 626 597 760 l 686 751 l 932 751 l 783 0 l 536 0 l 554 89 q 324 -10 456 -10 m 419 181 q 515 210 471 181 q 585 289 560 239 q 611 399 611 339 q 573 512 611 469 q 471 554 535 554 q 376 524 419 554 q 306 444 332 494 q 281 336 281 394 q 319 223 281 265 q 419 181 357 181 m 836 835 l 636 835 l 563 921 l 460 835 l 258 835 l 451 1006 l 701 1006 l 836 835 m 629 1290 q 715 1267 686 1290 q 743 1206 743 1243 q 711 1126 743 1164 q 611 1047 679 1088 l 519 1086 q 583 1153 583 1125 q 557 1172 583 1172 q 511 1158 532 1172 l 469 1244 q 629 1290 554 1290 z "},"ẫ":{"ha":953,"x_min":32,"x_max":932,"o":"m 324 -10 q 172 32 239 -10 q 69 149 106 74 q 32 321 32 224 q 84 543 32 443 q 227 701 136 643 q 428 760 318 760 q 661 626 597 760 l 686 751 l 932 751 l 783 0 l 536 0 l 554 89 q 324 -10 456 -10 m 419 181 q 515 210 471 181 q 585 289 560 239 q 611 399 611 339 q 573 512 611 469 q 471 554 535 554 q 376 524 419 554 q 306 444 332 494 q 281 336 281 394 q 319 223 281 265 q 419 181 357 181 m 838 835 l 638 835 l 564 921 l 461 835 l 260 835 l 453 1006 l 703 1006 l 838 835 m 868 1240 q 810 1101 850 1147 q 699 1054 769 1054 q 635 1064 664 1054 q 571 1090 607 1074 q 507 1113 526 1113 q 472 1099 483 1113 q 454 1057 460 1085 l 338 1057 q 395 1197 356 1149 q 506 1244 435 1244 q 569 1235 540 1244 q 638 1208 597 1226 q 670 1194 654 1200 q 697 1188 686 1188 q 733 1201 721 1188 q 750 1240 744 1214 l 868 1240 z "},"ȁ":{"ha":953,"x_min":32,"x_max":932,"o":"m 324 -10 q 172 32 239 -10 q 69 149 106 74 q 32 321 32 224 q 84 543 32 443 q 227 701 136 643 q 428 760 318 760 q 661 626 597 760 l 686 751 l 932 751 l 783 0 l 536 0 l 554 89 q 324 -10 456 -10 m 419 181 q 515 210 471 181 q 585 289 560 239 q 611 399 611 339 q 573 512 611 469 q 471 554 535 554 q 376 524 419 554 q 306 444 332 494 q 281 336 281 394 q 319 223 281 265 q 419 181 357 181 m 453 1074 l 521 844 l 344 832 l 253 1004 l 453 1074 m 726 1074 l 794 844 l 618 832 l 526 1004 l 726 1074 z "},"ä":{"ha":953,"x_min":32,"x_max":932,"o":"m 324 -10 q 172 32 239 -10 q 69 149 106 74 q 32 321 32 224 q 84 543 32 443 q 227 701 136 643 q 428 760 318 760 q 661 626 597 760 l 686 751 l 932 751 l 783 0 l 536 0 l 554 89 q 324 -10 456 -10 m 419 181 q 515 210 471 181 q 585 289 560 239 q 611 399 611 339 q 573 512 611 469 q 471 554 535 554 q 376 524 419 554 q 306 444 332 494 q 281 336 281 394 q 319 223 281 265 q 419 181 357 181 m 458 1064 q 522 1040 499 1064 q 546 975 546 1015 q 508 886 546 924 q 417 849 469 849 q 353 874 378 849 q 329 938 329 899 q 367 1027 329 990 q 458 1064 406 1064 m 725 1064 q 788 1040 764 1064 q 811 975 811 1015 q 774 886 811 924 q 683 849 736 849 q 619 874 643 849 q 596 938 596 899 q 634 1027 596 990 q 725 1064 672 1064 z "},"ạ":{"ha":953,"x_min":32,"x_max":932,"o":"m 324 -10 q 172 32 239 -10 q 69 149 106 74 q 32 321 32 224 q 84 543 32 443 q 227 701 136 643 q 428 760 318 760 q 661 626 597 760 l 686 751 l 932 751 l 783 0 l 536 0 l 554 89 q 324 -10 456 -10 m 419 181 q 515 210 471 181 q 585 289 560 239 q 611 399 611 339 q 573 512 611 469 q 471 554 535 554 q 376 524 419 554 q 306 444 332 494 q 281 336 281 394 q 319 223 281 265 q 419 181 357 181 m 383 -94 q 463 -124 433 -94 q 492 -203 492 -154 q 445 -313 492 -268 q 332 -358 399 -358 q 254 -328 283 -358 q 225 -250 225 -299 q 272 -140 225 -185 q 383 -94 318 -94 z "},"à":{"ha":953,"x_min":32,"x_max":932,"o":"m 324 -10 q 172 32 239 -10 q 69 149 106 74 q 32 321 32 224 q 84 543 32 443 q 227 701 136 643 q 428 760 318 760 q 661 626 597 760 l 686 751 l 932 751 l 783 0 l 536 0 l 554 89 q 324 -10 456 -10 m 419 181 q 515 210 471 181 q 585 289 560 239 q 611 399 611 339 q 573 512 611 469 q 471 554 535 554 q 376 524 419 554 q 306 444 332 494 q 281 336 281 394 q 319 223 281 265 q 419 181 357 181 m 543 1069 l 690 846 l 521 832 l 339 992 l 543 1069 z "},"ả":{"ha":953,"x_min":32,"x_max":932,"o":"m 324 -10 q 172 32 239 -10 q 69 149 106 74 q 32 321 32 224 q 84 543 32 443 q 227 701 136 643 q 428 760 318 760 q 661 626 597 760 l 686 751 l 932 751 l 783 0 l 536 0 l 554 89 q 324 -10 456 -10 m 419 181 q 515 210 471 181 q 585 289 560 239 q 611 399 611 339 q 573 512 611 469 q 471 554 535 554 q 376 524 419 554 q 306 444 332 494 q 281 336 281 394 q 319 223 281 265 q 419 181 357 181 m 614 1133 q 712 1104 676 1133 q 747 1026 747 1075 q 705 917 747 972 q 586 810 663 863 l 485 856 q 546 915 524 885 q 568 968 568 946 q 560 990 568 982 q 536 999 551 999 q 481 979 510 999 l 436 1081 q 614 1133 526 1133 z "},"ȃ":{"ha":953,"x_min":32,"x_max":932,"o":"m 324 -10 q 172 32 239 -10 q 69 149 106 74 q 32 321 32 224 q 84 543 32 443 q 227 701 136 643 q 428 760 318 760 q 661 626 597 760 l 686 751 l 932 751 l 783 0 l 536 0 l 554 89 q 324 -10 456 -10 m 419 181 q 515 210 471 181 q 585 289 560 239 q 611 399 611 339 q 573 512 611 469 q 471 554 535 554 q 376 524 419 554 q 306 444 332 494 q 281 336 281 394 q 319 223 281 265 q 419 181 357 181 m 622 833 q 610 890 626 868 q 561 913 593 913 q 504 891 529 913 q 469 833 479 869 l 315 833 q 414 996 339 935 q 589 1057 489 1057 q 727 1008 676 1057 q 778 876 778 960 q 775 833 778 849 l 622 833 z "},"ā":{"ha":953,"x_min":32,"x_max":932,"o":"m 324 -10 q 172 32 239 -10 q 69 149 106 74 q 32 321 32 224 q 84 543 32 443 q 227 701 136 643 q 428 760 318 760 q 661 626 597 760 l 686 751 l 932 751 l 783 0 l 536 0 l 554 89 q 324 -10 456 -10 m 419 181 q 515 210 471 181 q 585 289 560 239 q 611 399 611 339 q 573 512 611 469 q 471 554 535 554 q 376 524 419 554 q 306 444 332 494 q 281 336 281 394 q 319 223 281 265 q 419 181 357 181 m 369 1033 l 799 1033 l 771 888 l 342 888 l 369 1033 z "},"ą":{"ha":953,"x_min":32,"x_max":932,"o":"m 932 751 l 783 0 l 738 0 q 637 -77 669 -43 q 604 -144 604 -111 q 629 -172 604 -172 q 671 -161 649 -172 l 685 -293 q 543 -324 607 -324 q 447 -292 481 -324 q 414 -206 414 -260 q 538 4 414 -96 l 554 89 q 324 -10 456 -10 q 172 32 239 -10 q 69 149 106 74 q 32 321 32 224 q 84 543 32 443 q 227 701 136 643 q 428 760 318 760 q 661 626 597 760 l 686 751 l 932 751 m 419 181 q 515 210 471 181 q 585 289 560 239 q 611 399 611 339 q 573 512 611 469 q 471 554 535 554 q 376 524 419 554 q 306 444 332 494 q 281 336 281 394 q 319 223 281 265 q 419 181 357 181 z "},"å":{"ha":953,"x_min":32,"x_max":932,"o":"m 324 -10 q 172 32 239 -10 q 69 149 106 74 q 32 321 32 224 q 84 543 32 443 q 227 701 136 643 q 428 760 318 760 q 661 626 597 760 l 686 751 l 932 751 l 783 0 l 536 0 l 554 89 q 324 -10 456 -10 m 419 181 q 515 210 471 181 q 585 289 560 239 q 611 399 611 339 q 573 512 611 469 q 471 554 535 554 q 376 524 419 554 q 306 444 332 494 q 281 336 281 394 q 319 223 281 265 q 419 181 357 181 m 590 1132 q 695 1090 654 1132 q 736 986 736 1049 q 710 896 736 938 q 642 829 685 854 q 551 804 600 804 q 447 845 489 804 q 406 947 406 886 q 431 1039 406 996 q 500 1107 457 1082 q 590 1132 543 1132 m 578 1028 q 530 1007 550 1028 q 510 958 510 986 q 525 922 510 936 q 564 907 540 907 q 611 928 590 907 q 632 975 632 949 q 617 1013 632 997 q 578 1028 601 1028 z "},"ǻ":{"ha":953,"x_min":32,"x_max":932,"o":"m 324 -10 q 172 32 239 -10 q 69 149 106 74 q 32 321 32 224 q 84 543 32 443 q 227 701 136 643 q 428 760 318 760 q 661 626 597 760 l 686 751 l 932 751 l 783 0 l 536 0 l 554 89 q 324 -10 456 -10 m 419 181 q 515 210 471 181 q 585 289 560 239 q 611 399 611 339 q 573 512 611 469 q 471 554 535 554 q 376 524 419 554 q 306 444 332 494 q 281 336 281 394 q 319 223 281 265 q 419 181 357 181 m 585 1132 q 690 1090 649 1132 q 731 986 731 1049 q 705 896 731 938 q 637 829 679 854 q 546 804 594 804 q 442 845 483 804 q 400 947 400 886 q 426 1039 400 996 q 494 1107 451 1082 q 585 1132 538 1132 m 572 1028 q 524 1007 544 1028 q 504 958 504 986 q 519 922 504 936 q 558 907 535 907 q 606 928 585 907 q 626 975 626 949 q 611 1013 626 997 q 572 1028 596 1028 m 668 1382 l 836 1281 l 615 1163 l 469 1201 l 668 1382 z "},"ã":{"ha":953,"x_min":32,"x_max":932,"o":"m 324 -10 q 172 32 239 -10 q 69 149 106 74 q 32 321 32 224 q 84 543 32 443 q 227 701 136 643 q 428 760 318 760 q 661 626 597 760 l 686 751 l 932 751 l 783 0 l 536 0 l 554 89 q 324 -10 456 -10 m 419 181 q 515 210 471 181 q 585 289 560 239 q 611 399 611 339 q 573 512 611 469 q 471 554 535 554 q 376 524 419 554 q 306 444 332 494 q 281 336 281 394 q 319 223 281 265 q 419 181 357 181 m 844 1050 q 781 885 822 940 q 667 831 739 831 q 608 841 635 831 q 550 871 582 851 q 527 883 546 874 q 494 893 508 893 q 444 835 456 893 l 304 835 q 369 999 326 943 q 483 1056 413 1056 q 542 1045 515 1056 q 600 1015 568 1035 q 656 993 639 993 q 706 1050 694 993 l 844 1050 z "},"æ":{"ha":1331,"x_min":10,"x_max":1294,"o":"m 269 -12 q 80 47 150 -12 q 10 204 10 107 q 88 381 10 319 q 315 443 167 443 l 515 443 l 518 474 q 487 547 519 522 q 389 572 454 572 q 273 556 338 572 q 143 511 208 540 l 93 682 q 278 741 186 721 q 449 761 369 761 q 594 740 532 761 q 693 679 656 718 q 933 760 792 760 q 1126 715 1044 760 q 1251 590 1208 671 q 1294 401 1294 510 q 1289 322 1294 360 l 757 322 l 756 303 q 799 213 753 247 q 910 178 844 178 q 1008 199 960 178 q 1097 257 1057 219 l 1221 121 q 885 -8 1092 -8 q 702 33 779 -8 q 586 146 625 74 q 269 -12 485 -12 m 1054 443 q 1026 551 1060 511 q 933 590 993 590 q 826 549 872 590 q 764 443 779 508 l 1054 443 m 331 151 q 424 175 381 151 q 497 243 467 199 l 506 322 l 363 322 q 275 299 308 325 q 242 225 242 272 q 265 171 242 190 q 331 151 288 151 z "},"ǽ":{"ha":1331,"x_min":10,"x_max":1294,"o":"m 269 -12 q 80 47 150 -12 q 10 204 10 107 q 88 381 10 319 q 315 443 167 443 l 515 443 l 518 474 q 487 547 519 522 q 389 572 454 572 q 273 556 338 572 q 143 511 208 540 l 93 682 q 278 741 186 721 q 449 761 369 761 q 594 740 532 761 q 693 679 656 718 q 933 760 792 760 q 1126 715 1044 760 q 1251 590 1208 671 q 1294 401 1294 510 q 1289 322 1294 360 l 757 322 l 756 303 q 799 213 753 247 q 910 178 844 178 q 1008 199 960 178 q 1097 257 1057 219 l 1221 121 q 885 -8 1092 -8 q 702 33 779 -8 q 586 146 625 74 q 269 -12 485 -12 m 1054 443 q 1026 551 1060 511 q 933 590 993 590 q 826 549 872 590 q 764 443 779 508 l 1054 443 m 331 151 q 424 175 381 151 q 497 243 467 199 l 506 322 l 363 322 q 275 299 308 325 q 242 225 242 272 q 265 171 242 190 q 331 151 288 151 m 765 1069 l 969 992 l 768 832 l 599 846 l 765 1069 z "},"b":{"ha":961,"x_min":28,"x_max":928,"o":"m 636 760 q 788 718 722 760 q 891 601 854 676 q 928 429 928 526 q 876 206 928 307 q 733 47 824 106 q 532 -11 642 -11 q 390 23 449 -11 q 299 122 331 57 l 274 0 l 28 0 l 232 1031 l 479 1031 l 406 661 q 513 734 454 708 q 636 760 572 760 m 540 569 q 444 540 489 569 q 374 460 400 510 q 349 351 349 410 q 387 238 349 281 q 489 196 425 196 q 584 225 540 196 q 653 304 628 254 q 679 414 679 354 q 642 528 679 486 q 540 569 604 569 z "},"c":{"ha":806,"x_min":35,"x_max":782,"o":"m 385 -8 q 200 34 279 -8 q 78 154 121 76 q 35 333 35 232 q 90 555 35 458 q 242 706 144 651 q 464 760 339 760 q 659 713 576 760 q 782 582 742 667 l 593 478 q 537 535 572 515 q 454 556 501 556 q 332 499 381 556 q 283 351 283 442 q 320 235 283 279 q 418 192 357 192 q 574 276 521 192 l 744 171 q 599 38 692 85 q 385 -8 506 -8 z "},"ć":{"ha":806,"x_min":35,"x_max":782,"o":"m 385 -8 q 200 34 279 -8 q 78 154 121 76 q 35 333 35 232 q 90 555 35 458 q 242 706 144 651 q 464 760 339 760 q 659 713 576 760 q 782 582 742 667 l 593 478 q 537 535 572 515 q 454 556 501 556 q 332 499 381 556 q 283 351 283 442 q 320 235 283 279 q 418 192 357 192 q 574 276 521 192 l 744 171 q 599 38 692 85 q 385 -8 506 -8 m 538 1069 l 742 992 l 540 832 l 371 846 l 538 1069 z "},"č":{"ha":806,"x_min":35,"x_max":799,"o":"m 385 -8 q 200 34 279 -8 q 78 154 121 76 q 35 333 35 232 q 90 555 35 458 q 242 706 144 651 q 464 760 339 760 q 659 713 576 760 q 782 582 742 667 l 593 478 q 537 535 572 515 q 454 556 501 556 q 332 499 381 556 q 283 351 283 442 q 320 235 283 279 q 418 192 357 192 q 574 276 521 192 l 744 171 q 599 38 692 85 q 385 -8 506 -8 m 621 1060 l 799 1060 l 606 847 l 388 847 l 276 1060 l 454 1060 l 519 967 l 621 1060 z "},"ç":{"ha":806,"x_min":35,"x_max":782,"o":"m 418 192 q 574 276 521 192 l 744 171 q 613 46 696 92 q 424 -7 531 0 l 386 -72 q 458 -111 435 -85 q 481 -172 481 -137 q 420 -286 481 -247 q 274 -325 360 -325 q 124 -296 196 -325 l 185 -179 q 254 -193 219 -193 q 301 -183 282 -193 q 319 -158 319 -174 q 299 -135 319 -144 q 249 -126 279 -126 l 215 -126 l 282 3 q 101 118 167 31 q 35 333 35 206 q 90 555 35 458 q 242 706 144 651 q 464 760 339 760 q 659 713 576 760 q 782 582 742 667 l 593 478 q 537 535 572 515 q 454 556 501 556 q 332 499 381 556 q 283 351 283 442 q 320 235 283 279 q 418 192 357 192 z "},"ḉ":{"ha":806,"x_min":35,"x_max":782,"o":"m 749 992 l 547 832 l 378 846 l 544 1069 l 749 992 m 418 192 q 574 276 521 192 l 744 171 q 613 46 696 92 q 424 -7 531 0 l 386 -72 q 458 -111 435 -85 q 481 -172 481 -137 q 420 -286 481 -247 q 274 -325 360 -325 q 124 -296 196 -325 l 185 -179 q 254 -193 219 -193 q 301 -183 282 -193 q 319 -158 319 -174 q 299 -135 319 -144 q 249 -126 279 -126 l 215 -126 l 282 3 q 101 118 167 31 q 35 333 35 206 q 90 555 35 458 q 242 706 144 651 q 464 760 339 760 q 659 713 576 760 q 782 582 742 667 l 593 478 q 537 535 572 515 q 454 556 501 556 q 332 499 381 556 q 283 351 283 442 q 320 235 283 279 q 418 192 357 192 z "},"ĉ":{"ha":806,"x_min":35,"x_max":782,"o":"m 385 -8 q 200 34 279 -8 q 78 154 121 76 q 35 333 35 232 q 90 555 35 458 q 242 706 144 651 q 464 760 339 760 q 659 713 576 760 q 782 582 742 667 l 593 478 q 537 535 572 515 q 454 556 501 556 q 332 499 381 556 q 283 351 283 442 q 320 235 283 279 q 418 192 357 192 q 574 276 521 192 l 744 171 q 599 38 692 85 q 385 -8 506 -8 m 758 847 l 581 847 l 515 940 l 414 847 l 236 847 l 429 1060 l 647 1060 l 758 847 z "},"ċ":{"ha":806,"x_min":35,"x_max":782,"o":"m 385 -8 q 200 34 279 -8 q 78 154 121 76 q 35 333 35 232 q 90 555 35 458 q 242 706 144 651 q 464 760 339 760 q 659 713 576 760 q 782 582 742 667 l 593 478 q 537 535 572 515 q 454 556 501 556 q 332 499 381 556 q 283 351 283 442 q 320 235 283 279 q 418 192 357 192 q 574 276 521 192 l 744 171 q 599 38 692 85 q 385 -8 506 -8 m 544 1097 q 624 1067 594 1097 q 653 989 653 1038 q 606 878 653 924 q 493 833 560 833 q 415 863 444 833 q 386 942 386 893 q 433 1052 386 1007 q 544 1097 479 1097 z "},"d":{"ha":960,"x_min":32,"x_max":989,"o":"m 324 -10 q 172 32 239 -10 q 69 149 106 74 q 32 321 32 224 q 84 543 32 443 q 227 701 136 643 q 428 760 318 760 q 661 626 597 760 l 742 1031 l 989 1031 l 783 0 l 536 0 l 554 89 q 324 -10 456 -10 m 419 181 q 515 210 471 181 q 585 289 560 239 q 611 399 611 339 q 573 512 611 469 q 471 554 535 554 q 376 524 419 554 q 306 444 332 494 q 281 336 281 394 q 319 223 281 265 q 419 181 357 181 z "},"ð":{"ha":844,"x_min":19,"x_max":835,"o":"m 654 856 q 775 665 733 768 q 817 451 817 563 q 761 213 817 317 q 604 50 706 108 q 371 -8 503 -8 q 114 71 208 -8 q 19 285 19 150 q 62 459 19 382 q 180 579 104 536 q 354 622 256 622 q 490 598 426 622 q 586 536 554 574 q 456 772 565 656 l 207 668 l 169 760 l 375 847 q 218 949 307 903 l 392 1042 q 574 931 493 996 l 797 1025 l 835 931 l 654 856 m 378 197 q 496 241 450 197 q 542 346 542 285 q 509 424 542 394 q 417 453 476 453 q 301 409 347 453 q 256 301 256 365 q 289 225 256 253 q 378 197 322 197 z "},"ď":{"ha":1086,"x_min":32,"x_max":1264,"o":"m 324 -10 q 172 32 239 -10 q 69 149 106 74 q 32 321 32 224 q 84 543 32 443 q 227 701 136 643 q 428 760 318 760 q 661 626 597 760 l 742 1031 l 989 1031 l 783 0 l 536 0 l 554 89 q 324 -10 456 -10 m 419 181 q 515 210 471 181 q 585 289 560 239 q 611 399 611 339 q 573 512 611 469 q 471 554 535 554 q 376 524 419 554 q 306 444 332 494 q 281 336 281 394 q 319 223 281 265 q 419 181 357 181 m 1075 1031 l 1264 1031 l 1164 726 l 1015 726 l 1075 1031 z "},"đ":{"ha":944,"x_min":29,"x_max":1057,"o":"m 1033 800 l 943 800 l 785 0 l 539 0 l 556 79 q 449 13 508 36 q 326 -10 390 -10 q 172 30 239 -10 q 67 141 104 69 q 29 306 29 213 q 81 513 29 419 q 223 660 133 606 q 421 714 313 714 q 564 684 504 714 q 656 596 624 654 l 697 800 l 456 800 l 479 921 l 721 921 l 743 1031 l 989 1031 l 967 921 l 1057 921 l 1033 800 m 419 181 q 514 206 471 181 q 583 276 557 232 q 608 371 608 319 q 569 471 608 433 q 467 508 531 508 q 372 483 415 508 q 304 413 329 457 q 279 318 279 369 q 317 217 279 254 q 419 181 354 181 z "},"ḍ":{"ha":960,"x_min":32,"x_max":989,"o":"m 324 -10 q 172 32 239 -10 q 69 149 106 74 q 32 321 32 224 q 84 543 32 443 q 227 701 136 643 q 428 760 318 760 q 661 626 597 760 l 742 1031 l 989 1031 l 783 0 l 536 0 l 554 89 q 324 -10 456 -10 m 419 181 q 515 210 471 181 q 585 289 560 239 q 611 399 611 339 q 573 512 611 469 q 471 554 535 554 q 376 524 419 554 q 306 444 332 494 q 281 336 281 394 q 319 223 281 265 q 419 181 357 181 m 383 -94 q 463 -124 433 -94 q 492 -203 492 -154 q 445 -313 492 -268 q 332 -358 399 -358 q 254 -328 283 -358 q 225 -250 225 -299 q 272 -140 225 -185 q 383 -94 318 -94 z "},"ḏ":{"ha":960,"x_min":32,"x_max":989,"o":"m 324 -10 q 172 32 239 -10 q 69 149 106 74 q 32 321 32 224 q 84 543 32 443 q 227 701 136 643 q 428 760 318 760 q 661 626 597 760 l 742 1031 l 989 1031 l 783 0 l 536 0 l 554 89 q 324 -10 456 -10 m 419 181 q 515 210 471 181 q 585 289 560 239 q 611 399 611 339 q 573 512 611 469 q 471 554 535 554 q 376 524 419 554 q 306 444 332 494 q 281 336 281 394 q 319 223 281 265 q 419 181 357 181 m 186 -107 l 576 -107 l 549 -253 l 158 -253 l 186 -107 z "},"ǆ":{"ha":1732,"x_min":32,"x_max":1756,"o":"m 324 -10 q 172 32 239 -10 q 69 149 106 74 q 32 321 32 224 q 84 543 32 443 q 227 701 136 643 q 428 760 318 760 q 661 626 597 760 l 742 1031 l 989 1031 l 783 0 l 536 0 l 554 89 q 324 -10 456 -10 m 419 181 q 515 210 471 181 q 585 289 560 239 q 611 399 611 339 q 573 512 611 469 q 471 554 535 554 q 376 524 419 554 q 306 444 332 494 q 281 336 281 394 q 319 223 281 265 q 419 181 357 181 m 1756 750 l 1728 600 l 1283 189 l 1657 189 l 1618 0 l 935 0 l 961 150 l 1407 561 l 1061 563 l 1097 751 l 1756 750 m 1564 1060 l 1742 1060 l 1549 847 l 1331 847 l 1219 1060 l 1397 1060 l 1463 967 l 1564 1060 z "},"e":{"ha":854,"x_min":33,"x_max":824,"o":"m 458 758 q 652 717 569 758 q 779 599 735 675 q 824 422 824 524 q 810 310 824 375 l 276 310 q 325 211 283 246 q 438 176 367 176 q 610 239 531 176 l 733 104 q 428 -10 608 -10 q 219 32 308 -10 q 82 151 131 74 q 33 332 33 229 q 88 550 33 453 q 240 703 143 647 q 458 758 338 758 m 589 442 q 590 468 590 450 q 558 552 590 521 q 472 583 526 583 q 367 544 414 583 q 294 442 319 506 l 589 442 z "},"é":{"ha":854,"x_min":33,"x_max":824,"o":"m 458 758 q 652 717 569 758 q 779 599 735 675 q 824 422 824 524 q 810 310 824 375 l 276 310 q 325 211 283 246 q 438 176 367 176 q 610 239 531 176 l 733 104 q 428 -10 608 -10 q 219 32 308 -10 q 82 151 131 74 q 33 332 33 229 q 88 550 33 453 q 240 703 143 647 q 458 758 338 758 m 589 442 q 590 468 590 450 q 558 552 590 521 q 472 583 526 583 q 367 544 414 583 q 294 442 319 506 l 589 442 m 518 1071 l 722 993 l 521 833 l 351 847 l 518 1071 z "},"ĕ":{"ha":854,"x_min":33,"x_max":824,"o":"m 458 758 q 652 717 569 758 q 779 599 735 675 q 824 422 824 524 q 810 310 824 375 l 276 310 q 325 211 283 246 q 438 176 367 176 q 610 239 531 176 l 733 104 q 428 -10 608 -10 q 219 32 308 -10 q 82 151 131 74 q 33 332 33 229 q 88 550 33 453 q 240 703 143 647 q 458 758 338 758 m 589 442 q 590 468 590 450 q 558 552 590 521 q 472 583 526 583 q 367 544 414 583 q 294 442 319 506 l 589 442 m 440 1058 q 453 1001 436 1024 q 501 979 469 979 q 558 1001 533 979 q 593 1058 583 1022 l 747 1058 q 649 896 724 957 q 474 835 574 835 q 335 883 386 835 q 285 1015 285 932 q 288 1058 285 1043 l 440 1058 z "},"ě":{"ha":854,"x_min":33,"x_max":824,"o":"m 458 758 q 652 717 569 758 q 779 599 735 675 q 824 422 824 524 q 810 310 824 375 l 276 310 q 325 211 283 246 q 438 176 367 176 q 610 239 531 176 l 733 104 q 428 -10 608 -10 q 219 32 308 -10 q 82 151 131 74 q 33 332 33 229 q 88 550 33 453 q 240 703 143 647 q 458 758 338 758 m 589 442 q 590 468 590 450 q 558 552 590 521 q 472 583 526 583 q 367 544 414 583 q 294 442 319 506 l 589 442 m 601 1061 l 779 1061 l 586 849 l 368 849 l 257 1061 l 435 1061 l 500 968 l 601 1061 z "},"ḝ":{"ha":854,"x_min":33,"x_max":824,"o":"m 538 833 q 399 882 450 833 q 349 1014 349 931 q 351 1057 349 1042 l 504 1057 q 517 1000 500 1022 q 565 978 533 978 q 622 999 597 978 q 657 1057 647 1021 l 811 1057 q 713 894 788 956 q 538 833 638 833 m 458 758 q 652 717 569 758 q 779 599 735 675 q 824 422 824 524 q 810 310 824 375 l 276 310 q 325 211 283 246 q 438 176 367 176 q 610 239 531 176 l 733 104 q 461 -8 624 3 l 425 -72 q 497 -111 474 -85 q 519 -172 519 -137 q 459 -286 519 -247 q 313 -325 399 -325 q 163 -296 235 -325 l 224 -179 q 293 -193 258 -193 q 340 -183 321 -193 q 358 -158 358 -174 q 338 -135 358 -144 q 288 -126 318 -126 l 254 -126 l 319 0 q 110 114 186 26 q 33 332 33 201 q 88 550 33 453 q 240 703 143 647 q 458 758 338 758 m 589 442 q 590 468 590 450 q 558 552 590 521 q 472 583 526 583 q 367 544 414 583 q 294 442 319 506 l 589 442 z "},"ê":{"ha":854,"x_min":33,"x_max":824,"o":"m 458 758 q 652 717 569 758 q 779 599 735 675 q 824 422 824 524 q 810 310 824 375 l 276 310 q 325 211 283 246 q 438 176 367 176 q 610 239 531 176 l 733 104 q 428 -10 608 -10 q 219 32 308 -10 q 82 151 131 74 q 33 332 33 229 q 88 550 33 453 q 240 703 143 647 q 458 758 338 758 m 589 442 q 590 468 590 450 q 558 552 590 521 q 472 583 526 583 q 367 544 414 583 q 294 442 319 506 l 589 442 m 739 849 l 561 849 l 496 942 l 394 849 l 217 849 l 410 1061 l 628 1061 l 739 849 z "},"ế":{"ha":854,"x_min":33,"x_max":824,"o":"m 458 758 q 652 717 569 758 q 779 599 735 675 q 824 422 824 524 q 810 310 824 375 l 276 310 q 325 211 283 246 q 438 176 367 176 q 610 239 531 176 l 733 104 q 428 -10 608 -10 q 219 32 308 -10 q 82 151 131 74 q 33 332 33 229 q 88 550 33 453 q 240 703 143 647 q 458 758 338 758 m 589 442 q 590 468 590 450 q 558 552 590 521 q 472 583 526 583 q 367 544 414 583 q 294 442 319 506 l 589 442 m 765 836 l 565 836 l 492 922 l 389 836 l 188 836 l 381 1007 l 631 1007 l 765 836 m 581 1271 l 749 1169 l 528 1051 l 382 1090 l 581 1271 z "},"ệ":{"ha":854,"x_min":33,"x_max":824,"o":"m 458 758 q 652 717 569 758 q 779 599 735 675 q 824 422 824 524 q 810 310 824 375 l 276 310 q 325 211 283 246 q 438 176 367 176 q 610 239 531 176 l 733 104 q 428 -10 608 -10 q 219 32 308 -10 q 82 151 131 74 q 33 332 33 229 q 88 550 33 453 q 240 703 143 647 q 458 758 338 758 m 589 442 q 590 468 590 450 q 558 552 590 521 q 472 583 526 583 q 367 544 414 583 q 294 442 319 506 l 589 442 m 371 -94 q 450 -124 421 -94 q 479 -203 479 -154 q 433 -313 479 -268 q 319 -358 386 -358 q 242 -328 271 -358 q 213 -250 213 -299 q 259 -140 213 -185 q 371 -94 306 -94 m 778 847 l 600 847 l 535 940 l 433 847 l 256 847 l 449 1060 l 667 1060 l 778 847 z "},"ề":{"ha":854,"x_min":33,"x_max":824,"o":"m 458 758 q 652 717 569 758 q 779 599 735 675 q 824 422 824 524 q 810 310 824 375 l 276 310 q 325 211 283 246 q 438 176 367 176 q 610 239 531 176 l 733 104 q 428 -10 608 -10 q 219 32 308 -10 q 82 151 131 74 q 33 332 33 229 q 88 550 33 453 q 240 703 143 647 q 458 758 338 758 m 589 442 q 590 468 590 450 q 558 552 590 521 q 472 583 526 583 q 367 544 414 583 q 294 442 319 506 l 589 442 m 765 836 l 565 836 l 492 922 l 389 836 l 188 836 l 381 1007 l 631 1007 l 765 836 m 447 1271 l 644 1090 l 499 1051 l 279 1169 l 447 1271 z "},"ể":{"ha":854,"x_min":33,"x_max":824,"o":"m 458 758 q 652 717 569 758 q 779 599 735 675 q 824 422 824 524 q 810 310 824 375 l 276 310 q 325 211 283 246 q 438 176 367 176 q 610 239 531 176 l 733 104 q 428 -10 608 -10 q 219 32 308 -10 q 82 151 131 74 q 33 332 33 229 q 88 550 33 453 q 240 703 143 647 q 458 758 338 758 m 589 442 q 590 468 590 450 q 558 552 590 521 q 472 583 526 583 q 367 544 414 583 q 294 442 319 506 l 589 442 m 764 836 l 564 836 l 490 922 l 388 836 l 186 836 l 379 1007 l 629 1007 l 764 836 m 557 1292 q 642 1268 614 1292 q 671 1207 671 1244 q 639 1127 671 1165 q 539 1049 607 1089 l 447 1088 q 511 1154 511 1126 q 485 1174 511 1174 q 439 1160 460 1174 l 397 1246 q 557 1292 482 1292 z "},"ễ":{"ha":854,"x_min":33,"x_max":824,"o":"m 458 758 q 652 717 569 758 q 779 599 735 675 q 824 422 824 524 q 810 310 824 375 l 276 310 q 325 211 283 246 q 438 176 367 176 q 610 239 531 176 l 733 104 q 428 -10 608 -10 q 219 32 308 -10 q 82 151 131 74 q 33 332 33 229 q 88 550 33 453 q 240 703 143 647 q 458 758 338 758 m 589 442 q 590 468 590 450 q 558 552 590 521 q 472 583 526 583 q 367 544 414 583 q 294 442 319 506 l 589 442 m 765 836 l 565 836 l 492 922 l 389 836 l 188 836 l 381 1007 l 631 1007 l 765 836 m 796 1242 q 738 1102 778 1149 q 626 1056 697 1056 q 563 1065 592 1056 q 499 1092 535 1075 q 435 1114 454 1114 q 399 1100 411 1114 q 382 1058 388 1086 l 265 1058 q 323 1198 283 1150 q 433 1246 363 1246 q 497 1237 468 1246 q 565 1210 525 1228 q 598 1195 582 1201 q 625 1189 614 1189 q 660 1202 649 1189 q 678 1242 672 1215 l 796 1242 z "},"ȅ":{"ha":854,"x_min":33,"x_max":824,"o":"m 458 758 q 652 717 569 758 q 779 599 735 675 q 824 422 824 524 q 810 310 824 375 l 276 310 q 325 211 283 246 q 438 176 367 176 q 610 239 531 176 l 733 104 q 428 -10 608 -10 q 219 32 308 -10 q 82 151 131 74 q 33 332 33 229 q 88 550 33 453 q 240 703 143 647 q 458 758 338 758 m 589 442 q 590 468 590 450 q 558 552 590 521 q 472 583 526 583 q 367 544 414 583 q 294 442 319 506 l 589 442 m 381 1075 l 449 846 l 272 833 l 181 1006 l 381 1075 m 654 1075 l 722 846 l 546 833 l 454 1006 l 654 1075 z "},"ë":{"ha":854,"x_min":33,"x_max":824,"o":"m 458 758 q 652 717 569 758 q 779 599 735 675 q 824 422 824 524 q 810 310 824 375 l 276 310 q 325 211 283 246 q 438 176 367 176 q 610 239 531 176 l 733 104 q 428 -10 608 -10 q 219 32 308 -10 q 82 151 131 74 q 33 332 33 229 q 88 550 33 453 q 240 703 143 647 q 458 758 338 758 m 589 442 q 590 468 590 450 q 558 552 590 521 q 472 583 526 583 q 367 544 414 583 q 294 442 319 506 l 589 442 m 386 1065 q 450 1041 426 1065 q 474 976 474 1017 q 435 888 474 925 q 344 850 397 850 q 281 875 306 850 q 257 939 257 900 q 295 1028 257 992 q 386 1065 333 1065 m 653 1065 q 715 1041 692 1065 q 739 976 739 1017 q 701 888 739 925 q 611 850 664 850 q 547 875 571 850 q 524 939 524 900 q 562 1028 524 992 q 653 1065 600 1065 z "},"ė":{"ha":854,"x_min":33,"x_max":824,"o":"m 458 758 q 652 717 569 758 q 779 599 735 675 q 824 422 824 524 q 810 310 824 375 l 276 310 q 325 211 283 246 q 438 176 367 176 q 610 239 531 176 l 733 104 q 428 -10 608 -10 q 219 32 308 -10 q 82 151 131 74 q 33 332 33 229 q 88 550 33 453 q 240 703 143 647 q 458 758 338 758 m 589 442 q 590 468 590 450 q 558 552 590 521 q 472 583 526 583 q 367 544 414 583 q 294 442 319 506 l 589 442 m 525 1099 q 604 1069 575 1099 q 633 990 633 1039 q 587 880 633 925 q 474 835 540 835 q 396 865 425 835 q 367 943 367 894 q 413 1053 367 1008 q 525 1099 460 1099 z "},"ẹ":{"ha":854,"x_min":33,"x_max":824,"o":"m 458 758 q 652 717 569 758 q 779 599 735 675 q 824 422 824 524 q 810 310 824 375 l 276 310 q 325 211 283 246 q 438 176 367 176 q 610 239 531 176 l 733 104 q 428 -10 608 -10 q 219 32 308 -10 q 82 151 131 74 q 33 332 33 229 q 88 550 33 453 q 240 703 143 647 q 458 758 338 758 m 589 442 q 590 468 590 450 q 558 552 590 521 q 472 583 526 583 q 367 544 414 583 q 294 442 319 506 l 589 442 m 371 -94 q 450 -124 421 -94 q 479 -203 479 -154 q 433 -313 479 -268 q 319 -358 386 -358 q 242 -328 271 -358 q 213 -250 213 -299 q 259 -140 213 -185 q 371 -94 306 -94 z "},"è":{"ha":854,"x_min":33,"x_max":824,"o":"m 458 758 q 652 717 569 758 q 779 599 735 675 q 824 422 824 524 q 810 310 824 375 l 276 310 q 325 211 283 246 q 438 176 367 176 q 610 239 531 176 l 733 104 q 428 -10 608 -10 q 219 32 308 -10 q 82 151 131 74 q 33 332 33 229 q 88 550 33 453 q 240 703 143 647 q 458 758 338 758 m 589 442 q 590 468 590 450 q 558 552 590 521 q 472 583 526 583 q 367 544 414 583 q 294 442 319 506 l 589 442 m 471 1071 l 618 847 l 449 833 l 267 993 l 471 1071 z "},"ẻ":{"ha":854,"x_min":33,"x_max":824,"o":"m 458 758 q 652 717 569 758 q 779 599 735 675 q 824 422 824 524 q 810 310 824 375 l 276 310 q 325 211 283 246 q 438 176 367 176 q 610 239 531 176 l 733 104 q 428 -10 608 -10 q 219 32 308 -10 q 82 151 131 74 q 33 332 33 229 q 88 550 33 453 q 240 703 143 647 q 458 758 338 758 m 589 442 q 590 468 590 450 q 558 552 590 521 q 472 583 526 583 q 367 544 414 583 q 294 442 319 506 l 589 442 m 542 1135 q 640 1106 604 1135 q 675 1028 675 1076 q 633 919 675 974 q 514 811 590 864 l 413 857 q 474 917 451 886 q 496 969 496 947 q 488 992 496 983 q 464 1000 479 1000 q 408 981 438 1000 l 364 1082 q 542 1135 454 1135 z "},"ȇ":{"ha":854,"x_min":33,"x_max":824,"o":"m 458 758 q 652 717 569 758 q 779 599 735 675 q 824 422 824 524 q 810 310 824 375 l 276 310 q 325 211 283 246 q 438 176 367 176 q 610 239 531 176 l 733 104 q 428 -10 608 -10 q 219 32 308 -10 q 82 151 131 74 q 33 332 33 229 q 88 550 33 453 q 240 703 143 647 q 458 758 338 758 m 589 442 q 590 468 590 450 q 558 552 590 521 q 472 583 526 583 q 367 544 414 583 q 294 442 319 506 l 589 442 m 550 835 q 538 892 554 869 q 489 914 521 914 q 432 892 457 914 q 397 835 407 871 l 243 835 q 342 997 267 936 q 517 1058 417 1058 q 655 1010 604 1058 q 706 878 706 961 q 703 835 706 850 l 550 835 z "},"ē":{"ha":854,"x_min":33,"x_max":824,"o":"m 458 758 q 652 717 569 758 q 779 599 735 675 q 824 422 824 524 q 810 310 824 375 l 276 310 q 325 211 283 246 q 438 176 367 176 q 610 239 531 176 l 733 104 q 428 -10 608 -10 q 219 32 308 -10 q 82 151 131 74 q 33 332 33 229 q 88 550 33 453 q 240 703 143 647 q 458 758 338 758 m 589 442 q 590 468 590 450 q 558 552 590 521 q 472 583 526 583 q 367 544 414 583 q 294 442 319 506 l 589 442 m 297 1035 l 726 1035 l 699 889 l 269 889 l 297 1035 z "},"ḗ":{"ha":854,"x_min":33,"x_max":824,"o":"m 458 758 q 652 717 569 758 q 779 599 735 675 q 824 422 824 524 q 810 310 824 375 l 276 310 q 325 211 283 246 q 438 176 367 176 q 610 239 531 176 l 733 104 q 428 -10 608 -10 q 219 32 308 -10 q 82 151 131 74 q 33 332 33 229 q 88 550 33 453 q 240 703 143 647 q 458 758 338 758 m 589 442 q 590 468 590 450 q 558 552 590 521 q 472 583 526 583 q 367 544 414 583 q 294 442 319 506 l 589 442 m 293 974 l 700 974 l 672 835 l 267 835 l 293 974 m 572 1254 l 740 1153 l 519 1035 l 374 1074 l 572 1254 z "},"ḕ":{"ha":854,"x_min":33,"x_max":824,"o":"m 458 758 q 652 717 569 758 q 779 599 735 675 q 824 422 824 524 q 810 310 824 375 l 276 310 q 325 211 283 246 q 438 176 367 176 q 610 239 531 176 l 733 104 q 428 -10 608 -10 q 219 32 308 -10 q 82 151 131 74 q 33 332 33 229 q 88 550 33 453 q 240 703 143 647 q 458 758 338 758 m 589 442 q 590 468 590 450 q 558 552 590 521 q 472 583 526 583 q 367 544 414 583 q 294 442 319 506 l 589 442 m 300 974 l 707 974 l 679 835 l 274 835 l 300 974 m 446 1254 l 643 1074 l 497 1035 l 278 1153 l 446 1254 z "},"ę":{"ha":854,"x_min":33,"x_max":824,"o":"m 458 758 q 652 717 569 758 q 779 599 735 675 q 824 422 824 524 q 810 310 824 375 l 276 310 q 325 211 283 246 q 438 176 367 176 q 610 239 531 176 l 733 104 q 688 67 711 83 q 581 -45 622 13 q 540 -143 540 -103 q 565 -172 540 -172 q 607 -161 585 -172 l 621 -293 q 482 -324 543 -324 q 386 -294 422 -324 q 350 -206 350 -264 q 375 -106 350 -153 q 456 -8 400 -58 q 428 -10 446 -10 q 219 32 308 -10 q 82 151 131 74 q 33 332 33 229 q 88 550 33 453 q 240 703 143 647 q 458 758 338 758 m 589 442 q 590 468 590 450 q 558 552 590 521 q 472 583 526 583 q 367 544 414 583 q 294 442 319 506 l 589 442 z "},"ẽ":{"ha":854,"x_min":33,"x_max":824,"o":"m 458 758 q 652 717 569 758 q 779 599 735 675 q 824 422 824 524 q 810 310 824 375 l 276 310 q 325 211 283 246 q 438 176 367 176 q 610 239 531 176 l 733 104 q 428 -10 608 -10 q 219 32 308 -10 q 82 151 131 74 q 33 332 33 229 q 88 550 33 453 q 240 703 143 647 q 458 758 338 758 m 589 442 q 590 468 590 450 q 558 552 590 521 q 472 583 526 583 q 367 544 414 583 q 294 442 319 506 l 589 442 m 772 1051 q 708 887 750 942 q 594 832 667 832 q 536 842 563 832 q 478 872 510 853 q 455 885 474 875 q 422 894 436 894 q 372 836 383 894 l 232 836 q 297 1001 254 944 q 411 1057 340 1057 q 469 1047 443 1057 q 528 1017 496 1036 q 583 994 567 994 q 633 1051 622 994 l 772 1051 z "},"ə":{"ha":856,"x_min":32,"x_max":822,"o":"m 426 758 q 635 717 546 758 q 774 598 725 675 q 822 418 822 521 q 767 199 822 297 q 614 46 711 101 q 396 -10 517 -10 q 203 32 285 -10 q 76 150 121 74 q 32 326 32 226 q 46 440 32 374 l 579 440 q 531 539 572 504 q 418 574 489 574 q 244 511 326 574 l 122 646 q 426 758 246 758 m 383 167 q 488 206 440 167 q 561 308 536 244 l 267 308 q 265 282 265 299 q 297 198 265 229 q 383 167 329 167 z "},"f":{"ha":539,"x_min":65,"x_max":711,"o":"m 578 844 q 503 819 536 844 q 461 754 469 793 l 453 715 l 619 715 l 588 551 l 421 551 l 310 0 l 65 0 l 175 551 l 74 551 l 106 715 l 207 715 l 224 796 q 335 978 247 914 q 543 1042 422 1042 q 711 1008 633 1042 l 649 826 q 613 839 633 833 q 578 844 592 844 z "},"g":{"ha":907,"x_min":-31,"x_max":894,"o":"m 307 -279 q 123 -251 208 -279 q -31 -175 38 -222 l 74 -17 q 179 -67 119 -50 q 299 -85 239 -85 q 440 -46 385 -85 q 510 63 494 -7 l 524 122 q 423 63 478 83 q 310 42 368 42 q 168 80 231 42 q 71 187 106 118 q 36 343 36 256 q 85 554 36 458 q 220 705 135 650 q 408 760 306 760 q 541 729 486 760 q 625 640 596 699 l 649 751 l 894 751 l 751 39 q 603 -196 721 -112 q 307 -279 486 -279 m 407 231 q 492 256 453 231 q 555 324 532 281 q 578 418 578 367 q 544 517 578 479 q 454 554 510 554 q 369 528 408 554 q 308 456 331 501 q 285 358 285 411 q 318 265 285 300 q 407 231 351 231 z "},"ğ":{"ha":907,"x_min":-31,"x_max":894,"o":"m 307 -279 q 123 -251 208 -279 q -31 -175 38 -222 l 74 -17 q 179 -67 119 -50 q 299 -85 239 -85 q 440 -46 385 -85 q 510 63 494 -7 l 524 122 q 423 63 478 83 q 310 42 368 42 q 168 80 231 42 q 71 187 106 118 q 36 343 36 256 q 85 554 36 458 q 220 705 135 650 q 408 760 306 760 q 541 729 486 760 q 625 640 596 699 l 649 751 l 894 751 l 751 39 q 603 -196 721 -112 q 307 -279 486 -279 m 407 231 q 492 256 453 231 q 555 324 532 281 q 578 418 578 367 q 544 517 578 479 q 454 554 510 554 q 369 528 408 554 q 308 456 331 501 q 285 358 285 411 q 318 265 285 300 q 407 231 351 231 m 499 1057 q 511 1000 494 1022 q 560 978 528 978 q 617 999 592 978 q 651 1057 642 1021 l 806 1057 q 707 894 782 956 q 532 833 632 833 q 394 882 444 833 q 343 1014 343 931 q 346 1057 343 1042 l 499 1057 z "},"ǧ":{"ha":907,"x_min":-31,"x_max":894,"o":"m 307 -279 q 123 -251 208 -279 q -31 -175 38 -222 l 74 -17 q 179 -67 119 -50 q 299 -85 239 -85 q 440 -46 385 -85 q 510 63 494 -7 l 524 122 q 423 63 478 83 q 310 42 368 42 q 168 80 231 42 q 71 187 106 118 q 36 343 36 256 q 85 554 36 458 q 220 705 135 650 q 408 760 306 760 q 541 729 486 760 q 625 640 596 699 l 649 751 l 894 751 l 751 39 q 603 -196 721 -112 q 307 -279 486 -279 m 407 231 q 492 256 453 231 q 555 324 532 281 q 578 418 578 367 q 544 517 578 479 q 454 554 510 554 q 369 528 408 554 q 308 456 331 501 q 285 358 285 411 q 318 265 285 300 q 407 231 351 231 m 660 1060 l 838 1060 l 644 847 l 426 847 l 315 1060 l 493 1060 l 558 967 l 660 1060 z "},"ĝ":{"ha":907,"x_min":-31,"x_max":894,"o":"m 307 -279 q 123 -251 208 -279 q -31 -175 38 -222 l 74 -17 q 179 -67 119 -50 q 299 -85 239 -85 q 440 -46 385 -85 q 510 63 494 -7 l 524 122 q 423 63 478 83 q 310 42 368 42 q 168 80 231 42 q 71 187 106 118 q 36 343 36 256 q 85 554 36 458 q 220 705 135 650 q 408 760 306 760 q 541 729 486 760 q 625 640 596 699 l 649 751 l 894 751 l 751 39 q 603 -196 721 -112 q 307 -279 486 -279 m 407 231 q 492 256 453 231 q 555 324 532 281 q 578 418 578 367 q 544 517 578 479 q 454 554 510 554 q 369 528 408 554 q 308 456 331 501 q 285 358 285 411 q 318 265 285 300 q 407 231 351 231 m 797 847 l 619 847 l 554 940 l 453 847 l 275 847 l 468 1060 l 686 1060 l 797 847 z "},"ģ":{"ha":907,"x_min":-31,"x_max":894,"o":"m 307 -279 q 123 -251 208 -279 q -31 -175 38 -222 l 74 -17 q 179 -67 119 -50 q 299 -85 239 -85 q 440 -46 385 -85 q 510 63 494 -7 l 524 122 q 423 63 478 83 q 310 42 368 42 q 168 80 231 42 q 71 187 106 118 q 36 343 36 256 q 85 554 36 458 q 220 705 135 650 q 408 760 306 760 q 541 729 486 760 q 625 640 596 699 l 649 751 l 894 751 l 751 39 q 603 -196 721 -112 q 307 -279 486 -279 m 407 231 q 492 256 453 231 q 555 324 532 281 q 578 418 578 367 q 544 517 578 479 q 454 554 510 554 q 369 528 408 554 q 308 456 331 501 q 285 358 285 411 q 318 265 285 300 q 407 231 351 231 m 631 847 l 428 847 l 572 1089 l 717 1089 l 631 847 z "},"ġ":{"ha":907,"x_min":-31,"x_max":894,"o":"m 307 -279 q 123 -251 208 -279 q -31 -175 38 -222 l 74 -17 q 179 -67 119 -50 q 299 -85 239 -85 q 440 -46 385 -85 q 510 63 494 -7 l 524 122 q 423 63 478 83 q 310 42 368 42 q 168 80 231 42 q 71 187 106 118 q 36 343 36 256 q 85 554 36 458 q 220 705 135 650 q 408 760 306 760 q 541 729 486 760 q 625 640 596 699 l 649 751 l 894 751 l 751 39 q 603 -196 721 -112 q 307 -279 486 -279 m 407 231 q 492 256 453 231 q 555 324 532 281 q 578 418 578 367 q 544 517 578 479 q 454 554 510 554 q 369 528 408 554 q 308 456 331 501 q 285 358 285 411 q 318 265 285 300 q 407 231 351 231 m 583 1097 q 663 1067 633 1097 q 692 989 692 1038 q 645 878 692 924 q 532 833 599 833 q 454 863 483 833 q 425 942 425 893 q 472 1052 425 1007 q 583 1097 518 1097 z "},"ḡ":{"ha":907,"x_min":-31,"x_max":894,"o":"m 307 -279 q 123 -251 208 -279 q -31 -175 38 -222 l 74 -17 q 179 -67 119 -50 q 299 -85 239 -85 q 440 -46 385 -85 q 510 63 494 -7 l 524 122 q 423 63 478 83 q 310 42 368 42 q 168 80 231 42 q 71 187 106 118 q 36 343 36 256 q 85 554 36 458 q 220 705 135 650 q 408 760 306 760 q 541 729 486 760 q 625 640 596 699 l 649 751 l 894 751 l 751 39 q 603 -196 721 -112 q 307 -279 486 -279 m 407 231 q 492 256 453 231 q 555 324 532 281 q 578 418 578 367 q 544 517 578 479 q 454 554 510 554 q 369 528 408 554 q 308 456 331 501 q 285 358 285 411 q 318 265 285 300 q 407 231 351 231 m 356 1033 l 785 1033 l 757 888 l 328 888 l 356 1033 z "},"h":{"ha":947,"x_min":29,"x_max":896,"o":"m 638 761 q 826 693 756 761 q 896 514 896 625 q 889 444 896 483 l 799 0 l 553 0 l 633 408 q 638 444 638 428 q 608 523 638 494 q 528 551 579 551 q 416 504 465 551 q 353 382 367 457 l 276 0 l 29 0 l 232 1031 l 481 1031 l 406 651 q 638 761 494 761 z "},"ħ":{"ha":942,"x_min":29,"x_max":889,"o":"m 628 715 q 818 651 747 715 q 889 481 889 586 q 882 418 889 456 l 799 0 l 553 0 l 628 381 q 631 410 631 390 q 601 479 631 454 q 521 504 572 504 q 410 463 458 504 q 349 354 363 421 l 276 0 l 29 0 l 186 800 l 97 800 l 121 921 l 210 921 l 232 1031 l 481 1031 l 458 921 l 697 921 l 674 800 l 433 800 l 396 614 q 628 715 489 715 z "},"ḫ":{"ha":947,"x_min":29,"x_max":896,"o":"m 638 761 q 826 693 756 761 q 896 514 896 625 q 889 444 896 483 l 799 0 l 553 0 l 633 408 q 638 444 638 428 q 608 523 638 494 q 528 551 579 551 q 416 504 465 551 q 353 382 367 457 l 276 0 l 29 0 l 232 1031 l 481 1031 l 406 651 q 638 761 494 761 m 306 -82 q 318 -139 301 -117 q 367 -161 335 -161 q 424 -140 399 -161 q 458 -82 449 -118 l 613 -82 q 514 -244 589 -183 q 339 -306 439 -306 q 201 -257 251 -306 q 150 -125 150 -208 q 153 -82 150 -97 l 306 -82 z "},"ĥ":{"ha":947,"x_min":29,"x_max":896,"o":"m 638 761 q 826 693 756 761 q 896 514 896 625 q 889 444 896 483 l 799 0 l 553 0 l 633 408 q 638 444 638 428 q 608 523 638 494 q 528 551 579 551 q 416 504 465 551 q 353 382 367 457 l 276 0 l 29 0 l 232 1031 l 481 1031 l 406 651 q 638 761 494 761 m 629 1108 l 451 1108 l 386 1201 l 285 1108 l 107 1108 l 300 1321 l 518 1321 l 629 1108 z "},"ḥ":{"ha":947,"x_min":29,"x_max":896,"o":"m 638 761 q 826 693 756 761 q 896 514 896 625 q 889 444 896 483 l 799 0 l 553 0 l 633 408 q 638 444 638 428 q 608 523 638 494 q 528 551 579 551 q 416 504 465 551 q 353 382 367 457 l 276 0 l 29 0 l 232 1031 l 481 1031 l 406 651 q 638 761 494 761 m 382 -94 q 461 -124 432 -94 q 490 -203 490 -154 q 444 -313 490 -268 q 331 -358 397 -358 q 253 -328 282 -358 q 224 -250 224 -299 q 270 -140 224 -185 q 382 -94 317 -94 z "},"i":{"ha":436,"x_min":19,"x_max":468,"o":"m 415 751 l 267 0 l 19 0 l 169 751 l 415 751 m 360 1097 q 439 1067 410 1097 q 468 989 468 1038 q 422 878 468 924 q 308 833 375 833 q 231 863 260 833 q 201 942 201 893 q 248 1052 201 1007 q 360 1097 294 1097 z "},"ı":{"ha":436,"x_min":19,"x_max":415,"o":"m 415 751 l 267 0 l 19 0 l 169 751 l 415 751 z "},"í":{"ha":436,"x_min":19,"x_max":557,"o":"m 415 751 l 267 0 l 19 0 l 169 751 l 415 751 m 353 1069 l 557 992 l 356 832 l 186 846 l 353 1069 z "},"ĭ":{"ha":436,"x_min":19,"x_max":582,"o":"m 415 751 l 267 0 l 19 0 l 169 751 l 415 751 m 275 1057 q 288 1000 271 1022 q 336 978 304 978 q 393 999 368 978 q 428 1057 418 1021 l 582 1057 q 483 894 558 956 q 308 833 408 833 q 170 882 221 833 q 119 1014 119 931 q 122 1057 119 1042 l 275 1057 z "},"î":{"ha":436,"x_min":19,"x_max":574,"o":"m 415 751 l 267 0 l 19 0 l 169 751 l 415 751 m 574 847 l 396 847 l 331 940 l 229 847 l 51 847 l 244 1060 l 463 1060 l 574 847 z "},"ȉ":{"ha":436,"x_min":15,"x_max":557,"o":"m 415 751 l 267 0 l 19 0 l 169 751 l 415 751 m 215 1074 l 283 844 l 107 832 l 15 1004 l 215 1074 m 489 1074 l 557 844 l 381 832 l 289 1004 l 489 1074 z "},"ï":{"ha":436,"x_min":19,"x_max":568,"o":"m 415 751 l 267 0 l 19 0 l 169 751 l 415 751 m 226 1064 q 290 1040 267 1064 q 314 975 314 1015 q 276 886 314 924 q 186 849 239 849 q 122 874 146 849 q 97 938 97 899 q 135 1027 97 990 q 226 1064 174 1064 m 481 1064 q 544 1040 521 1064 q 568 975 568 1015 q 531 886 568 924 q 440 849 493 849 q 376 874 400 849 q 353 938 353 899 q 390 1027 353 990 q 481 1064 428 1064 z "},"ḯ":{"ha":436,"x_min":19,"x_max":589,"o":"m 415 751 l 267 0 l 19 0 l 169 751 l 415 751 m 217 1047 q 279 1023 256 1047 q 303 960 303 999 q 265 872 303 908 q 176 835 228 835 q 113 859 136 835 q 89 921 89 883 q 126 1011 89 975 q 217 1047 163 1047 m 488 1047 q 550 1023 526 1047 q 574 960 574 999 q 536 872 574 908 q 447 835 499 835 q 383 859 407 835 q 360 921 360 883 q 397 1011 360 975 q 488 1047 433 1047 m 421 1297 l 589 1196 l 368 1078 l 222 1117 l 421 1297 z "},"ị":{"ha":436,"x_min":-32,"x_max":468,"o":"m 415 751 l 267 0 l 19 0 l 169 751 l 415 751 m 360 1097 q 439 1067 410 1097 q 468 989 468 1038 q 422 878 468 924 q 308 833 375 833 q 231 863 260 833 q 201 942 201 893 q 248 1052 201 1007 q 360 1097 294 1097 m 126 -94 q 206 -124 176 -94 q 235 -203 235 -154 q 188 -313 235 -268 q 75 -358 142 -358 q -3 -328 26 -358 q -32 -250 -32 -299 q 15 -140 -32 -185 q 126 -94 61 -94 z "},"ì":{"ha":436,"x_min":19,"x_max":453,"o":"m 415 751 l 267 0 l 19 0 l 169 751 l 415 751 m 306 1069 l 453 846 l 283 832 l 101 992 l 306 1069 z "},"ỉ":{"ha":436,"x_min":19,"x_max":510,"o":"m 415 751 l 267 0 l 19 0 l 169 751 l 415 751 m 376 1133 q 474 1104 439 1133 q 510 1026 510 1075 q 467 917 510 972 q 349 810 425 863 l 247 856 q 308 915 286 885 q 331 968 331 946 q 322 990 331 982 q 299 999 314 999 q 243 979 272 999 l 199 1081 q 376 1133 289 1133 z "},"ȋ":{"ha":436,"x_min":19,"x_max":536,"o":"m 415 751 l 267 0 l 19 0 l 169 751 l 415 751 m 371 833 q 372 850 372 839 q 360 895 372 878 q 326 913 347 913 q 281 890 301 913 q 250 833 260 868 l 90 833 q 187 995 115 935 q 356 1056 258 1056 q 488 1009 440 1056 q 536 881 536 963 q 532 833 536 858 l 371 833 z "},"ĳ":{"ha":871,"x_min":19,"x_max":893,"o":"m 415 751 l 267 0 l 19 0 l 169 751 l 415 751 m 360 1097 q 439 1067 410 1097 q 468 989 468 1038 q 422 878 468 924 q 308 833 375 833 q 231 863 260 833 q 201 942 201 893 q 248 1052 201 1007 q 360 1097 294 1097 m 303 -78 q 347 -83 324 -83 q 418 -55 389 -83 q 457 19 447 -26 l 604 751 l 851 751 l 693 -37 q 592 -217 671 -154 q 394 -279 513 -279 q 233 -247 307 -279 l 303 -78 m 785 1097 q 864 1067 835 1097 q 893 989 893 1038 q 847 878 893 924 q 733 833 800 833 q 656 863 685 833 q 626 942 626 893 q 673 1052 626 1007 q 785 1097 719 1097 z "},"ī":{"ha":436,"x_min":19,"x_max":542,"o":"m 415 751 l 267 0 l 19 0 l 169 751 l 415 751 m 151 1033 l 542 1033 l 514 888 l 124 888 l 151 1033 z "},"į":{"ha":436,"x_min":-104,"x_max":468,"o":"m 360 1097 q 439 1067 410 1097 q 468 989 468 1038 q 422 878 468 924 q 308 833 375 833 q 231 863 260 833 q 201 942 201 893 q 248 1052 201 1007 q 360 1097 294 1097 m 169 751 l 415 751 l 267 0 l 219 0 q 119 -77 151 -43 q 86 -144 86 -111 q 111 -172 86 -172 q 153 -161 131 -172 l 167 -293 q 25 -324 89 -324 q -71 -292 -37 -324 q -104 -206 -104 -260 q 21 6 -104 -96 l 169 751 z "},"ĩ":{"ha":436,"x_min":19,"x_max":594,"o":"m 415 751 l 267 0 l 19 0 l 169 751 l 415 751 m 594 1047 q 528 882 569 936 q 421 828 486 828 q 368 838 390 828 q 317 865 346 847 q 292 880 304 874 q 269 886 279 886 q 224 832 236 886 l 85 832 q 151 997 108 942 q 260 1051 193 1051 q 315 1041 290 1051 q 365 1013 339 1031 q 385 1001 371 1010 q 410 993 400 993 q 438 1006 428 993 q 456 1047 449 1019 l 594 1047 z "},"j":{"ha":435,"x_min":-203,"x_max":457,"o":"m -133 -78 q -89 -83 -112 -83 q -18 -55 -47 -83 q 21 19 11 -26 l 168 751 l 415 751 l 257 -37 q 156 -217 235 -154 q -42 -279 76 -279 q -203 -247 -129 -279 l -133 -78 m 349 1097 q 428 1067 399 1097 q 457 989 457 1038 q 410 878 457 924 q 297 833 364 833 q 219 863 249 833 q 190 942 190 893 q 237 1052 190 1007 q 349 1097 283 1097 z "},"ȷ":{"ha":435,"x_min":-203,"x_max":415,"o":"m -133 -78 q -89 -83 -112 -83 q -18 -55 -47 -83 q 21 19 11 -26 l 168 751 l 415 751 l 257 -37 q 156 -217 235 -154 q -42 -279 76 -279 q -203 -247 -129 -279 l -133 -78 z "},"ĵ":{"ha":435,"x_min":-203,"x_max":563,"o":"m -133 -78 q -89 -83 -112 -83 q -18 -55 -47 -83 q 21 19 11 -26 l 168 751 l 415 751 l 257 -37 q 156 -217 235 -154 q -42 -279 76 -279 q -203 -247 -129 -279 l -133 -78 m 563 847 l 385 847 l 319 940 l 218 847 l 40 847 l 233 1060 l 451 1060 l 563 847 z "},"k":{"ha":908,"x_min":26,"x_max":972,"o":"m 972 751 l 618 446 l 813 0 l 525 0 l 425 278 l 310 178 l 274 0 l 26 0 l 232 1031 l 479 1031 l 374 500 l 663 751 l 972 751 z "},"ķ":{"ha":908,"x_min":26,"x_max":972,"o":"m 972 751 l 618 446 l 813 0 l 525 0 l 425 278 l 310 178 l 274 0 l 26 0 l 232 1031 l 479 1031 l 374 500 l 663 751 l 972 751 m 275 -83 l 478 -83 l 333 -325 l 189 -325 l 275 -83 z "},"ĸ":{"ha":901,"x_min":19,"x_max":965,"o":"m 965 751 l 611 446 l 806 0 l 518 0 l 418 278 l 303 178 l 267 0 l 19 0 l 169 751 l 417 751 l 367 500 l 656 751 l 965 751 z "},"l":{"ha":450,"x_min":26,"x_max":479,"o":"m 479 1031 l 274 0 l 26 0 l 232 1031 l 479 1031 z "},"ĺ":{"ha":450,"x_min":26,"x_max":619,"o":"m 479 1031 l 274 0 l 26 0 l 232 1031 l 479 1031 m 415 1338 l 619 1260 l 418 1100 l 249 1114 l 415 1338 z "},"ľ":{"ha":578,"x_min":26,"x_max":756,"o":"m 479 1031 l 274 0 l 26 0 l 232 1031 l 479 1031 m 567 1031 l 756 1031 l 656 726 l 507 726 l 567 1031 z "},"ļ":{"ha":450,"x_min":-53,"x_max":479,"o":"m 479 1031 l 274 0 l 26 0 l 232 1031 l 479 1031 m 33 -83 l 236 -83 l 92 -325 l -53 -325 l 33 -83 z "},"ŀ":{"ha":710,"x_min":26,"x_max":719,"o":"m 479 1031 l 274 0 l 26 0 l 232 1031 l 479 1031 m 611 683 q 690 653 661 683 q 719 575 719 624 q 673 465 719 510 q 560 419 626 419 q 482 449 511 419 q 453 528 453 479 q 499 638 453 593 q 611 683 546 683 z "},"ḷ":{"ha":450,"x_min":-25,"x_max":479,"o":"m 479 1031 l 274 0 l 26 0 l 232 1031 l 479 1031 m 133 -94 q 213 -124 183 -94 q 242 -203 242 -154 q 195 -313 242 -268 q 82 -358 149 -358 q 4 -328 33 -358 q -25 -250 -25 -299 q 22 -140 -25 -185 q 133 -94 68 -94 z "},"ǉ":{"ha":885,"x_min":26,"x_max":907,"o":"m 479 1031 l 274 0 l 26 0 l 232 1031 l 479 1031 m 317 -78 q 361 -83 338 -83 q 432 -55 403 -83 q 471 19 461 -26 l 618 751 l 865 751 l 707 -37 q 606 -217 685 -154 q 408 -279 526 -279 q 247 -247 321 -279 l 317 -78 m 799 1097 q 878 1067 849 1097 q 907 989 907 1038 q 860 878 907 924 q 747 833 814 833 q 669 863 699 833 q 640 942 640 893 q 687 1052 640 1007 q 799 1097 733 1097 z "},"ḻ":{"ha":450,"x_min":-92,"x_max":479,"o":"m 479 1031 l 274 0 l 26 0 l 232 1031 l 479 1031 m -64 -107 l 326 -107 l 299 -253 l -92 -253 l -64 -107 z "},"ł":{"ha":581,"x_min":14,"x_max":628,"o":"m 628 738 l 600 597 l 443 522 l 339 0 l 92 0 l 169 393 l 14 318 l 42 458 l 199 533 l 297 1031 l 544 1031 l 471 663 l 628 738 z "},"m":{"ha":1464,"x_min":21,"x_max":1411,"o":"m 1154 761 q 1342 694 1272 761 q 1411 517 1411 626 q 1404 444 1411 476 l 1315 0 l 1068 0 l 1149 408 q 1153 446 1153 429 q 1124 523 1153 494 q 1043 551 1094 551 q 933 504 982 551 q 868 382 883 457 l 792 0 l 544 0 l 626 408 q 631 444 631 428 q 601 523 631 494 q 521 551 572 551 q 409 504 458 551 q 344 382 360 457 l 268 0 l 21 0 l 169 751 l 417 751 l 397 651 q 631 761 488 761 q 790 717 725 761 q 876 597 854 674 q 1154 761 988 761 z "},"ṃ":{"ha":1464,"x_min":21,"x_max":1411,"o":"m 1154 761 q 1342 694 1272 761 q 1411 517 1411 626 q 1404 444 1411 476 l 1315 0 l 1068 0 l 1149 408 q 1153 446 1153 429 q 1124 523 1153 494 q 1043 551 1094 551 q 933 504 982 551 q 868 382 883 457 l 792 0 l 544 0 l 626 408 q 631 444 631 428 q 601 523 631 494 q 521 551 572 551 q 409 504 458 551 q 344 382 360 457 l 268 0 l 21 0 l 169 751 l 417 751 l 397 651 q 631 761 488 761 q 790 717 725 761 q 876 597 854 674 q 1154 761 988 761 m 657 -94 q 736 -124 707 -94 q 765 -203 765 -154 q 719 -313 765 -268 q 606 -358 672 -358 q 528 -328 557 -358 q 499 -250 499 -299 q 545 -140 499 -185 q 657 -94 592 -94 z "},"n":{"ha":940,"x_min":21,"x_max":888,"o":"m 631 761 q 818 694 749 761 q 888 517 888 626 q 881 444 888 476 l 792 0 l 544 0 l 626 408 q 631 444 631 428 q 601 523 631 494 q 521 551 572 551 q 409 504 458 551 q 344 382 360 457 l 268 0 l 21 0 l 169 751 l 417 751 l 397 651 q 631 761 488 761 z "},"ń":{"ha":940,"x_min":21,"x_max":888,"o":"m 631 761 q 818 694 749 761 q 888 517 888 626 q 881 444 888 476 l 792 0 l 544 0 l 626 408 q 631 444 631 428 q 601 523 631 494 q 521 551 572 551 q 409 504 458 551 q 344 382 360 457 l 268 0 l 21 0 l 169 751 l 417 751 l 397 651 q 631 761 488 761 m 642 1069 l 846 992 l 644 832 l 475 846 l 642 1069 z "},"ŉ":{"ha":1175,"x_min":82,"x_max":1122,"o":"m 153 974 l 321 974 l 217 608 l 82 608 l 153 974 m 865 761 q 1053 694 983 761 q 1122 517 1122 626 q 1115 444 1122 476 l 1026 0 l 779 0 l 861 408 q 865 444 865 428 q 836 523 865 494 q 756 551 807 551 q 644 504 693 551 q 579 382 594 457 l 503 0 l 256 0 l 404 751 l 651 751 l 632 651 q 865 761 722 761 z "},"ň":{"ha":940,"x_min":21,"x_max":903,"o":"m 631 761 q 818 694 749 761 q 888 517 888 626 q 881 444 888 476 l 792 0 l 544 0 l 626 408 q 631 444 631 428 q 601 523 631 494 q 521 551 572 551 q 409 504 458 551 q 344 382 360 457 l 268 0 l 21 0 l 169 751 l 417 751 l 397 651 q 631 761 488 761 m 725 1060 l 903 1060 l 710 847 l 492 847 l 381 1060 l 558 1060 l 624 967 l 725 1060 z "},"ņ":{"ha":940,"x_min":21,"x_max":888,"o":"m 631 761 q 818 694 749 761 q 888 517 888 626 q 881 444 888 476 l 792 0 l 544 0 l 626 408 q 631 444 631 428 q 601 523 631 494 q 521 551 572 551 q 409 504 458 551 q 344 382 360 457 l 268 0 l 21 0 l 169 751 l 417 751 l 397 651 q 631 761 488 761 m 299 -83 l 501 -83 l 357 -325 l 213 -325 l 299 -83 z "},"ṅ":{"ha":940,"x_min":21,"x_max":888,"o":"m 631 761 q 818 694 749 761 q 888 517 888 626 q 881 444 888 476 l 792 0 l 544 0 l 626 408 q 631 444 631 428 q 601 523 631 494 q 521 551 572 551 q 409 504 458 551 q 344 382 360 457 l 268 0 l 21 0 l 169 751 l 417 751 l 397 651 q 631 761 488 761 m 649 1097 q 728 1067 699 1097 q 757 989 757 1038 q 710 878 757 924 q 597 833 664 833 q 519 863 549 833 q 490 942 490 893 q 537 1052 490 1007 q 649 1097 583 1097 z "},"ṇ":{"ha":940,"x_min":21,"x_max":888,"o":"m 631 761 q 818 694 749 761 q 888 517 888 626 q 881 444 888 476 l 792 0 l 544 0 l 626 408 q 631 444 631 428 q 601 523 631 494 q 521 551 572 551 q 409 504 458 551 q 344 382 360 457 l 268 0 l 21 0 l 169 751 l 417 751 l 397 651 q 631 761 488 761 m 399 -94 q 478 -124 449 -94 q 507 -203 507 -154 q 460 -313 507 -268 q 347 -358 414 -358 q 269 -328 299 -358 q 240 -250 240 -299 q 287 -140 240 -185 q 399 -94 333 -94 z "},"ŋ":{"ha":936,"x_min":19,"x_max":890,"o":"m 667 761 q 831 704 772 761 q 890 547 890 647 q 883 474 890 507 l 783 -28 q 668 -212 758 -146 q 457 -279 578 -279 q 276 -232 350 -279 l 374 -56 q 451 -82 411 -82 q 508 -62 485 -82 q 540 -1 532 -42 l 622 403 q 626 442 626 424 q 599 514 626 488 q 522 540 572 540 q 408 497 457 540 q 343 383 358 453 l 267 0 l 19 0 l 169 751 l 417 751 l 393 629 q 514 728 444 694 q 667 761 583 761 z "},"ǌ":{"ha":1375,"x_min":21,"x_max":1397,"o":"m 631 761 q 818 694 749 761 q 888 517 888 626 q 881 444 888 476 l 792 0 l 544 0 l 626 408 q 631 444 631 428 q 601 523 631 494 q 521 551 572 551 q 409 504 458 551 q 344 382 360 457 l 268 0 l 21 0 l 169 751 l 417 751 l 397 651 q 631 761 488 761 m 807 -78 q 851 -83 828 -83 q 922 -55 893 -83 q 961 19 951 -26 l 1108 751 l 1356 751 l 1197 -37 q 1096 -217 1175 -154 q 899 -279 1017 -279 q 738 -247 811 -279 l 807 -78 m 1289 1097 q 1368 1067 1339 1097 q 1397 989 1397 1038 q 1351 878 1397 924 q 1238 833 1304 833 q 1160 863 1189 833 q 1131 942 1131 893 q 1177 1052 1131 1007 q 1289 1097 1224 1097 z "},"ṉ":{"ha":940,"x_min":21,"x_max":888,"o":"m 631 761 q 818 694 749 761 q 888 517 888 626 q 881 444 888 476 l 792 0 l 544 0 l 626 408 q 631 444 631 428 q 601 523 631 494 q 521 551 572 551 q 409 504 458 551 q 344 382 360 457 l 268 0 l 21 0 l 169 751 l 417 751 l 397 651 q 631 761 488 761 m 201 -107 l 592 -107 l 564 -253 l 174 -253 l 201 -107 z "},"ñ":{"ha":940,"x_min":21,"x_max":896,"o":"m 631 761 q 818 694 749 761 q 888 517 888 626 q 881 444 888 476 l 792 0 l 544 0 l 626 408 q 631 444 631 428 q 601 523 631 494 q 521 551 572 551 q 409 504 458 551 q 344 382 360 457 l 268 0 l 21 0 l 169 751 l 417 751 l 397 651 q 631 761 488 761 m 896 1050 q 832 885 874 940 q 718 831 790 831 q 660 841 686 831 q 601 871 633 851 q 578 883 597 874 q 546 893 560 893 q 496 835 507 893 l 356 835 q 421 999 378 943 q 535 1056 464 1056 q 593 1045 567 1056 q 651 1015 619 1035 q 707 993 690 993 q 757 1050 746 993 l 896 1050 z "},"o":{"ha":894,"x_min":35,"x_max":861,"o":"m 486 760 q 685 717 600 760 q 815 596 769 674 q 861 414 861 518 q 803 194 861 290 q 643 45 746 99 q 410 -8 540 -8 q 211 35 296 -8 q 81 156 126 78 q 35 339 35 235 q 92 558 35 463 q 252 707 150 654 q 486 760 354 760 m 467 560 q 336 501 388 560 q 285 350 285 443 q 324 231 285 276 q 428 186 363 186 q 558 244 507 186 q 610 396 610 303 q 571 515 610 469 q 467 560 532 560 z "},"ó":{"ha":894,"x_min":35,"x_max":861,"o":"m 486 760 q 685 717 600 760 q 815 596 769 674 q 861 414 861 518 q 803 194 861 290 q 643 45 746 99 q 410 -8 540 -8 q 211 35 296 -8 q 81 156 126 78 q 35 339 35 235 q 92 558 35 463 q 252 707 150 654 q 486 760 354 760 m 467 560 q 336 501 388 560 q 285 350 285 443 q 324 231 285 276 q 428 186 363 186 q 558 244 507 186 q 610 396 610 303 q 571 515 610 469 q 467 560 532 560 m 544 1069 l 749 992 l 547 832 l 378 846 l 544 1069 z "},"ŏ":{"ha":894,"x_min":35,"x_max":861,"o":"m 486 760 q 685 717 600 760 q 815 596 769 674 q 861 414 861 518 q 803 194 861 290 q 643 45 746 99 q 410 -8 540 -8 q 211 35 296 -8 q 81 156 126 78 q 35 339 35 235 q 92 558 35 463 q 252 707 150 654 q 486 760 354 760 m 467 560 q 336 501 388 560 q 285 350 285 443 q 324 231 285 276 q 428 186 363 186 q 558 244 507 186 q 610 396 610 303 q 571 515 610 469 q 467 560 532 560 m 467 1057 q 479 1000 463 1022 q 528 978 496 978 q 585 999 560 978 q 619 1057 610 1021 l 774 1057 q 675 894 750 956 q 500 833 600 833 q 362 882 413 833 q 311 1014 311 931 q 314 1057 311 1042 l 467 1057 z "},"ô":{"ha":894,"x_min":35,"x_max":861,"o":"m 486 760 q 685 717 600 760 q 815 596 769 674 q 861 414 861 518 q 803 194 861 290 q 643 45 746 99 q 410 -8 540 -8 q 211 35 296 -8 q 81 156 126 78 q 35 339 35 235 q 92 558 35 463 q 252 707 150 654 q 486 760 354 760 m 467 560 q 336 501 388 560 q 285 350 285 443 q 324 231 285 276 q 428 186 363 186 q 558 244 507 186 q 610 396 610 303 q 571 515 610 469 q 467 560 532 560 m 765 847 l 588 847 l 522 940 l 421 847 l 243 847 l 436 1060 l 654 1060 l 765 847 z "},"ố":{"ha":894,"x_min":35,"x_max":861,"o":"m 486 760 q 685 717 600 760 q 815 596 769 674 q 861 414 861 518 q 803 194 861 290 q 643 45 746 99 q 410 -8 540 -8 q 211 35 296 -8 q 81 156 126 78 q 35 339 35 235 q 92 558 35 463 q 252 707 150 654 q 486 760 354 760 m 467 560 q 336 501 388 560 q 285 350 285 443 q 324 231 285 276 q 428 186 363 186 q 558 244 507 186 q 610 396 610 303 q 571 515 610 469 q 467 560 532 560 m 792 835 l 592 835 l 518 921 l 415 835 l 214 835 l 407 1006 l 657 1006 l 792 835 m 607 1269 l 775 1168 l 554 1050 l 408 1089 l 607 1269 z "},"ộ":{"ha":894,"x_min":35,"x_max":861,"o":"m 486 760 q 685 717 600 760 q 815 596 769 674 q 861 414 861 518 q 803 194 861 290 q 643 45 746 99 q 410 -8 540 -8 q 211 35 296 -8 q 81 156 126 78 q 35 339 35 235 q 92 558 35 463 q 252 707 150 654 q 486 760 354 760 m 467 560 q 336 501 388 560 q 285 350 285 443 q 324 231 285 276 q 428 186 363 186 q 558 244 507 186 q 610 396 610 303 q 571 515 610 469 q 467 560 532 560 m 396 -94 q 475 -124 446 -94 q 504 -203 504 -154 q 458 -313 504 -268 q 344 -358 411 -358 q 267 -328 296 -358 q 238 -250 238 -299 q 284 -140 238 -185 q 396 -94 331 -94 m 803 847 l 625 847 l 560 940 l 458 847 l 281 847 l 474 1060 l 692 1060 l 803 847 z "},"ồ":{"ha":894,"x_min":35,"x_max":861,"o":"m 486 760 q 685 717 600 760 q 815 596 769 674 q 861 414 861 518 q 803 194 861 290 q 643 45 746 99 q 410 -8 540 -8 q 211 35 296 -8 q 81 156 126 78 q 35 339 35 235 q 92 558 35 463 q 252 707 150 654 q 486 760 354 760 m 467 560 q 336 501 388 560 q 285 350 285 443 q 324 231 285 276 q 428 186 363 186 q 558 244 507 186 q 610 396 610 303 q 571 515 610 469 q 467 560 532 560 m 792 835 l 592 835 l 518 921 l 415 835 l 214 835 l 407 1006 l 657 1006 l 792 835 m 474 1269 l 671 1089 l 525 1050 l 306 1168 l 474 1269 z "},"ổ":{"ha":894,"x_min":35,"x_max":861,"o":"m 486 760 q 685 717 600 760 q 815 596 769 674 q 861 414 861 518 q 803 194 861 290 q 643 45 746 99 q 410 -8 540 -8 q 211 35 296 -8 q 81 156 126 78 q 35 339 35 235 q 92 558 35 463 q 252 707 150 654 q 486 760 354 760 m 467 560 q 336 501 388 560 q 285 350 285 443 q 324 231 285 276 q 428 186 363 186 q 558 244 507 186 q 610 396 610 303 q 571 515 610 469 q 467 560 532 560 m 790 835 l 590 835 l 517 921 l 414 835 l 213 835 l 406 1006 l 656 1006 l 790 835 m 583 1290 q 669 1267 640 1290 q 697 1206 697 1243 q 665 1126 697 1164 q 565 1047 633 1088 l 474 1086 q 538 1153 538 1125 q 511 1172 538 1172 q 465 1158 486 1172 l 424 1244 q 583 1290 508 1290 z "},"ỗ":{"ha":894,"x_min":35,"x_max":861,"o":"m 486 760 q 685 717 600 760 q 815 596 769 674 q 861 414 861 518 q 803 194 861 290 q 643 45 746 99 q 410 -8 540 -8 q 211 35 296 -8 q 81 156 126 78 q 35 339 35 235 q 92 558 35 463 q 252 707 150 654 q 486 760 354 760 m 467 560 q 336 501 388 560 q 285 350 285 443 q 324 231 285 276 q 428 186 363 186 q 558 244 507 186 q 610 396 610 303 q 571 515 610 469 q 467 560 532 560 m 792 835 l 592 835 l 518 921 l 415 835 l 214 835 l 407 1006 l 657 1006 l 792 835 m 822 1240 q 764 1101 804 1147 q 653 1054 724 1054 q 590 1064 618 1054 q 525 1090 561 1074 q 461 1113 481 1113 q 426 1099 438 1113 q 408 1057 414 1085 l 292 1057 q 349 1197 310 1149 q 460 1244 389 1244 q 523 1235 494 1244 q 592 1208 551 1226 q 624 1194 608 1200 q 651 1188 640 1188 q 687 1201 675 1188 q 704 1240 699 1214 l 822 1240 z "},"ȍ":{"ha":894,"x_min":35,"x_max":861,"o":"m 486 760 q 685 717 600 760 q 815 596 769 674 q 861 414 861 518 q 803 194 861 290 q 643 45 746 99 q 410 -8 540 -8 q 211 35 296 -8 q 81 156 126 78 q 35 339 35 235 q 92 558 35 463 q 252 707 150 654 q 486 760 354 760 m 467 560 q 336 501 388 560 q 285 350 285 443 q 324 231 285 276 q 428 186 363 186 q 558 244 507 186 q 610 396 610 303 q 571 515 610 469 q 467 560 532 560 m 407 1074 l 475 844 l 299 832 l 207 1004 l 407 1074 m 681 1074 l 749 844 l 572 832 l 481 1004 l 681 1074 z "},"ö":{"ha":894,"x_min":35,"x_max":861,"o":"m 486 760 q 685 717 600 760 q 815 596 769 674 q 861 414 861 518 q 803 194 861 290 q 643 45 746 99 q 410 -8 540 -8 q 211 35 296 -8 q 81 156 126 78 q 35 339 35 235 q 92 558 35 463 q 252 707 150 654 q 486 760 354 760 m 467 560 q 336 501 388 560 q 285 350 285 443 q 324 231 285 276 q 428 186 363 186 q 558 244 507 186 q 610 396 610 303 q 571 515 610 469 q 467 560 532 560 m 413 1064 q 476 1040 453 1064 q 500 975 500 1015 q 462 886 500 924 q 371 849 424 849 q 308 874 332 849 q 283 938 283 899 q 322 1027 283 990 q 413 1064 360 1064 m 679 1064 q 742 1040 718 1064 q 765 975 765 1015 q 728 886 765 924 q 638 849 690 849 q 574 874 597 849 q 550 938 550 899 q 588 1027 550 990 q 679 1064 626 1064 z "},"ȫ":{"ha":894,"x_min":35,"x_max":861,"o":"m 486 760 q 685 717 600 760 q 815 596 769 674 q 861 414 861 518 q 803 194 861 290 q 643 45 746 99 q 410 -8 540 -8 q 211 35 296 -8 q 81 156 126 78 q 35 339 35 235 q 92 558 35 463 q 252 707 150 654 q 486 760 354 760 m 467 560 q 336 501 388 560 q 285 350 285 443 q 324 231 285 276 q 428 186 363 186 q 558 244 507 186 q 610 396 610 303 q 571 515 610 469 q 467 560 532 560 m 410 1047 q 472 1023 449 1047 q 496 960 496 999 q 458 872 496 908 q 369 835 421 835 q 306 859 329 835 q 282 921 282 883 q 319 1011 282 975 q 410 1047 356 1047 m 681 1047 q 743 1023 719 1047 q 767 960 767 999 q 729 872 767 908 q 640 835 692 835 q 576 859 600 835 q 553 921 553 883 q 590 1011 553 975 q 681 1047 626 1047 m 376 1239 l 783 1239 l 756 1100 l 350 1100 l 376 1239 z "},"ȱ":{"ha":894,"x_min":35,"x_max":861,"o":"m 486 760 q 685 717 600 760 q 815 596 769 674 q 861 414 861 518 q 803 194 861 290 q 643 45 746 99 q 410 -8 540 -8 q 211 35 296 -8 q 81 156 126 78 q 35 339 35 235 q 92 558 35 463 q 252 707 150 654 q 486 760 354 760 m 467 560 q 336 501 388 560 q 285 350 285 443 q 324 231 285 276 q 428 186 363 186 q 558 244 507 186 q 610 396 610 303 q 571 515 610 469 q 467 560 532 560 m 557 1064 q 626 1038 600 1064 q 651 969 651 1011 q 611 874 651 913 q 513 835 571 835 q 445 861 471 835 q 419 929 419 888 q 460 1025 419 986 q 557 1064 501 1064 m 389 1239 l 796 1239 l 768 1100 l 363 1100 l 389 1239 z "},"ọ":{"ha":894,"x_min":35,"x_max":861,"o":"m 486 760 q 685 717 600 760 q 815 596 769 674 q 861 414 861 518 q 803 194 861 290 q 643 45 746 99 q 410 -8 540 -8 q 211 35 296 -8 q 81 156 126 78 q 35 339 35 235 q 92 558 35 463 q 252 707 150 654 q 486 760 354 760 m 467 560 q 336 501 388 560 q 285 350 285 443 q 324 231 285 276 q 428 186 363 186 q 558 244 507 186 q 610 396 610 303 q 571 515 610 469 q 467 560 532 560 m 396 -94 q 475 -124 446 -94 q 504 -203 504 -154 q 458 -313 504 -268 q 344 -358 411 -358 q 267 -328 296 -358 q 238 -250 238 -299 q 284 -140 238 -185 q 396 -94 331 -94 z "},"ò":{"ha":894,"x_min":35,"x_max":861,"o":"m 486 760 q 685 717 600 760 q 815 596 769 674 q 861 414 861 518 q 803 194 861 290 q 643 45 746 99 q 410 -8 540 -8 q 211 35 296 -8 q 81 156 126 78 q 35 339 35 235 q 92 558 35 463 q 252 707 150 654 q 486 760 354 760 m 467 560 q 336 501 388 560 q 285 350 285 443 q 324 231 285 276 q 428 186 363 186 q 558 244 507 186 q 610 396 610 303 q 571 515 610 469 q 467 560 532 560 m 497 1069 l 644 846 l 475 832 l 293 992 l 497 1069 z "},"ỏ":{"ha":894,"x_min":35,"x_max":861,"o":"m 486 760 q 685 717 600 760 q 815 596 769 674 q 861 414 861 518 q 803 194 861 290 q 643 45 746 99 q 410 -8 540 -8 q 211 35 296 -8 q 81 156 126 78 q 35 339 35 235 q 92 558 35 463 q 252 707 150 654 q 486 760 354 760 m 467 560 q 336 501 388 560 q 285 350 285 443 q 324 231 285 276 q 428 186 363 186 q 558 244 507 186 q 610 396 610 303 q 571 515 610 469 q 467 560 532 560 m 568 1133 q 666 1104 631 1133 q 701 1026 701 1075 q 659 917 701 972 q 540 810 617 863 l 439 856 q 500 915 478 885 q 522 968 522 946 q 514 990 522 982 q 490 999 506 999 q 435 979 464 999 l 390 1081 q 568 1133 481 1133 z "},"ơ":{"ha":936,"x_min":35,"x_max":1021,"o":"m 1004 958 q 1021 856 1021 904 q 965 691 1021 761 q 817 593 910 621 q 861 414 861 517 q 803 194 861 290 q 643 45 746 99 q 410 -8 540 -8 q 211 35 296 -8 q 81 156 126 78 q 35 339 35 235 q 92 558 35 463 q 252 707 150 654 q 486 760 354 760 q 692 713 604 760 q 721 710 711 710 q 795 745 767 710 q 824 828 824 781 q 808 892 824 861 l 1004 958 m 428 186 q 558 244 507 186 q 610 396 610 303 q 571 515 610 469 q 467 560 532 560 q 336 501 388 560 q 285 350 285 443 q 324 231 285 276 q 428 186 363 186 z "},"ớ":{"ha":936,"x_min":35,"x_max":1021,"o":"m 1004 958 q 1021 856 1021 904 q 965 691 1021 761 q 817 593 910 621 q 861 414 861 517 q 803 194 861 290 q 643 45 746 99 q 410 -8 540 -8 q 211 35 296 -8 q 81 156 126 78 q 35 339 35 235 q 92 558 35 463 q 252 707 150 654 q 486 760 354 760 q 692 713 604 760 q 721 710 711 710 q 795 745 767 710 q 824 828 824 781 q 808 892 824 861 l 1004 958 m 428 186 q 558 244 507 186 q 610 396 610 303 q 571 515 610 469 q 467 560 532 560 q 336 501 388 560 q 285 350 285 443 q 324 231 285 276 q 428 186 363 186 m 546 1069 l 750 992 l 549 832 l 379 846 l 546 1069 z "},"ợ":{"ha":936,"x_min":35,"x_max":1021,"o":"m 1004 958 q 1021 856 1021 904 q 965 691 1021 761 q 817 593 910 621 q 861 414 861 517 q 803 194 861 290 q 643 45 746 99 q 410 -8 540 -8 q 211 35 296 -8 q 81 156 126 78 q 35 339 35 235 q 92 558 35 463 q 252 707 150 654 q 486 760 354 760 q 692 713 604 760 q 721 710 711 710 q 795 745 767 710 q 824 828 824 781 q 808 892 824 861 l 1004 958 m 428 186 q 558 244 507 186 q 610 396 610 303 q 571 515 610 469 q 467 560 532 560 q 336 501 388 560 q 285 350 285 443 q 324 231 285 276 q 428 186 363 186 m 396 -94 q 475 -124 446 -94 q 504 -203 504 -154 q 458 -313 504 -268 q 344 -358 411 -358 q 267 -328 296 -358 q 238 -250 238 -299 q 284 -140 238 -185 q 396 -94 331 -94 z "},"ờ":{"ha":936,"x_min":35,"x_max":1021,"o":"m 1004 958 q 1021 856 1021 904 q 965 691 1021 761 q 817 593 910 621 q 861 414 861 517 q 803 194 861 290 q 643 45 746 99 q 410 -8 540 -8 q 211 35 296 -8 q 81 156 126 78 q 35 339 35 235 q 92 558 35 463 q 252 707 150 654 q 486 760 354 760 q 692 713 604 760 q 721 710 711 710 q 795 745 767 710 q 824 828 824 781 q 808 892 824 861 l 1004 958 m 428 186 q 558 244 507 186 q 610 396 610 303 q 571 515 610 469 q 467 560 532 560 q 336 501 388 560 q 285 350 285 443 q 324 231 285 276 q 428 186 363 186 m 497 1069 l 644 846 l 475 832 l 293 992 l 497 1069 z "},"ở":{"ha":936,"x_min":35,"x_max":1021,"o":"m 1004 958 q 1021 856 1021 904 q 965 691 1021 761 q 817 593 910 621 q 861 414 861 517 q 803 194 861 290 q 643 45 746 99 q 410 -8 540 -8 q 211 35 296 -8 q 81 156 126 78 q 35 339 35 235 q 92 558 35 463 q 252 707 150 654 q 486 760 354 760 q 692 713 604 760 q 721 710 711 710 q 795 745 767 710 q 824 828 824 781 q 808 892 824 861 l 1004 958 m 428 186 q 558 244 507 186 q 610 396 610 303 q 571 515 610 469 q 467 560 532 560 q 336 501 388 560 q 285 350 285 443 q 324 231 285 276 q 428 186 363 186 m 569 1133 q 667 1104 632 1133 q 703 1026 703 1075 q 660 917 703 972 q 542 810 618 863 l 440 856 q 501 915 479 885 q 524 968 524 946 q 515 990 524 982 q 492 999 507 999 q 436 979 465 999 l 392 1081 q 569 1133 482 1133 z "},"ỡ":{"ha":936,"x_min":35,"x_max":1021,"o":"m 1004 958 q 1021 856 1021 904 q 965 691 1021 761 q 817 593 910 621 q 861 414 861 517 q 803 194 861 290 q 643 45 746 99 q 410 -8 540 -8 q 211 35 296 -8 q 81 156 126 78 q 35 339 35 235 q 92 558 35 463 q 252 707 150 654 q 486 760 354 760 q 692 713 604 760 q 721 710 711 710 q 795 745 767 710 q 824 828 824 781 q 808 892 824 861 l 1004 958 m 428 186 q 558 244 507 186 q 610 396 610 303 q 571 515 610 469 q 467 560 532 560 q 336 501 388 560 q 285 350 285 443 q 324 231 285 276 q 428 186 363 186 m 799 1050 q 735 885 776 940 q 621 831 693 831 q 563 841 589 831 q 504 871 536 851 q 481 883 500 874 q 449 893 463 893 q 399 835 410 893 l 258 835 q 324 999 281 943 q 438 1056 367 1056 q 496 1045 469 1056 q 554 1015 522 1035 q 610 993 593 993 q 660 1050 649 993 l 799 1050 z "},"ő":{"ha":894,"x_min":35,"x_max":861,"o":"m 486 760 q 685 717 600 760 q 815 596 769 674 q 861 414 861 518 q 803 194 861 290 q 643 45 746 99 q 410 -8 540 -8 q 211 35 296 -8 q 81 156 126 78 q 35 339 35 235 q 92 558 35 463 q 252 707 150 654 q 486 760 354 760 m 467 560 q 336 501 388 560 q 285 350 285 443 q 324 231 285 276 q 428 186 363 186 q 558 244 507 186 q 610 396 610 303 q 571 515 610 469 q 467 560 532 560 m 385 1074 l 557 1004 l 429 832 l 258 844 l 385 1074 m 658 1074 l 831 1004 l 703 832 l 532 844 l 658 1074 z "},"ȏ":{"ha":894,"x_min":35,"x_max":861,"o":"m 486 760 q 685 717 600 760 q 815 596 769 674 q 861 414 861 518 q 803 194 861 290 q 643 45 746 99 q 410 -8 540 -8 q 211 35 296 -8 q 81 156 126 78 q 35 339 35 235 q 92 558 35 463 q 252 707 150 654 q 486 760 354 760 m 467 560 q 336 501 388 560 q 285 350 285 443 q 324 231 285 276 q 428 186 363 186 q 558 244 507 186 q 610 396 610 303 q 571 515 610 469 q 467 560 532 560 m 576 833 q 564 890 581 868 q 515 913 547 913 q 458 891 483 913 q 424 833 433 869 l 269 833 q 368 996 293 935 q 543 1057 443 1057 q 681 1008 631 1057 q 732 876 732 960 q 729 833 732 849 l 576 833 z "},"ō":{"ha":894,"x_min":35,"x_max":861,"o":"m 486 760 q 685 717 600 760 q 815 596 769 674 q 861 414 861 518 q 803 194 861 290 q 643 45 746 99 q 410 -8 540 -8 q 211 35 296 -8 q 81 156 126 78 q 35 339 35 235 q 92 558 35 463 q 252 707 150 654 q 486 760 354 760 m 467 560 q 336 501 388 560 q 285 350 285 443 q 324 231 285 276 q 428 186 363 186 q 558 244 507 186 q 610 396 610 303 q 571 515 610 469 q 467 560 532 560 m 324 1033 l 753 1033 l 725 888 l 296 888 l 324 1033 z "},"ṓ":{"ha":894,"x_min":35,"x_max":861,"o":"m 486 760 q 685 717 600 760 q 815 596 769 674 q 861 414 861 518 q 803 194 861 290 q 643 45 746 99 q 410 -8 540 -8 q 211 35 296 -8 q 81 156 126 78 q 35 339 35 235 q 92 558 35 463 q 252 707 150 654 q 486 760 354 760 m 467 560 q 336 501 388 560 q 285 350 285 443 q 324 231 285 276 q 428 186 363 186 q 558 244 507 186 q 610 396 610 303 q 571 515 610 469 q 467 560 532 560 m 319 972 l 726 972 l 699 833 l 293 833 l 319 972 m 599 1253 l 767 1151 l 546 1033 l 400 1072 l 599 1253 z "},"ṑ":{"ha":894,"x_min":35,"x_max":861,"o":"m 486 760 q 685 717 600 760 q 815 596 769 674 q 861 414 861 518 q 803 194 861 290 q 643 45 746 99 q 410 -8 540 -8 q 211 35 296 -8 q 81 156 126 78 q 35 339 35 235 q 92 558 35 463 q 252 707 150 654 q 486 760 354 760 m 467 560 q 336 501 388 560 q 285 350 285 443 q 324 231 285 276 q 428 186 363 186 q 558 244 507 186 q 610 396 610 303 q 571 515 610 469 q 467 560 532 560 m 326 972 l 733 972 l 706 833 l 300 833 l 326 972 m 472 1253 l 669 1072 l 524 1033 l 304 1151 l 472 1253 z "},"ǫ":{"ha":894,"x_min":35,"x_max":861,"o":"m 861 414 q 815 216 861 304 q 688 72 769 128 q 578 -43 621 17 q 536 -143 536 -103 q 561 -172 536 -172 q 603 -161 581 -172 l 617 -293 q 478 -324 539 -324 q 382 -294 418 -324 q 346 -206 346 -264 q 372 -104 346 -151 q 454 -7 397 -57 q 410 -8 439 -8 q 211 35 296 -8 q 81 156 126 78 q 35 339 35 235 q 92 558 35 463 q 252 707 150 654 q 486 760 354 760 q 685 717 600 760 q 815 596 769 674 q 861 414 861 518 m 285 350 q 324 231 285 276 q 428 186 363 186 q 558 244 507 186 q 610 396 610 303 q 571 515 610 469 q 467 560 532 560 q 336 501 388 560 q 285 350 285 443 z "},"ø":{"ha":894,"x_min":35,"x_max":861,"o":"m 729 690 q 827 574 793 644 q 861 414 861 503 q 803 194 861 290 q 643 45 746 99 q 410 -8 540 -8 q 258 15 326 -8 l 164 -119 l 44 -119 l 169 60 q 69 176 104 104 q 35 339 35 247 q 92 558 35 463 q 252 707 150 654 q 486 760 354 760 q 642 735 574 760 l 736 871 l 856 871 l 729 690 m 269 349 q 296 240 269 286 l 525 569 q 468 579 496 579 q 366 549 411 579 q 295 467 321 519 q 269 349 269 415 m 426 167 q 528 197 483 167 q 599 278 574 226 q 625 397 625 331 q 600 504 625 461 l 371 176 q 426 167 394 167 z "},"ǿ":{"ha":894,"x_min":35,"x_max":861,"o":"m 729 690 q 827 574 793 644 q 861 414 861 503 q 803 194 861 290 q 643 45 746 99 q 410 -8 540 -8 q 258 15 326 -8 l 164 -119 l 44 -119 l 169 60 q 69 176 104 104 q 35 339 35 247 q 92 558 35 463 q 252 707 150 654 q 486 760 354 760 q 642 735 574 760 l 736 871 l 856 871 l 729 690 m 269 349 q 296 240 269 286 l 525 569 q 468 579 496 579 q 366 549 411 579 q 295 467 321 519 q 269 349 269 415 m 426 167 q 528 197 483 167 q 599 278 574 226 q 625 397 625 331 q 600 504 625 461 l 371 176 q 426 167 394 167 m 551 1069 l 756 992 l 554 832 l 385 846 l 551 1069 z "},"õ":{"ha":894,"x_min":35,"x_max":861,"o":"m 486 760 q 685 717 600 760 q 815 596 769 674 q 861 414 861 518 q 803 194 861 290 q 643 45 746 99 q 410 -8 540 -8 q 211 35 296 -8 q 81 156 126 78 q 35 339 35 235 q 92 558 35 463 q 252 707 150 654 q 486 760 354 760 m 467 560 q 336 501 388 560 q 285 350 285 443 q 324 231 285 276 q 428 186 363 186 q 558 244 507 186 q 610 396 610 303 q 571 515 610 469 q 467 560 532 560 m 799 1050 q 735 885 776 940 q 621 831 693 831 q 563 841 589 831 q 504 871 536 851 q 481 883 500 874 q 449 893 463 893 q 399 835 410 893 l 258 835 q 324 999 281 943 q 438 1056 367 1056 q 496 1045 469 1056 q 554 1015 522 1035 q 610 993 593 993 q 660 1050 649 993 l 799 1050 z "},"ṍ":{"ha":894,"x_min":35,"x_max":861,"o":"m 486 760 q 685 717 600 760 q 815 596 769 674 q 861 414 861 518 q 803 194 861 290 q 643 45 746 99 q 410 -8 540 -8 q 211 35 296 -8 q 81 156 126 78 q 35 339 35 235 q 92 558 35 463 q 252 707 150 654 q 486 760 354 760 m 467 560 q 336 501 388 560 q 285 350 285 443 q 324 231 285 276 q 428 186 363 186 q 558 244 507 186 q 610 396 610 303 q 571 515 610 469 q 467 560 532 560 m 785 1018 q 726 878 767 925 q 615 832 686 832 q 552 842 581 832 q 488 868 524 851 q 424 890 443 890 q 388 876 400 890 q 371 835 376 863 l 254 835 q 312 974 272 926 q 422 1022 351 1022 q 485 1013 457 1022 q 554 986 514 1004 q 587 972 571 978 q 614 965 603 965 q 649 978 638 965 q 667 1018 661 992 l 785 1018 m 613 1294 l 781 1193 l 560 1075 l 414 1114 l 613 1294 z "},"ṏ":{"ha":894,"x_min":35,"x_max":861,"o":"m 486 760 q 685 717 600 760 q 815 596 769 674 q 861 414 861 518 q 803 194 861 290 q 643 45 746 99 q 410 -8 540 -8 q 211 35 296 -8 q 81 156 126 78 q 35 339 35 235 q 92 558 35 463 q 252 707 150 654 q 486 760 354 760 m 467 560 q 336 501 388 560 q 285 350 285 443 q 324 231 285 276 q 428 186 363 186 q 558 244 507 186 q 610 396 610 303 q 571 515 610 469 q 467 560 532 560 m 781 1018 q 722 878 763 925 q 611 832 682 832 q 548 842 576 832 q 483 868 519 851 q 419 890 439 890 q 384 876 396 890 q 367 835 372 863 l 250 835 q 308 974 268 926 q 418 1022 347 1022 q 481 1013 453 1022 q 550 986 510 1004 q 583 972 567 978 q 610 965 599 965 q 645 978 633 965 q 663 1018 657 992 l 781 1018 m 450 1286 q 513 1262 489 1286 q 536 1199 536 1238 q 499 1110 536 1147 q 410 1074 461 1074 q 346 1098 369 1074 q 322 1160 322 1122 q 359 1250 322 1214 q 450 1286 396 1286 m 721 1286 q 783 1262 760 1286 q 807 1199 807 1238 q 769 1110 807 1147 q 681 1074 732 1074 q 617 1098 640 1074 q 593 1160 593 1122 q 630 1250 593 1214 q 721 1286 667 1286 z "},"ȭ":{"ha":894,"x_min":35,"x_max":861,"o":"m 486 760 q 685 717 600 760 q 815 596 769 674 q 861 414 861 518 q 803 194 861 290 q 643 45 746 99 q 410 -8 540 -8 q 211 35 296 -8 q 81 156 126 78 q 35 339 35 235 q 92 558 35 463 q 252 707 150 654 q 486 760 354 760 m 467 560 q 336 501 388 560 q 285 350 285 443 q 324 231 285 276 q 428 186 363 186 q 558 244 507 186 q 610 396 610 303 q 571 515 610 469 q 467 560 532 560 m 783 1018 q 725 878 765 925 q 614 832 685 832 q 551 842 579 832 q 486 868 522 851 q 422 890 442 890 q 387 876 399 890 q 369 835 375 863 l 253 835 q 310 974 271 926 q 421 1022 350 1022 q 484 1013 456 1022 q 553 986 513 1004 q 585 972 569 978 q 613 965 601 965 q 648 978 636 965 q 665 1018 660 992 l 783 1018 m 371 1214 l 778 1214 l 750 1075 l 344 1075 l 371 1214 z "},"œ":{"ha":1421,"x_min":35,"x_max":1386,"o":"m 1032 760 q 1292 665 1197 760 q 1386 407 1386 569 q 1379 321 1386 372 l 840 321 q 893 215 850 253 q 1001 178 936 178 q 1189 254 1101 178 l 1306 125 q 1153 26 1240 60 q 963 -8 1067 -8 q 704 114 785 -8 q 578 23 653 54 q 410 -8 503 -8 q 211 35 296 -8 q 81 156 126 78 q 35 339 35 235 q 92 558 35 463 q 252 707 150 654 q 486 760 354 760 q 642 728 575 760 q 750 636 710 696 q 873 728 801 696 q 1032 760 944 760 m 1143 440 q 1144 461 1144 447 q 1110 554 1144 518 q 1018 590 1075 590 q 910 549 956 590 q 847 440 865 508 l 1143 440 m 429 186 q 560 245 508 186 q 611 396 611 304 q 572 515 611 469 q 467 560 532 560 q 336 501 388 560 q 285 350 285 443 q 324 231 285 275 q 429 186 363 186 z "},"p":{"ha":960,"x_min":-28,"x_max":928,"o":"m 636 760 q 788 718 721 760 q 891 602 854 676 q 928 431 928 528 q 875 208 928 308 q 731 49 822 107 q 531 -10 640 -10 q 388 24 447 -10 q 299 124 329 58 l 219 -269 l -28 -269 l 176 751 l 422 751 l 404 663 q 511 735 451 710 q 636 760 571 760 m 539 571 q 444 541 488 571 q 374 461 400 511 q 349 351 349 411 q 387 240 349 282 q 489 197 425 197 q 583 226 540 197 q 652 306 626 256 q 678 415 678 356 q 640 529 678 488 q 539 571 603 571 z "},"þ":{"ha":960,"x_min":-28,"x_max":928,"o":"m 636 760 q 788 718 721 760 q 891 602 854 676 q 928 431 928 528 q 875 208 928 308 q 731 49 822 107 q 531 -10 640 -10 q 388 24 447 -10 q 299 124 329 58 l 219 -269 l -28 -269 l 232 1031 l 479 1031 l 404 663 q 511 735 451 710 q 636 760 571 760 m 539 571 q 444 541 488 571 q 374 461 400 511 q 349 351 349 411 q 387 240 349 282 q 489 197 425 197 q 583 226 540 197 q 652 306 626 256 q 678 415 678 356 q 640 529 678 488 q 539 571 603 571 z "},"q":{"ha":958,"x_min":32,"x_max":932,"o":"m 324 -10 q 172 32 239 -10 q 69 149 106 74 q 32 321 32 224 q 84 543 32 443 q 227 701 136 643 q 428 760 318 760 q 661 626 597 760 l 686 751 l 932 751 l 729 -269 l 482 -269 l 554 89 q 324 -10 456 -10 m 419 181 q 515 210 471 181 q 585 289 560 239 q 611 399 611 339 q 573 512 611 469 q 471 554 535 554 q 376 524 419 554 q 306 444 332 494 q 281 336 281 394 q 319 223 281 265 q 419 181 357 181 z "},"r":{"ha":606,"x_min":19,"x_max":653,"o":"m 393 635 q 653 761 494 761 l 624 535 q 588 536 611 536 q 427 488 496 536 q 339 363 358 439 l 267 0 l 19 0 l 169 751 l 417 751 l 393 635 z "},"ŕ":{"ha":606,"x_min":19,"x_max":663,"o":"m 393 635 q 653 761 494 761 l 624 535 q 588 536 611 536 q 427 488 496 536 q 339 363 358 439 l 267 0 l 19 0 l 169 751 l 417 751 l 393 635 m 458 1069 l 663 992 l 461 832 l 292 846 l 458 1069 z "},"ř":{"ha":606,"x_min":19,"x_max":719,"o":"m 393 635 q 653 761 494 761 l 624 535 q 588 536 611 536 q 427 488 496 536 q 339 363 358 439 l 267 0 l 19 0 l 169 751 l 417 751 l 393 635 m 542 1060 l 719 1060 l 526 847 l 308 847 l 197 1060 l 375 1060 l 440 967 l 542 1060 z "},"ŗ":{"ha":606,"x_min":-64,"x_max":653,"o":"m 393 635 q 653 761 494 761 l 624 535 q 588 536 611 536 q 427 488 496 536 q 339 363 358 439 l 267 0 l 19 0 l 169 751 l 417 751 l 393 635 m 22 -83 l 225 -83 l 81 -325 l -64 -325 l 22 -83 z "},"ȑ":{"ha":606,"x_min":19,"x_max":663,"o":"m 393 635 q 653 761 494 761 l 624 535 q 588 536 611 536 q 427 488 496 536 q 339 363 358 439 l 267 0 l 19 0 l 169 751 l 417 751 l 393 635 m 321 1074 l 389 844 l 213 832 l 121 1004 l 321 1074 m 594 1074 l 663 844 l 486 832 l 394 1004 l 594 1074 z "},"ṛ":{"ha":606,"x_min":-36,"x_max":653,"o":"m 393 635 q 653 761 494 761 l 624 535 q 588 536 611 536 q 427 488 496 536 q 339 363 358 439 l 267 0 l 19 0 l 169 751 l 417 751 l 393 635 m 122 -94 q 201 -124 172 -94 q 231 -203 231 -154 q 184 -313 231 -268 q 71 -358 138 -358 q -7 -328 22 -358 q -36 -250 -36 -299 q 10 -140 -36 -185 q 122 -94 57 -94 z "},"ȓ":{"ha":606,"x_min":19,"x_max":653,"o":"m 393 635 q 653 761 494 761 l 624 535 q 588 536 611 536 q 427 488 496 536 q 339 363 358 439 l 267 0 l 19 0 l 169 751 l 417 751 l 393 635 m 490 833 q 478 890 494 868 q 429 913 461 913 q 372 891 397 913 q 338 833 347 869 l 183 833 q 282 996 207 935 q 457 1057 357 1057 q 595 1008 544 1057 q 646 876 646 960 q 643 833 646 849 l 490 833 z "},"ṟ":{"ha":606,"x_min":-103,"x_max":653,"o":"m 393 635 q 653 761 494 761 l 624 535 q 588 536 611 536 q 427 488 496 536 q 339 363 358 439 l 267 0 l 19 0 l 169 751 l 417 751 l 393 635 m -75 -107 l 315 -107 l 288 -253 l -103 -253 l -75 -107 z "},"s":{"ha":728,"x_min":-26,"x_max":739,"o":"m 353 -10 q 144 28 244 -10 q -26 133 43 67 l 76 281 q 206 196 135 228 q 338 164 276 164 q 398 178 376 164 q 419 219 419 193 q 393 258 419 242 q 310 296 367 274 q 199 346 243 322 q 122 412 154 369 q 90 515 90 454 q 128 643 90 588 q 233 729 165 699 q 388 760 300 760 q 573 727 481 760 q 739 638 665 694 l 631 490 q 503 561 567 535 q 396 588 440 588 q 344 573 365 588 q 324 536 324 558 q 351 497 324 514 q 435 458 378 481 q 548 406 503 431 q 626 340 593 382 q 658 235 658 297 q 619 107 658 163 q 511 21 581 51 q 353 -10 442 -10 z "},"ś":{"ha":728,"x_min":-26,"x_max":739,"o":"m 353 -10 q 144 28 244 -10 q -26 133 43 67 l 76 281 q 206 196 135 228 q 338 164 276 164 q 398 178 376 164 q 419 219 419 193 q 393 258 419 242 q 310 296 367 274 q 199 346 243 322 q 122 412 154 369 q 90 515 90 454 q 128 643 90 588 q 233 729 165 699 q 388 760 300 760 q 573 727 481 760 q 739 638 665 694 l 631 490 q 503 561 567 535 q 396 588 440 588 q 344 573 365 588 q 324 536 324 558 q 351 497 324 514 q 435 458 378 481 q 548 406 503 431 q 626 340 593 382 q 658 235 658 297 q 619 107 658 163 q 511 21 581 51 q 353 -10 442 -10 m 499 1069 l 703 992 l 501 832 l 332 846 l 499 1069 z "},"ṥ":{"ha":728,"x_min":-26,"x_max":739,"o":"m 353 -10 q 144 28 244 -10 q -26 133 43 67 l 76 281 q 206 196 135 228 q 338 164 276 164 q 398 178 376 164 q 419 219 419 193 q 393 258 419 242 q 310 296 367 274 q 199 346 243 322 q 122 412 154 369 q 90 515 90 454 q 128 643 90 588 q 233 729 165 699 q 388 760 300 760 q 573 727 481 760 q 739 638 665 694 l 631 490 q 503 561 567 535 q 396 588 440 588 q 344 573 365 588 q 324 536 324 558 q 351 497 324 514 q 435 458 378 481 q 548 406 503 431 q 626 340 593 382 q 658 235 658 297 q 619 107 658 163 q 511 21 581 51 q 353 -10 442 -10 m 478 1054 l 646 953 l 425 835 l 279 874 l 478 1054 m 547 1321 q 616 1294 590 1321 q 642 1226 642 1268 q 601 1131 642 1169 q 503 1092 561 1092 q 435 1118 461 1092 q 410 1186 410 1144 q 451 1282 410 1243 q 547 1321 492 1321 z "},"ꞌ":{"ha":421,"x_min":90,"x_max":442,"o":"m 196 953 l 442 953 l 303 414 l 90 414 l 196 953 z "},"š":{"ha":728,"x_min":-26,"x_max":760,"o":"m 353 -10 q 144 28 244 -10 q -26 133 43 67 l 76 281 q 206 196 135 228 q 338 164 276 164 q 398 178 376 164 q 419 219 419 193 q 393 258 419 242 q 310 296 367 274 q 199 346 243 322 q 122 412 154 369 q 90 515 90 454 q 128 643 90 588 q 233 729 165 699 q 388 760 300 760 q 573 727 481 760 q 739 638 665 694 l 631 490 q 503 561 567 535 q 396 588 440 588 q 344 573 365 588 q 324 536 324 558 q 351 497 324 514 q 435 458 378 481 q 548 406 503 431 q 626 340 593 382 q 658 235 658 297 q 619 107 658 163 q 511 21 581 51 q 353 -10 442 -10 m 582 1060 l 760 1060 l 567 847 l 349 847 l 238 1060 l 415 1060 l 481 967 l 582 1060 z "},"ṧ":{"ha":728,"x_min":-26,"x_max":775,"o":"m 353 -10 q 144 28 244 -10 q -26 133 43 67 l 76 281 q 206 196 135 228 q 338 164 276 164 q 398 178 376 164 q 419 219 419 193 q 393 258 419 242 q 310 296 367 274 q 199 346 243 322 q 122 412 154 369 q 90 515 90 454 q 128 643 90 588 q 233 729 165 699 q 388 760 300 760 q 573 727 481 760 q 739 638 665 694 l 631 490 q 503 561 567 535 q 396 588 440 588 q 344 573 365 588 q 324 536 324 558 q 351 497 324 514 q 435 458 378 481 q 548 406 503 431 q 626 340 593 382 q 658 235 658 297 q 619 107 658 163 q 511 21 581 51 q 353 -10 442 -10 m 574 1007 l 775 1007 l 582 836 l 332 836 l 197 1007 l 397 1007 l 471 921 l 574 1007 m 536 1274 q 605 1247 579 1274 q 631 1179 631 1221 q 590 1083 631 1122 q 492 1044 550 1044 q 424 1071 450 1044 q 399 1139 399 1097 q 440 1235 399 1196 q 536 1274 481 1274 z "},"ş":{"ha":728,"x_min":-26,"x_max":739,"o":"m 324 536 q 351 497 324 514 q 435 458 378 481 q 548 406 503 431 q 626 340 593 382 q 658 235 658 297 q 621 109 658 164 q 516 23 583 54 q 361 -10 449 -8 l 325 -72 q 397 -111 374 -85 q 419 -172 419 -137 q 359 -286 419 -247 q 213 -325 299 -325 q 63 -296 135 -325 l 124 -179 q 193 -193 158 -193 q 240 -183 221 -193 q 258 -158 258 -174 q 238 -135 258 -144 q 188 -126 218 -126 l 154 -126 l 222 4 q 85 54 150 21 q -26 133 21 88 l 76 281 q 206 196 135 228 q 338 164 276 164 q 398 178 376 164 q 419 219 419 193 q 393 258 419 242 q 310 296 367 274 q 199 346 243 322 q 122 412 154 369 q 90 515 90 454 q 128 643 90 588 q 233 729 165 699 q 388 760 300 760 q 573 727 481 760 q 739 638 665 694 l 631 490 q 503 561 567 535 q 396 588 440 588 q 344 573 365 588 q 324 536 324 558 z "},"ŝ":{"ha":728,"x_min":-26,"x_max":739,"o":"m 353 -10 q 144 28 244 -10 q -26 133 43 67 l 76 281 q 206 196 135 228 q 338 164 276 164 q 398 178 376 164 q 419 219 419 193 q 393 258 419 242 q 310 296 367 274 q 199 346 243 322 q 122 412 154 369 q 90 515 90 454 q 128 643 90 588 q 233 729 165 699 q 388 760 300 760 q 573 727 481 760 q 739 638 665 694 l 631 490 q 503 561 567 535 q 396 588 440 588 q 344 573 365 588 q 324 536 324 558 q 351 497 324 514 q 435 458 378 481 q 548 406 503 431 q 626 340 593 382 q 658 235 658 297 q 619 107 658 163 q 511 21 581 51 q 353 -10 442 -10 m 719 847 l 542 847 l 476 940 l 375 847 l 197 847 l 390 1060 l 608 1060 l 719 847 z "},"ș":{"ha":728,"x_min":-26,"x_max":739,"o":"m 353 -10 q 144 28 244 -10 q -26 133 43 67 l 76 281 q 206 196 135 228 q 338 164 276 164 q 398 178 376 164 q 419 219 419 193 q 393 258 419 242 q 310 296 367 274 q 199 346 243 322 q 122 412 154 369 q 90 515 90 454 q 128 643 90 588 q 233 729 165 699 q 388 760 300 760 q 573 727 481 760 q 739 638 665 694 l 631 490 q 503 561 567 535 q 396 588 440 588 q 344 573 365 588 q 324 536 324 558 q 351 497 324 514 q 435 458 378 481 q 548 406 503 431 q 626 340 593 382 q 658 235 658 297 q 619 107 658 163 q 511 21 581 51 q 353 -10 442 -10 m 171 -83 l 374 -83 l 229 -325 l 85 -325 l 171 -83 z "},"ṡ":{"ha":728,"x_min":-26,"x_max":739,"o":"m 353 -10 q 144 28 244 -10 q -26 133 43 67 l 76 281 q 206 196 135 228 q 338 164 276 164 q 398 178 376 164 q 419 219 419 193 q 393 258 419 242 q 310 296 367 274 q 199 346 243 322 q 122 412 154 369 q 90 515 90 454 q 128 643 90 588 q 233 729 165 699 q 388 760 300 760 q 573 727 481 760 q 739 638 665 694 l 631 490 q 503 561 567 535 q 396 588 440 588 q 344 573 365 588 q 324 536 324 558 q 351 497 324 514 q 435 458 378 481 q 548 406 503 431 q 626 340 593 382 q 658 235 658 297 q 619 107 658 163 q 511 21 581 51 q 353 -10 442 -10 m 506 1097 q 585 1067 556 1097 q 614 989 614 1038 q 567 878 614 924 q 454 833 521 833 q 376 863 406 833 q 347 942 347 893 q 394 1052 347 1007 q 506 1097 440 1097 z "},"ṣ":{"ha":728,"x_min":-26,"x_max":739,"o":"m 353 -10 q 144 28 244 -10 q -26 133 43 67 l 76 281 q 206 196 135 228 q 338 164 276 164 q 398 178 376 164 q 419 219 419 193 q 393 258 419 242 q 310 296 367 274 q 199 346 243 322 q 122 412 154 369 q 90 515 90 454 q 128 643 90 588 q 233 729 165 699 q 388 760 300 760 q 573 727 481 760 q 739 638 665 694 l 631 490 q 503 561 567 535 q 396 588 440 588 q 344 573 365 588 q 324 536 324 558 q 351 497 324 514 q 435 458 378 481 q 548 406 503 431 q 626 340 593 382 q 658 235 658 297 q 619 107 658 163 q 511 21 581 51 q 353 -10 442 -10 m 271 -94 q 350 -124 321 -94 q 379 -203 379 -154 q 333 -313 379 -268 q 219 -358 286 -358 q 142 -328 171 -358 q 113 -250 113 -299 q 159 -140 113 -185 q 271 -94 206 -94 z "},"ṩ":{"ha":728,"x_min":-26,"x_max":739,"o":"m 353 -10 q 144 28 244 -10 q -26 133 43 67 l 76 281 q 206 196 135 228 q 338 164 276 164 q 398 178 376 164 q 419 219 419 193 q 393 258 419 242 q 310 296 367 274 q 199 346 243 322 q 122 412 154 369 q 90 515 90 454 q 128 643 90 588 q 233 729 165 699 q 388 760 300 760 q 573 727 481 760 q 739 638 665 694 l 631 490 q 503 561 567 535 q 396 588 440 588 q 344 573 365 588 q 324 536 324 558 q 351 497 324 514 q 435 458 378 481 q 548 406 503 431 q 626 340 593 382 q 658 235 658 297 q 619 107 658 163 q 511 21 581 51 q 353 -10 442 -10 m 271 -94 q 350 -124 321 -94 q 379 -203 379 -154 q 333 -313 379 -268 q 219 -358 286 -358 q 142 -328 171 -358 q 113 -250 113 -299 q 159 -140 113 -185 q 271 -94 206 -94 m 465 1097 q 544 1067 515 1097 q 574 989 574 1038 q 527 878 574 924 q 414 833 481 833 q 336 863 365 833 q 307 942 307 893 q 353 1052 307 1007 q 465 1097 400 1097 z "},"ß":{"ha":926,"x_min":3,"x_max":901,"o":"m 575 1042 q 745 1010 671 1042 q 860 924 819 979 q 901 796 901 868 q 851 645 901 717 q 718 532 801 574 q 826 456 786 511 q 867 326 867 400 q 808 158 867 232 q 647 42 750 83 q 414 0 544 0 l 346 0 l 382 178 l 436 178 q 574 216 524 178 q 625 321 625 254 q 585 394 625 368 q 469 419 544 419 l 444 419 l 478 596 q 608 639 561 596 q 654 758 654 682 q 628 829 654 804 q 554 854 601 854 q 447 815 490 854 q 390 703 404 775 l 250 0 l 3 0 l 139 683 q 289 947 172 851 q 575 1042 406 1042 z "},"t":{"ha":614,"x_min":61,"x_max":638,"o":"m 351 258 q 349 229 349 247 q 359 197 349 206 q 392 189 369 188 q 496 218 433 189 l 522 35 q 424 1 479 13 q 317 -11 369 -11 q 156 41 215 -11 q 96 183 96 93 q 101 239 96 213 l 164 551 l 61 551 l 93 715 l 197 715 l 239 924 l 485 924 l 443 715 l 638 715 l 606 551 l 410 551 l 351 258 z "},"ŧ":{"ha":607,"x_min":17,"x_max":638,"o":"m 414 572 l 394 475 l 589 475 l 561 332 l 365 332 l 353 268 q 350 242 350 249 q 401 189 350 189 q 503 214 443 189 l 515 39 q 413 2 469 15 q 300 -11 357 -11 q 149 36 204 -11 q 93 169 93 83 q 100 229 93 194 l 121 332 l 17 332 l 44 475 l 149 475 l 168 572 l 65 572 l 93 715 l 197 715 l 239 924 l 485 924 l 443 715 l 638 715 l 610 572 l 414 572 z "},"ť":{"ha":614,"x_min":61,"x_max":771,"o":"m 351 258 q 349 229 349 247 q 359 197 349 206 q 392 189 369 188 q 496 218 433 189 l 522 35 q 424 1 479 13 q 317 -11 369 -11 q 156 41 215 -11 q 96 183 96 93 q 101 239 96 213 l 164 551 l 61 551 l 93 715 l 197 715 l 239 924 l 485 924 l 443 715 l 638 715 l 606 551 l 410 551 l 351 258 m 589 1031 l 771 1031 l 690 786 l 542 786 l 589 1031 z "},"ţ":{"ha":614,"x_min":61,"x_max":638,"o":"m 351 258 q 349 229 349 247 q 359 197 349 206 q 392 189 369 188 q 496 218 433 189 l 522 35 q 361 -10 456 0 l 325 -72 q 397 -111 374 -85 q 419 -172 419 -137 q 359 -286 419 -247 q 213 -325 299 -325 q 63 -296 135 -325 l 124 -179 q 193 -193 158 -193 q 240 -183 221 -193 q 258 -158 258 -174 q 238 -135 258 -144 q 188 -126 218 -126 l 154 -126 l 222 3 q 129 70 163 24 q 96 182 96 117 q 101 239 96 213 l 164 551 l 61 551 l 93 715 l 197 715 l 239 924 l 485 924 l 443 715 l 638 715 l 606 551 l 410 551 l 351 258 z "},"ț":{"ha":614,"x_min":61,"x_max":638,"o":"m 351 258 q 349 229 349 247 q 359 197 349 206 q 392 189 369 188 q 496 218 433 189 l 522 35 q 424 1 479 13 q 317 -11 369 -11 q 156 41 215 -11 q 96 183 96 93 q 101 239 96 213 l 164 551 l 61 551 l 93 715 l 197 715 l 239 924 l 485 924 l 443 715 l 638 715 l 606 551 l 410 551 l 351 258 m 171 -83 l 374 -83 l 229 -325 l 85 -325 l 171 -83 z "},"ẗ":{"ha":614,"x_min":61,"x_max":638,"o":"m 351 258 q 349 229 349 247 q 359 197 349 206 q 392 189 369 188 q 496 218 433 189 l 522 35 q 424 1 479 13 q 317 -11 369 -11 q 156 41 215 -11 q 96 183 96 93 q 101 239 96 213 l 164 551 l 61 551 l 93 715 l 197 715 l 239 924 l 485 924 l 443 715 l 638 715 l 606 551 l 410 551 l 351 258 m 285 1235 q 349 1210 325 1235 q 372 1146 372 1186 q 334 1057 372 1094 q 243 1019 296 1019 q 180 1044 204 1019 q 156 1108 156 1069 q 194 1198 156 1161 q 285 1235 232 1235 m 551 1235 q 614 1210 590 1235 q 638 1146 638 1186 q 600 1057 638 1094 q 510 1019 563 1019 q 446 1044 469 1019 q 422 1108 422 1069 q 460 1198 422 1161 q 551 1235 499 1235 z "},"ṭ":{"ha":614,"x_min":61,"x_max":638,"o":"m 351 258 q 349 229 349 247 q 359 197 349 206 q 392 189 369 188 q 496 218 433 189 l 522 35 q 424 1 479 13 q 317 -11 369 -11 q 156 41 215 -11 q 96 183 96 93 q 101 239 96 213 l 164 551 l 61 551 l 93 715 l 197 715 l 239 924 l 485 924 l 443 715 l 638 715 l 606 551 l 410 551 l 351 258 m 271 -94 q 350 -124 321 -94 q 379 -203 379 -154 q 333 -313 379 -268 q 219 -358 286 -358 q 142 -328 171 -358 q 113 -250 113 -299 q 159 -140 113 -185 q 271 -94 206 -94 z "},"ṯ":{"ha":614,"x_min":46,"x_max":638,"o":"m 351 258 q 349 229 349 247 q 359 197 349 206 q 392 189 369 188 q 496 218 433 189 l 522 35 q 424 1 479 13 q 317 -11 369 -11 q 156 41 215 -11 q 96 183 96 93 q 101 239 96 213 l 164 551 l 61 551 l 93 715 l 197 715 l 239 924 l 485 924 l 443 715 l 638 715 l 606 551 l 410 551 l 351 258 m 74 -107 l 464 -107 l 436 -253 l 46 -253 l 74 -107 z "},"u":{"ha":940,"x_min":53,"x_max":919,"o":"m 310 -10 q 122 58 192 -10 q 53 235 53 125 q 60 307 53 276 l 149 751 l 396 751 l 314 343 q 310 307 310 325 q 339 228 310 257 q 419 200 368 200 q 531 247 482 200 q 596 369 581 294 l 672 751 l 919 751 l 771 0 l 524 0 l 543 100 q 310 -10 453 -10 z "},"ú":{"ha":940,"x_min":53,"x_max":919,"o":"m 310 -10 q 122 58 192 -10 q 53 235 53 125 q 60 307 53 276 l 149 751 l 396 751 l 314 343 q 310 307 310 325 q 339 228 310 257 q 419 200 368 200 q 531 247 482 200 q 596 369 581 294 l 672 751 l 919 751 l 771 0 l 524 0 l 543 100 q 310 -10 453 -10 m 604 1069 l 808 992 l 607 832 l 438 846 l 604 1069 z "},"ŭ":{"ha":940,"x_min":53,"x_max":919,"o":"m 310 -10 q 122 58 192 -10 q 53 235 53 125 q 60 307 53 276 l 149 751 l 396 751 l 314 343 q 310 307 310 325 q 339 228 310 257 q 419 200 368 200 q 531 247 482 200 q 596 369 581 294 l 672 751 l 919 751 l 771 0 l 524 0 l 543 100 q 310 -10 453 -10 m 526 1057 q 539 1000 522 1022 q 588 978 556 978 q 644 999 619 978 q 679 1057 669 1021 l 833 1057 q 735 894 810 956 q 560 833 660 833 q 422 882 472 833 q 371 1014 371 931 q 374 1057 371 1042 l 526 1057 z "}}}
